<svg width="911" height="476" viewBox="0 0 911 476" fill="none" xmlns="http://www.w3.org/2000/svg">
<g opacity="0.7">
<mask id="mask0_2579_24780" style="mask-type:alpha" maskUnits="userSpaceOnUse" x="0" y="0" width="910" height="460">
<rect y="0.929688" width="909.203" height="458.352" fill="#D9D9D9"/>
</mask>
<g mask="url(#mask0_2579_24780)">
</g>
<g clip-path="url(#clip0_2579_24780)">
<path d="M697.446 241.74C697.446 241.74 669.462 252.349 667.92 224.815C665.953 189.772 699.221 174.029 699.221 174.029" stroke="#5E11C9" stroke-width="2" stroke-miterlimit="10"/>
<path d="M700.988 172.053C700.988 172.053 684.845 185.045 708.071 201.979C731.297 218.905 707.479 225.205 707.479 225.205C707.479 225.205 686.22 232.88 704.529 259.848C704.529 259.848 714.171 270.282 719.88 268.315C725.588 266.348 720.663 259.848 715.355 263.981C710.038 268.115 705.121 278.157 712.005 290.166C718.897 302.175 726.964 305.916 734.647 303.75C742.322 301.583 734.647 290.758 725.397 296.858C716.146 302.958 722.638 335.051 739.572 332.093C756.498 329.142 791.541 303.941 758.073 266.54C758.073 266.54 743.898 253.156 731.497 248.623C719.097 244.097 717.521 250.981 717.521 250.981C717.521 250.981 716.338 257.873 731.889 255.906C747.439 253.939 745.081 229.722 736.614 223.822C728.147 217.913 722.83 219.096 719.688 225.197C716.538 231.297 730.714 235.43 739.964 217.913C749.214 200.396 736.422 180.703 729.33 175.461C722.238 170.219 713.055 165.486 700.979 172.053H700.988Z" stroke="#5E11C9" stroke-width="2" stroke-miterlimit="10"/>
<path d="M814.901 180.713C814.901 180.713 828.81 232.948 796.008 279.667C796.008 279.667 780.783 305.918 759.523 322.194" stroke="#5E11C9" stroke-width="2" stroke-miterlimit="10"/>
<path d="M752.439 260.765C752.439 260.765 787.874 240.556 788.399 184.387" stroke="#5E11C9" stroke-width="2" stroke-miterlimit="10"/>
<path d="M756.898 324.809C756.898 324.809 747.056 361.818 761.232 381.894C761.232 381.894 739.972 398.428 704.538 401.97C669.103 405.512 663.986 398.82 663.986 398.82C663.986 398.82 670.286 387.403 669.895 380.711C669.503 374.019 667.928 361.81 660.053 346.851C652.177 331.892 639.977 311.416 653.752 287.007C653.752 287.007 668.52 286.315 669.303 280.415L679.345 290.557L692.804 274.54L695.879 270.873" stroke="#5E11C9" stroke-width="2" stroke-miterlimit="10"/>
<path d="M708.862 285.05L692.795 274.541" stroke="#5E11C9" stroke-width="2" stroke-miterlimit="10"/>
<path d="M677.37 261.814C677.37 261.814 686.029 279.924 709.263 265.356" stroke="#5E11C9" stroke-width="2" stroke-miterlimit="10"/>
<path d="M653.744 287.016C653.744 287.016 646.66 288.591 640.36 280.324C634.06 272.057 635.635 252.765 647.052 246.073C658.469 239.381 653.744 250.406 653.744 250.406C645.477 260.64 638.393 248.048 638.393 248.048C628.551 221.672 669.495 208.68 669.495 208.68" stroke="#5E11C9" stroke-width="2" stroke-miterlimit="10"/>
<path d="M675.794 241.348C675.794 241.348 682.095 269.299 669.103 279.933" stroke="#5E11C9" stroke-width="2" stroke-miterlimit="10"/>
<path d="M686.42 204.338L680.911 211.422L685.245 214.18" stroke="#5E11C9" stroke-width="2" stroke-miterlimit="10"/>
<path d="M675.794 218.514C675.794 218.514 678.945 230.131 685.437 230.914C691.928 231.698 693.904 226.781 694.687 224.222C694.687 224.222 678.545 223.631 675.786 218.514H675.794Z" stroke="#5E11C9" stroke-width="2" stroke-miterlimit="10"/>
<path d="M697.237 210.914C697.831 210.914 698.312 210.432 698.312 209.839C698.312 209.245 697.831 208.764 697.237 208.764C696.643 208.764 696.162 209.245 696.162 209.839C696.162 210.432 696.643 210.914 697.237 210.914Z" fill="#5E11C9"/>
<path d="M681.503 199.312C682.097 199.312 682.578 198.831 682.578 198.237C682.578 197.643 682.097 197.162 681.503 197.162C680.909 197.162 680.428 197.643 680.428 198.237C680.428 198.831 680.909 199.312 681.503 199.312Z" fill="#5E11C9"/>
<path d="M641.935 283.475C641.935 283.475 610.833 326.393 615.95 333.085C621.067 339.777 619.1 324.427 618.709 322.451C618.317 320.485 588.391 273.633 588.391 273.633L565.557 285.442C565.557 285.442 587.007 340.46 594.299 353.944C602.175 368.512 621.076 377.17 652.96 336.619" stroke="#5E11C9" stroke-width="2" stroke-miterlimit="10"/>
<path d="M565.557 285.442L564.24 282.816" stroke="#5E11C9" stroke-width="2" stroke-miterlimit="10"/>
<path d="M569.64 265.715L563.131 286.032C562.198 288.949 559.073 290.558 556.164 289.616L545.356 286.149C542.439 285.216 540.83 282.091 541.772 279.182L544.131 271.807" stroke="#5E11C9" stroke-width="2" stroke-miterlimit="10"/>
<path d="M552.598 245.339L557.34 230.539C558.281 227.605 561.415 225.989 564.348 226.93L575.099 230.372C578.032 231.314 579.649 234.447 578.707 237.381L575.49 247.406" stroke="#5E11C9" stroke-width="2" stroke-miterlimit="10"/>
<path d="M588.391 273.633L575.399 248.04C575.399 248.04 572.64 238.59 565.949 242.532C559.257 246.474 558.465 249.616 558.465 249.616C558.465 249.616 557.682 252.374 561.615 252.374C565.549 252.374 568.899 248.04 569.29 251.191C569.29 251.191 567.515 260.541 569.49 265.958" stroke="#5E11C9" stroke-width="2" stroke-miterlimit="10"/>
<path d="M552.564 244.498C552.564 244.498 557.49 249.615 557.681 259.165C557.881 268.715 555.323 272.849 555.323 272.849C555.323 272.849 547.714 278.624 543.247 271.541C538.789 264.457 545.347 245.815 547.181 243.981C549.014 242.148 552.564 244.506 552.564 244.506V244.498Z" stroke="#5E11C9" stroke-width="2" stroke-miterlimit="10"/>
<path d="M805.866 158.577C806.25 153.718 808.675 151.41 809.65 150.668C809.65 150.668 809.65 150.668 809.666 150.668C810.708 150.126 811.883 149.751 813.208 149.61C823.925 148.451 829.059 160.727 825.709 166.835" stroke="#5E11C9" stroke-width="2" stroke-miterlimit="10"/>
<path d="M804.908 155.478C806.067 153.503 807.608 151.761 809.642 150.678" stroke="#5E11C9" stroke-width="2" stroke-miterlimit="10"/>
<path d="M801.799 164.669C801.824 164.061 801.883 162.585 801.783 161.06C799.041 160.102 796.416 159.077 793.899 158.002C788.391 164.177 788.391 184.395 788.391 184.395L814.9 180.711C814.9 180.711 815.067 180.52 815.35 180.186C813.442 177.078 811.733 173.711 810.191 170.186C808.475 169.427 807.125 167.944 806.5 165.361C806.25 164.319 806.066 163.352 805.966 162.444C804.8 162.094 803.658 161.71 802.533 161.319C802.199 162.527 801.966 163.669 801.799 164.669ZM801.799 164.669C801.449 166.711 801.383 168.119 801.383 168.119L801.774 164.969C801.774 164.969 801.774 164.861 801.799 164.669Z" stroke="#5E11C9" stroke-width="2" stroke-miterlimit="10"/>
<path d="M793.908 157.994C794.7 157.102 795.617 156.502 796.667 156.302C799.333 155.794 800.617 156.435 801.108 157.535C801.517 158.435 801.708 159.769 801.792 161.052" stroke="#5E11C9" stroke-width="2" stroke-miterlimit="10"/>
<path d="M810.051 150.395C810.051 150.395 809.9 150.478 809.658 150.662" stroke="#5E11C9" stroke-width="2" stroke-miterlimit="10"/>
<path d="M769.973 83.9746C770.632 106.859 761.473 126.485 747.381 128.76C731.372 131.351 707.262 117.459 700.171 91.7915C693.07 66.1239 702.704 41.0728 721.68 35.831C733.047 32.6808 746.172 37.1477 755.798 46.8814" stroke="#5E11C9" stroke-width="2" stroke-miterlimit="10"/>
<path d="M753.223 126.119C753.223 126.119 745.089 141.87 750.339 141.87C755.59 141.87 754.798 133.211 757.423 134.519C757.423 134.519 759.256 135.569 762.148 136.353C765.032 137.136 766.082 134.778 763.982 130.844C761.882 126.911 757.948 122.969 757.948 122.969" stroke="#5E11C9" stroke-width="2" stroke-miterlimit="10"/>
<path d="M755.798 46.8809C762.256 53.3978 767.14 62.2648 768.89 72.7902C769.515 76.5654 769.873 80.3072 769.973 83.9657" stroke="#5E11C9" stroke-width="2" stroke-miterlimit="10"/>
<path d="M795.183 97.7753C788.791 98.5836 778.474 93.0001 769.973 83.9747C769.873 80.3162 769.515 76.5744 768.89 72.7992C767.14 62.2655 762.256 53.4068 755.798 46.8899C757.906 27.5558 773.99 12.4552 792.033 11.7885C812.875 11.0218 830.476 29.6558 831.343 53.4068C832.218 77.1494 813.859 95.4168 795.183 97.7836V97.7753Z" stroke="#5E11C9" stroke-width="2" stroke-miterlimit="10"/>
<path d="M791.283 97.5089L790.499 99.3423L787.874 103.542C787.874 103.542 785.516 108.793 789.707 105.901C793.908 103.017 794.958 98.5506 796.266 100.917C797.574 103.284 799.675 107.743 799.675 107.743C799.675 107.743 799.933 110.626 801.775 108.526C803.616 106.426 800.991 100.126 799.15 97.2422" stroke="#5E11C9" stroke-width="2" stroke-miterlimit="10"/>
<path d="M815.351 180.186C818.301 185.036 821.718 189.27 825.659 192.528C852.952 215.096 888.654 180.444 888.654 180.444C888.654 180.444 902.962 166.569 907.796 151.552C909.421 146.543 909.979 141.41 908.596 136.609" stroke="#5E11C9" stroke-width="2" stroke-miterlimit="10"/>
<path d="M796.274 100.918C796.274 100.918 796.933 125.719 805.858 156.562" stroke="#5E11C9" stroke-width="2" stroke-miterlimit="10"/>
<path d="M825.7 166.836C825.609 167.003 825.509 167.169 825.4 167.328C825.4 167.328 815.842 172.711 810.191 170.186" stroke="#5E11C9" stroke-width="2" stroke-miterlimit="10"/>
<path d="M825.409 167.328C822.092 172.303 816.917 178.387 815.359 180.187C813.45 177.079 811.742 173.712 810.2 170.187C815.85 172.712 825.409 167.328 825.409 167.328Z" stroke="#5E11C9" stroke-width="2" stroke-miterlimit="10"/>
<path d="M805.866 158.577C805.774 159.719 805.791 161.002 805.974 162.436C804.808 162.077 803.666 161.702 802.541 161.311C802.916 159.927 803.416 158.461 804.074 157.052C804.333 156.51 804.608 155.977 804.908 155.469" stroke="#5E11C9" stroke-width="2" stroke-miterlimit="10"/>
<path d="M802.542 161.311C802.283 161.228 802.041 161.145 801.791 161.053" stroke="#5E11C9" stroke-width="2" stroke-miterlimit="10"/>
<path d="M757.423 134.518C757.423 134.518 770.857 148.16 793.899 157.994" stroke="#5E11C9" stroke-width="2" stroke-miterlimit="10"/>
<path d="M825.409 167.328C825.409 167.328 841.16 159.061 866.552 164.961C893.737 171.287 909.071 193.896 909.071 193.896" stroke="#5E11C9" stroke-width="2" stroke-miterlimit="10"/>
<path d="M557.781 163.586H557.573C556.109 163.586 554.923 164.772 554.923 166.236V174.72C554.923 176.183 556.109 177.37 557.573 177.37H557.781C559.245 177.37 560.431 176.183 560.431 174.72V166.236C560.431 164.772 559.245 163.586 557.781 163.586Z" stroke="#5E11C9" stroke-width="2" stroke-miterlimit="10"/>
<path d="M539.11 204.27L538.934 204.382C537.699 205.168 537.335 206.806 538.121 208.041L542.676 215.198C543.461 216.433 545.099 216.797 546.334 216.011L546.51 215.899C547.745 215.113 548.109 213.475 547.323 212.241L542.768 205.083C541.983 203.848 540.345 203.484 539.11 204.27Z" stroke="#5E11C9" stroke-width="2" stroke-miterlimit="10"/>
<path d="M587.34 182.041L587.388 182.244C587.73 183.667 589.161 184.543 590.584 184.201L598.833 182.217C600.256 181.875 601.132 180.444 600.79 179.021L600.741 178.819C600.399 177.396 598.968 176.519 597.545 176.862L589.297 178.845C587.874 179.187 586.997 180.618 587.34 182.041Z" stroke="#5E11C9" stroke-width="2" stroke-miterlimit="10"/>
<path d="M574.875 222.084L575.045 222.206C576.232 223.061 577.889 222.791 578.744 221.603L583.7 214.718C584.555 213.53 584.286 211.874 583.098 211.019L582.929 210.897C581.741 210.042 580.085 210.312 579.23 211.5L574.273 218.385C573.418 219.573 573.688 221.229 574.875 222.084Z" stroke="#5E11C9" stroke-width="2" stroke-miterlimit="10"/>
<path d="M563.45 199.113L563.244 199.144C561.797 199.36 560.798 200.709 561.014 202.156L562.267 210.547C562.483 211.995 563.832 212.993 565.279 212.777L565.485 212.746C566.933 212.53 567.931 211.181 567.715 209.734L566.463 201.343C566.246 199.895 564.898 198.897 563.45 199.113Z" stroke="#5E11C9" stroke-width="2" stroke-miterlimit="10"/>
<path d="M576.583 191.079C578.175 191.079 579.466 189.788 579.466 188.196C579.466 186.603 578.175 185.312 576.583 185.312C574.99 185.312 573.699 186.603 573.699 188.196C573.699 189.788 574.99 191.079 576.583 191.079Z" stroke="#5E11C9" stroke-width="2" stroke-miterlimit="10"/>
<path d="M550.59 192.396C552.182 192.396 553.473 191.105 553.473 189.512C553.473 187.92 552.182 186.629 550.59 186.629C548.997 186.629 547.706 187.92 547.706 189.512C547.706 191.105 548.997 192.396 550.59 192.396Z" stroke="#5E11C9" stroke-width="2" stroke-miterlimit="10"/>
<path d="M592.591 164.437C594.184 164.437 595.475 163.146 595.475 161.553C595.475 159.961 594.184 158.67 592.591 158.67C590.999 158.67 589.708 159.961 589.708 161.553C589.708 163.146 590.999 164.437 592.591 164.437Z" stroke="#5E11C9" stroke-width="2" stroke-miterlimit="10"/>
<path d="M604.925 211.156C606.518 211.156 607.809 209.865 607.809 208.272C607.809 206.68 606.518 205.389 604.925 205.389C603.333 205.389 602.042 206.68 602.042 208.272C602.042 209.865 603.333 211.156 604.925 211.156Z" stroke="#5E11C9" stroke-width="2" stroke-miterlimit="10"/>
<path d="M393.642 200.096C393.642 200.096 393.783 200.962 393.783 204.879C393.783 209.654 401.717 210.146 404.8 209.171C407.35 208.363 409.892 207.663 412.551 207.263C421.018 205.996 429.735 207.354 437.21 211.604C444.885 215.971 450.719 222.913 455.044 230.514L471.986 263.532" stroke="#5E11C9" stroke-width="2" stroke-miterlimit="10"/>
<path d="M443.96 247.121L459.602 367.359C459.602 367.359 420.176 411.019 349.465 388.21L349.14 371.593" stroke="#5E11C9" stroke-width="2" stroke-miterlimit="10"/>
<path d="M485.02 199.22C485.02 199.22 484.045 179.02 486.32 176.411C488.595 173.803 491.204 185.862 491.204 185.862C491.204 185.862 496.746 148.718 505.213 148.393C513.688 148.068 523.788 164.361 514.988 198.57L514.338 200.854" stroke="#5E11C9" stroke-width="2" stroke-miterlimit="10"/>
<path d="M375.865 182.927C375.865 182.927 384.499 202.069 404.541 202.478C425.717 202.911 429.309 158.926 422.792 143.717" stroke="#5E11C9" stroke-width="2" stroke-miterlimit="10"/>
<path d="M357.04 146.576C360.54 133.776 370.532 118.875 398.35 121.35C398.35 121.35 411.384 121.35 422.784 129.492C430.968 135.334 424.101 143.743 417.984 147.776C414.034 150.376 408.325 149.651 403.792 149.068C398.283 148.359 392.858 146.734 387.925 144.159C374.241 136.992 375.541 155.235 375.541 155.235" stroke="#5E11C9" stroke-width="2" stroke-miterlimit="10"/>
<path d="M355.607 153.977C354.932 159.618 355.332 163.71 355.332 163.71C355.007 183.261 366.732 182.936 366.732 182.936C370.966 197.595 362.173 206.07 362.173 206.07C362.173 206.07 391.825 242.563 395.408 208.354" stroke="#5E11C9" stroke-width="2" stroke-miterlimit="10"/>
<path d="M369.349 173.811C369.349 173.811 375.649 182.178 366.74 182.936" stroke="#5E11C9" stroke-width="2" stroke-miterlimit="10"/>
<path d="M372.607 162.726C372.607 162.726 371.307 156.209 365.44 161.426C359.573 166.643 369.673 175.11 372.607 175.11" stroke="#5E11C9" stroke-width="2" stroke-miterlimit="10"/>
<path d="M372.065 160.886L377.065 162.402L383.041 161.969L379.024 157.194L349.764 143.677C348.523 143.102 347.047 143.635 346.464 144.877L345.781 146.327C345.189 147.585 345.739 149.093 347.014 149.66L368.598 159.369" stroke="#5E11C9" stroke-width="2" stroke-miterlimit="10"/>
<path d="M362.182 206.07C362.182 206.07 361.157 207.637 358.99 209.712C355.84 212.737 350.281 216.846 341.973 218.779C327.964 222.038 317.863 233.438 312.321 267.981C306.779 302.524 294.729 352.051 308.413 377.461C322.097 402.87 401.6 332.817 401.6 332.817L388.241 293.39C381.182 300.266 374.132 307.133 367.074 314.008C361.657 319.283 356.231 324.567 350.815 329.842C347.348 333.217 337.506 337.567 337.156 343.026C337.022 345.068 338.506 346.234 339.564 346.043C344.814 345.093 348.023 339.192 349.848 334.709C352.106 329.142 353.498 323.208 354.706 317.333C356.998 306.224 358.473 294.924 359.565 283.64C359.682 282.44 359.79 281.232 359.89 280.032" stroke="#5E11C9" stroke-width="2" stroke-miterlimit="10"/>
<path d="M471.987 263.522L475.895 275.798C476.42 277.314 476.795 279.648 475.387 281.09C473.978 282.531 470.678 282.498 469.603 279.206C468.778 276.664 469.761 272.264 470.245 269.906C471.095 265.714 472.678 261.614 473.503 257.422C476.012 244.755 478.512 232.096 481.02 219.429C482.354 212.695 483.687 205.962 485.012 199.236L519.113 200.536C517.055 223.079 515.005 245.63 512.947 268.172C511.38 285.373 512.655 303.09 496.221 313.983C482.745 322.916 467.028 312.491 459.069 301.215C457.603 299.14 456.194 297.024 454.761 294.924C452.894 292.207 451.036 289.49 449.169 286.773" stroke="#5E11C9" stroke-width="2" stroke-miterlimit="10"/>
<path d="M358.99 209.713C358.99 209.713 365.766 232.789 376.191 243.214L384.008 223.338L402.909 237.022C402.909 237.022 407.109 220.946 402.475 209.654" stroke="#5E11C9" stroke-width="2" stroke-miterlimit="10"/>
<path d="M396.175 162.727C397.013 162.727 397.692 162.048 397.692 161.21C397.692 160.372 397.013 159.693 396.175 159.693C395.337 159.693 394.658 160.372 394.658 161.21C394.658 162.048 395.337 162.727 396.175 162.727Z" fill="#5E11C9"/>
<path d="M413.801 159.502C414.639 159.502 415.318 158.823 415.318 157.985C415.318 157.148 414.639 156.469 413.801 156.469C412.963 156.469 412.284 157.148 412.284 157.985C412.284 158.823 412.963 159.502 413.801 159.502Z" fill="#5E11C9"/>
<path d="M408.342 164.035L410.95 173.811C410.95 173.811 408.558 175.769 406.608 174.677" stroke="#5E11C9" stroke-width="2" stroke-miterlimit="10"/>
<path d="M394.875 176.635C394.875 176.635 400.959 181.635 409.651 181.194C409.651 181.194 408.767 189.277 399.442 184.886C395.75 183.144 394.883 176.627 394.883 176.627L394.875 176.635Z" stroke="#5E11C9" stroke-width="2" stroke-miterlimit="10"/>
<path d="M391.033 301.032L404.642 283.939C404.642 283.939 409.859 280.897 402.467 295.231C402.467 295.231 425.06 278.289 429.401 278.289C433.402 278.289 432.943 287.848 432.835 290.098C432.427 298.582 430.593 308.624 423.86 314.457C417.176 320.249 408.409 326.224 400.292 328.833" stroke="#5E11C9" stroke-width="2" stroke-miterlimit="10"/>
<path d="M405.083 255.414L396.95 256.897C395.908 257.081 395.191 258.048 395.325 259.098L399.291 290.457" stroke="#5E11C9" stroke-width="2" stroke-miterlimit="10"/>
<path d="M404.533 327.167L406.45 339.218C406.625 340.509 408.108 341.235 409.325 340.634L445.001 323.067C445.743 322.7 446.16 321.934 446.052 321.15L436.093 251.989C435.943 250.939 434.893 250.214 433.784 250.398L426.367 251.706" stroke="#5E11C9" stroke-width="2" stroke-miterlimit="10"/>
<path d="M406.25 259.988L426.226 255.78C427.401 255.53 427.934 254.163 427.234 253.188L424.742 249.721C423.584 248.121 421.634 247.296 419.675 247.596L409.933 249.096C407.525 249.463 405.617 251.321 405.183 253.721L404.375 258.163C404.175 259.263 405.15 260.213 406.25 259.988Z" stroke="#5E11C9" stroke-width="2" stroke-miterlimit="10"/>
<path d="M406.242 269.606L428.393 262.947" stroke="#5E11C9" stroke-width="2" stroke-miterlimit="10"/>
<path d="M408.842 279.165L427.526 272.498" stroke="#5E11C9" stroke-width="2" stroke-miterlimit="10"/>
<path d="M287.862 98.25C294.204 99.9167 301.938 103.009 309.913 106.942" stroke="#5E11C9" stroke-width="2" stroke-miterlimit="10"/>
<path d="M460.019 367.611L467.519 475.116" stroke="#5E11C9" stroke-width="2" stroke-miterlimit="10"/>
<path d="M349.181 388.445L341.681 475.115" stroke="#5E11C9" stroke-width="2" stroke-miterlimit="10"/>
<path d="M412.518 427.613L405.851 480.949" stroke="#5E11C9" stroke-width="2" stroke-miterlimit="10"/>
<path d="M410.017 454.281L411.683 475.949" stroke="#5E11C9" stroke-width="2" stroke-miterlimit="10"/>
<path d="M663.985 398.828L652.526 475.115" stroke="#5E11C9" stroke-width="2" stroke-miterlimit="10"/>
<path d="M761.231 381.902C761.231 381.902 783.682 410.945 788.241 444.188C792.799 477.423 788.241 474.814 788.241 474.814" stroke="#5E11C9" stroke-width="2" stroke-miterlimit="10"/>
<path d="M719.813 446.139L716.555 474.815" stroke="#5E11C9" stroke-width="2" stroke-miterlimit="10"/>
<path d="M745.881 405.078C745.881 405.078 763.473 422.671 771.949 416.154" stroke="#5E11C9" stroke-width="2" stroke-miterlimit="10"/>
<path d="M133.203 110.98C133.203 110.98 153.341 144.785 205.425 141.233C250.475 138.16 267.919 110.036 267.919 110.036C273.448 102.446 255.206 99.3872 265.109 109.143C275.02 118.899 271.328 142.355 271.328 142.355C265.109 143.584 238.701 127.346 241.894 124.159C244.405 121.65 246.342 125.86 246.342 125.86C254.341 147.865 240.63 161.452 240.63 161.452C240.63 161.452 233.354 157.357 220.957 147.086C208.568 136.816 218.479 131.785 218.363 136.859C218.246 141.933 212.7 150.781 212.7 150.781C196.57 174.595 194.74 169.556 194.74 169.556C194.74 169.556 188.08 165.397 182.634 153.969C176.024 140.097 183.366 133.343 186.06 138.496C188.105 142.426 173.928 156.62 167.983 163.782C162.038 170.943 159.577 168.57 159.577 168.57C145.766 149.488 151.661 124.352 155.935 125.367C160.209 126.381 157.374 129.169 157.374 129.169C157.374 129.169 138.366 146.15 132.986 150.445C127.607 154.741 126.102 152.668 126.102 152.668C126.102 152.668 116.54 139.217 138.216 109.529C138.216 109.529 139.048 107.513 135.298 106.984C131.548 106.456 133.203 110.973 133.203 110.973V110.98Z" stroke="#5E11C9" stroke-width="2" stroke-miterlimit="10"/>
<path d="M168.925 182.637C168.925 182.637 161.541 179.595 150.457 184.153C139.374 188.712 131.773 200.446 129.606 211.088C127.431 221.73 126.998 231.289 135.257 242.372C143.515 253.448 152.199 244.981 152.199 244.981C152.199 244.981 154.157 241.939 149.374 241.072C144.59 240.206 126.565 249.981 133.082 268.873C139.599 287.774 154.591 282.341 154.591 282.341C154.591 282.341 173.708 269.307 167.408 245.197" stroke="#5E11C9" stroke-width="2" stroke-miterlimit="10"/>
<path d="M180.875 198.062C176.516 214.663 167.749 219.488 163.983 220.822C163.024 221.163 162.516 222.205 162.866 223.163L164.799 228.48C164.799 228.48 160.241 223.263 157.416 223.705C154.591 224.147 156.332 232.614 159.157 234.781C161.982 236.947 163.716 236.739 163.716 236.739L166.108 243.039C169.099 248.523 171.591 251.54 176.75 255.206C184.542 260.732 194.659 257.381 201.734 251.948C214.768 241.923 224.86 218.163 212.593 205.896C210.634 203.938 204.776 202.204 204.776 202.204C197.526 201.329 164.491 198.471 168.358 184.104C168.649 183.02 169.183 182.12 169.874 181.362C172.291 178.728 176.691 177.778 180.033 176.903C186.833 175.128 194.025 174.695 200.942 176.078C217.568 179.395 229.119 192.787 236.269 207.413C236.269 207.413 243.652 220.447 236.485 234.781C229.319 249.114 218.018 258.457 227.577 265.84C237.136 273.224 228.66 282.999 224.102 285.824C219.993 288.366 214.635 287.566 209.668 287.216C194.775 286.149 194.609 259.59 196.084 255.415" stroke="#5E11C9" stroke-width="2" stroke-miterlimit="10"/>
<path d="M179.566 238.906C179.566 238.906 189.775 245.423 199.767 241.298C199.767 241.298 198.9 246.948 191.291 248.465C183.683 249.982 179.558 238.906 179.558 238.906H179.566Z" stroke="#5E11C9" stroke-width="2" stroke-miterlimit="10"/>
<path d="M194.342 226.955L194.992 235.43C194.992 235.43 192.383 236.947 188.691 236.08" stroke="#5E11C9" stroke-width="2" stroke-miterlimit="10"/>
<path d="M181.524 225.432C182.422 225.432 183.15 224.704 183.15 223.807C183.15 222.909 182.422 222.182 181.524 222.182C180.627 222.182 179.899 222.909 179.899 223.807C179.899 224.704 180.627 225.432 181.524 225.432Z" fill="#5E11C9"/>
<path d="M200.334 224.682C201.232 224.682 201.959 223.954 201.959 223.057C201.959 222.159 201.232 221.432 200.334 221.432C199.437 221.432 198.709 222.159 198.709 223.057C198.709 223.954 199.437 224.682 200.334 224.682Z" fill="#5E11C9"/>
<path d="M232.577 270.183C288.621 232.823 286.446 138.978 286.446 138.978C286.446 138.978 306.863 130.719 324.681 136.369C324.681 136.369 319.681 274.092 251.911 321.443" stroke="#5E11C9" stroke-width="2" stroke-miterlimit="10"/>
<path d="M133.081 272.79C90.9376 253.673 93.546 164.178 93.546 164.178L62.7031 166.786C41.4189 222.83 69.22 291.908 108.322 320.584C147.423 349.26 161.757 420.946 161.757 420.946C243.869 429.205 253.861 395.745 253.861 395.745C261.678 320.367 241.694 294.733 241.694 294.733" stroke="#5E11C9" stroke-width="2" stroke-miterlimit="10"/>
<path d="M165.016 270.398C165.016 270.398 166.941 270.873 169.024 271.207C175.258 272.207 188.7 273.874 196.517 271.265" stroke="#5E11C9" stroke-width="2" stroke-miterlimit="10"/>
<path d="M169.024 271.207L168.166 281.049" stroke="#5E11C9" stroke-width="2" stroke-miterlimit="10"/>
<path d="M177.724 272.467L177.291 281.592" stroke="#5E11C9" stroke-width="2" stroke-miterlimit="10"/>
<path d="M186.741 272.791L187.391 280.716" stroke="#5E11C9" stroke-width="2" stroke-miterlimit="10"/>
<path d="M193.476 272.357C193.476 272.357 193.801 276.483 194.342 279.199" stroke="#5E11C9" stroke-width="2" stroke-miterlimit="10"/>
<path d="M295.896 136.152L291.662 120.293" stroke="#5E11C9" stroke-width="2" stroke-miterlimit="10"/>
<path d="M324.681 136.369C324.681 136.369 333.806 96.834 305.13 89.4504C305.13 89.4504 290.354 78.1583 289.054 85.9753C287.754 93.7923 284.279 110.743 286.446 115.518C288.621 120.293 296.005 124.21 301.655 119.427C307.305 114.651 310.78 104.218 310.78 104.218" stroke="#5E11C9" stroke-width="2" stroke-miterlimit="10"/>
<path d="M64.4363 166.204C64.4363 166.204 52.1609 124.752 80.6537 117.252C100.871 111.935 92.2375 138.761 92.2375 138.761C89.9957 142.787 80.3203 156.979 77.7536 133.761" stroke="#5E11C9" stroke-width="2" stroke-miterlimit="10"/>
<path d="M267.22 113.343C267.22 113.343 272.62 106.01 285.812 103.701" stroke="#5E11C9" stroke-width="2" stroke-miterlimit="10"/>
<path d="M93.5463 164.178C93.5463 164.178 102.997 147.236 100.388 142.669C98.5215 139.402 95.1547 138.811 93.3879 138.736C92.6962 138.711 92.0545 139.069 91.6879 139.652L90.8795 140.927C90.4962 141.561 90.8628 142.377 91.1795 142.961C91.6795 143.886 92.5796 144.294 92.9129 145.344C93.1963 146.236 93.3046 147.544 92.7462 148.353L90.6045 151.461" stroke="#5E11C9" stroke-width="2" stroke-miterlimit="10"/>
<path d="M91.1963 118.16C92.163 117.16 93.1547 116.227 94.1797 115.36C100.855 109.71 108.88 106.943 119.614 108.46C119.614 108.46 130.19 110.743 134.531 115.668" stroke="#5E11C9" stroke-width="2" stroke-miterlimit="10"/>
<path d="M38.1523 135.828C38.1523 135.828 62.695 166.779 74.3205 144.303C75.5288 141.962 76.7289 139.678 77.9373 137.478" stroke="#5E11C9" stroke-width="2" stroke-miterlimit="10"/>
<path d="M135.64 114.434C135.64 114.434 114.381 159.303 108.755 155.269C96.4966 146.486 103.222 104.876 103.872 103.242C103.872 103.242 105.605 98.5005 108.322 99.6588C111.906 101.176 102.889 110.301 102.889 110.301" stroke="#5E11C9" stroke-width="2" stroke-miterlimit="10"/>
<path d="M253.753 395.746L255.161 419.564C255.161 419.564 209.351 445.606 160.016 435.589" stroke="#5E11C9" stroke-width="2" stroke-miterlimit="10"/>
<path d="M147.507 475.949C147.507 475.949 162.709 460.343 161.618 420.947" stroke="#5E11C9" stroke-width="2" stroke-miterlimit="10"/>
<path d="M255.012 419.281C255.012 419.281 263.938 475.117 265.845 475.117" stroke="#5E11C9" stroke-width="2" stroke-miterlimit="10"/>
</g>
</g>
<defs>
<clipPath id="clip0_2579_24780">
<rect width="872.718" height="464.76" fill="white" transform="translate(37.502 10.9297)"/>
</clipPath>
</defs>
</svg>
