<svg width="126" height="38" viewBox="0 0 126 38" fill="none" xmlns="http://www.w3.org/2000/svg">
<path d="M63.2645 36.9217H60.9785L56.7305 24.3217H59.4845L61.5545 30.8377C61.6505 31.1137 61.7465 31.4317 61.8425 31.7917C61.9385 32.1517 62.0345 32.5597 62.1305 33.0157C62.1665 32.8237 62.2145 32.6197 62.2745 32.4037C62.3345 32.1757 62.3945 31.9537 62.4545 31.7377C62.5265 31.5097 62.5925 31.2937 62.6525 31.0897C62.7245 30.8737 62.7905 30.6817 62.8505 30.5137L64.9745 24.3217H67.6205L63.2645 36.9217Z" fill="#5E11C9"/>
<path d="M70.1588 32.9797V33.0517C70.1588 33.7717 70.3267 34.3237 70.6628 34.7077C70.9988 35.0917 71.4788 35.2837 72.1027 35.2837C72.9188 35.2837 73.6988 34.9777 74.4428 34.3657L75.3787 35.8057C74.3347 36.6577 73.1768 37.0837 71.9047 37.0837C71.2448 37.0837 70.6447 36.9697 70.1047 36.7417C69.5647 36.5137 69.1027 36.1957 68.7188 35.7877C68.3468 35.3677 68.0588 34.8637 67.8547 34.2757C67.6507 33.6877 67.5487 33.0337 67.5487 32.3137C67.5487 31.4857 67.6388 30.7837 67.8188 30.2077C67.9988 29.6317 68.2928 29.1157 68.7008 28.6597C69.0848 28.2397 69.5107 27.9277 69.9788 27.7237C70.4468 27.5197 70.9867 27.4177 71.5988 27.4177C72.1388 27.4177 72.6428 27.5017 73.1108 27.6697C73.5788 27.8377 73.9628 28.0777 74.2628 28.3897C74.6828 28.8217 74.9888 29.3617 75.1807 30.0097C75.3848 30.6457 75.4867 31.4497 75.4867 32.4217V32.9797H70.1588ZM72.9848 31.1077C72.9848 30.7597 72.9608 30.4837 72.9128 30.2797C72.8768 30.0757 72.8048 29.8897 72.6968 29.7217C72.4568 29.3617 72.1028 29.1817 71.6348 29.1817C71.1788 29.1817 70.8247 29.3557 70.5728 29.7037C70.3208 30.0397 70.1947 30.5317 70.1947 31.1797V31.2157H72.9848V31.1077Z" fill="#5E11C9"/>
<path d="M82.266 36.8317V30.8377C82.266 30.3097 82.206 29.9557 82.086 29.7757C81.978 29.5837 81.768 29.4877 81.456 29.4877C81.216 29.4877 80.946 29.5657 80.646 29.7217C80.346 29.8657 80.058 30.0637 79.782 30.3157V36.8317H77.37V30.1537C77.37 29.7577 77.34 29.3797 77.28 29.0197C77.232 28.6477 77.154 28.3057 77.046 27.9937L79.188 27.3817C79.416 27.7777 79.53 28.1617 79.53 28.5337C79.71 28.4017 79.878 28.2817 80.034 28.1737C80.202 28.0657 80.388 27.9577 80.592 27.8497C80.832 27.7177 81.096 27.6217 81.384 27.5617C81.684 27.4897 81.972 27.4537 82.248 27.4537C82.764 27.4537 83.226 27.5797 83.634 27.8317C84.042 28.0717 84.318 28.3897 84.462 28.7857C84.582 29.1097 84.642 29.5477 84.642 30.0997V36.8317H82.266Z" fill="#5E11C9"/>
<path d="M92.8808 36.8317C92.8208 36.7117 92.7728 36.5317 92.7368 36.2917C92.1488 36.8077 91.4408 37.0657 90.6128 37.0657C90.0248 37.0657 89.4968 36.9577 89.0288 36.7417C88.5608 36.5137 88.1588 36.2017 87.8228 35.8057C87.4988 35.3977 87.2468 34.9057 87.0668 34.3297C86.8868 33.7537 86.7968 33.1057 86.7968 32.3857C86.7968 31.6657 86.8928 31.0117 87.0848 30.4237C87.2768 29.8237 87.5468 29.3077 87.8948 28.8757C88.2428 28.4437 88.6568 28.1137 89.1368 27.8857C89.6168 27.6457 90.1508 27.5257 90.7388 27.5257C91.3988 27.5257 91.9448 27.6997 92.3768 28.0477C92.3528 27.9517 92.3348 27.7717 92.3228 27.5077C92.3108 27.2317 92.3048 26.9557 92.3048 26.6797V23.5117L94.6988 23.8897V33.4657C94.6988 34.0297 94.7048 34.5097 94.7168 34.9057C94.7408 35.2897 94.7708 35.6137 94.8068 35.8777C94.8428 36.1297 94.8788 36.3337 94.9148 36.4897C94.9628 36.6337 95.0048 36.7477 95.0408 36.8317H92.8808ZM92.3408 30.0457C91.8848 29.6497 91.4468 29.4517 91.0268 29.4517C90.4868 29.4517 90.0908 29.6857 89.8388 30.1537C89.5988 30.6217 89.4788 31.3717 89.4788 32.4037C89.4788 32.8957 89.5028 33.3097 89.5508 33.6457C89.6108 33.9817 89.7068 34.2517 89.8388 34.4557C89.9708 34.6597 90.1448 34.8097 90.3608 34.9057C90.5768 34.9897 90.8408 35.0317 91.1528 35.0317C91.3808 35.0317 91.6028 34.9717 91.8188 34.8517C92.0468 34.7197 92.2208 34.5817 92.3408 34.4377V30.0457Z" fill="#5E11C9"/>
<path d="M105.095 32.1877C105.095 32.9797 104.999 33.6577 104.807 34.2217C104.627 34.7857 104.339 35.2957 103.943 35.7517C103.595 36.1477 103.181 36.4597 102.701 36.6877C102.221 36.9157 101.621 37.0297 100.901 37.0297C100.277 37.0297 99.7075 36.9157 99.1915 36.6877C98.6875 36.4597 98.2555 36.1417 97.8955 35.7337C97.5355 35.3137 97.2535 34.8097 97.0495 34.2217C96.8575 33.6337 96.7615 32.9797 96.7615 32.2597C96.7615 31.5397 96.8575 30.8857 97.0495 30.2977C97.2535 29.6977 97.5355 29.1877 97.8955 28.7677C98.2555 28.3357 98.6875 28.0057 99.1915 27.7777C99.7075 27.5497 100.277 27.4357 100.901 27.4357C102.209 27.4357 103.253 27.8977 104.033 28.8217C104.405 29.2537 104.675 29.7337 104.843 30.2617C105.011 30.7897 105.095 31.4317 105.095 32.1877ZM102.467 32.1697C102.467 30.9457 102.305 30.1237 101.981 29.7037C101.729 29.3797 101.381 29.2177 100.937 29.2177C100.649 29.2177 100.391 29.3017 100.163 29.4697C99.9475 29.6377 99.7915 29.8657 99.6955 30.1537C99.6115 30.3937 99.5455 30.6817 99.4975 31.0177C99.4615 31.3537 99.4435 31.7497 99.4435 32.2057C99.4435 33.2737 99.5455 34.0477 99.7495 34.5277C99.8575 34.7797 100.025 34.9717 100.253 35.1037C100.493 35.2237 100.733 35.2837 100.973 35.2837C101.501 35.2837 101.879 35.0377 102.107 34.5457C102.347 34.0537 102.467 33.2617 102.467 32.1697Z" fill="#5E11C9"/>
<path d="M111.755 29.7217C111.527 29.6017 111.293 29.5417 111.053 29.5417C110.513 29.5417 110.021 29.7997 109.577 30.3157V36.8317H107.165V30.6757C107.165 30.0517 107.129 29.5117 107.057 29.0557C106.997 28.5997 106.919 28.2397 106.823 27.9757L108.983 27.3997C109.199 27.7837 109.325 28.2217 109.361 28.7137C109.625 28.3657 109.937 28.0597 110.297 27.7957C110.657 27.5317 111.065 27.3997 111.521 27.3997C111.701 27.3997 111.845 27.4117 111.953 27.4357C112.073 27.4597 112.229 27.5137 112.421 27.5977L111.755 29.7217Z" fill="#5E11C9"/>
<path d="M54.2042 3.85839H50.1936V17.6486H46.7629V3.85839H42.6556V1.09559H54.7599L54.2042 3.85839Z" fill="#5E11C9"/>
<path d="M65.535 11.5037C65.535 12.5517 65.4061 13.4488 65.1484 14.1951C64.9068 14.9413 64.5202 15.6162 63.9887 16.2195C63.5216 16.7435 62.9659 17.1564 62.3216 17.458C61.6774 17.7597 60.872 17.9106 59.9056 17.9106C59.0681 17.9106 58.303 17.7597 57.6104 17.458C56.9339 17.1564 56.3541 16.7356 55.8709 16.1957C55.3877 15.64 55.0092 14.9731 54.7353 14.1951C54.4776 13.417 54.3488 12.5517 54.3488 11.599C54.3488 10.6463 54.4776 9.78095 54.7353 9.00292C55.0092 8.20901 55.3877 7.53419 55.8709 6.97845C56.3541 6.40684 56.9339 5.97019 57.6104 5.6685C58.303 5.36682 59.0681 5.21598 59.9056 5.21598C61.6613 5.21598 63.0626 5.82729 64.1095 7.0499C64.6088 7.62152 64.9712 8.25665 65.1967 8.95528C65.4222 9.65392 65.535 10.5034 65.535 11.5037ZM62.0076 11.4799C62.0076 9.86034 61.7901 8.77269 61.3552 8.21695C61.017 7.78824 60.5499 7.57388 59.9539 7.57388C59.5674 7.57388 59.2211 7.68503 58.9151 7.90733C58.6251 8.12962 58.4157 8.4313 58.2869 8.81238C58.1741 9.12994 58.0856 9.51102 58.0211 9.9556C57.9728 10.4002 57.9486 10.9242 57.9486 11.5275C57.9486 12.9407 58.0856 13.9648 58.3594 14.6C58.5043 14.9334 58.7298 15.1875 59.0359 15.3621C59.358 15.5209 59.6801 15.6003 60.0023 15.6003C60.711 15.6003 61.2183 15.2748 61.5244 14.6238C61.8465 13.9728 62.0076 12.9248 62.0076 11.4799Z" fill="#5E11C9"/>
<path d="M80.6826 16.3624C79.8129 16.8705 78.9109 17.2437 77.9767 17.4819C77.0586 17.72 76.1003 17.8391 75.1016 17.8391C73.8453 17.8391 72.742 17.6327 71.7917 17.2199C70.8575 16.807 70.0521 16.1719 69.3757 15.3145C68.7636 14.5365 68.3126 13.687 68.0227 12.766C67.7328 11.8451 67.5878 10.7654 67.5878 9.5269C67.5878 6.04958 68.7556 3.54083 71.091 2.00065C71.7031 1.58782 72.3313 1.29407 72.9755 1.11941C73.6359 0.928873 74.3688 0.833605 75.1741 0.833605C76.1888 0.833605 77.1472 0.992385 78.0492 1.30995C78.9512 1.62751 79.7726 2.10386 80.5135 2.73898L78.7257 4.81108C77.6626 3.95366 76.4949 3.52495 75.2224 3.52495C74.2077 3.52495 73.4024 3.80282 72.8064 4.35855C72.2427 4.89841 71.8642 5.61293 71.6709 6.50211C71.4776 7.39128 71.381 8.45512 71.381 9.69362C71.381 12.0118 71.7997 13.5838 72.6373 14.4094C73.2977 15.0287 74.1755 15.3383 75.2708 15.3383C76.0117 15.3383 76.6479 15.2033 77.1794 14.9334V11.1703H74.6184L74.1835 8.45512H80.6826V16.3624Z" fill="#5E11C9"/>
<path d="M92.339 18.2678C91.9685 18.109 91.6222 17.9026 91.3001 17.6486C90.9941 17.3945 90.7605 17.1087 90.5995 16.7912C90.4706 16.9182 90.3418 17.0373 90.2129 17.1484C90.1002 17.2596 89.9793 17.3548 89.8505 17.4342C89.2223 17.8788 88.3928 18.1011 87.362 18.1011C85.9768 18.1011 84.9218 17.7756 84.197 17.1246C83.4722 16.4577 83.1098 15.513 83.1098 14.2903C83.1098 12.8454 83.6011 11.7895 84.5836 11.1227C85.5822 10.4399 87.0721 10.0985 89.0532 10.0985H89.4156C89.5284 10.0985 89.6492 10.1064 89.778 10.1223V9.62217C89.778 8.9394 89.6814 8.471 89.4881 8.21695C89.3109 7.94702 88.9244 7.81205 88.3284 7.81205C87.813 7.81205 87.2573 7.93114 86.6613 8.16931C86.0654 8.40748 85.4292 8.74887 84.7527 9.19345L83.3755 6.907C83.6977 6.70058 84.0037 6.52592 84.2936 6.38302C84.5836 6.24012 84.946 6.08134 85.3809 5.90668C85.9929 5.65263 86.5647 5.47003 87.0962 5.35888C87.6439 5.24773 88.1995 5.19216 88.7633 5.19216C89.8102 5.19216 90.6719 5.37476 91.3484 5.73996C92.041 6.10515 92.5081 6.62913 92.7497 7.31189C92.798 7.43892 92.8302 7.56594 92.8464 7.69297C92.8786 7.80412 92.9027 7.93908 92.9188 8.09786C92.951 8.25664 92.9672 8.44718 92.9672 8.66948V9.50308L92.8947 13.5996C92.8947 13.9331 92.9027 14.2268 92.9188 14.4809C92.9349 14.7191 92.9833 14.9413 93.0638 15.1478C93.1443 15.3542 93.2571 15.5527 93.402 15.7432C93.5631 15.9179 93.7805 16.1084 94.0544 16.3148L92.339 18.2678ZM89.5847 12.3135C88.4572 12.3135 87.668 12.4405 87.217 12.6946C86.7821 12.9486 86.5647 13.4409 86.5647 14.1713C86.5647 14.6476 86.6936 15.0366 86.9513 15.3383C87.2251 15.6241 87.5714 15.767 87.9902 15.767C88.2962 15.767 88.5942 15.6956 88.8841 15.5527C89.174 15.4097 89.4398 15.2033 89.6814 14.9334L89.7297 12.3135H89.5847Z" fill="#5E11C9"/>
<path d="M102.763 17.3866C101.861 17.7518 100.983 17.9344 100.13 17.9344C99.3083 17.9344 98.5915 17.7756 97.9795 17.458C97.3835 17.1246 96.9889 16.6879 96.7956 16.1481C96.7473 16.0211 96.707 15.902 96.6748 15.7908C96.6426 15.6797 96.6184 15.5606 96.6023 15.4336C96.6023 15.3065 96.5943 15.1557 96.5782 14.981C96.5782 14.7905 96.5782 14.5523 96.5782 14.2665V7.64533H95.346V5.45415H96.5782C96.5782 4.85078 96.5782 4.33474 96.5782 3.90603C96.5943 3.47732 96.6345 3.03273 96.699 2.57226L99.9847 1.76248C99.9203 2.31821 99.872 2.92158 99.8398 3.57259C99.8076 4.20771 99.7915 4.8349 99.7915 5.45415H102.691L101.869 7.64533H99.7915V13.7664C99.7915 14.5444 99.8801 15.0684 100.057 15.3383C100.251 15.5924 100.629 15.7194 101.193 15.7194C101.338 15.7194 101.491 15.7035 101.652 15.6717C101.829 15.6241 102.063 15.5606 102.352 15.4812L102.763 17.3866Z" fill="#5E11C9"/>
<path d="M112.151 17.6486V9.45544C112.151 8.85207 112.055 8.42336 111.862 8.16931C111.684 7.91526 111.362 7.78824 110.895 7.78824C110.492 7.78824 110.058 7.89938 109.591 8.12168C109.123 8.32809 108.705 8.59008 108.334 8.90765V17.6486H105.048V3.54877C105.048 2.97716 105.024 2.4373 104.976 1.9292C104.944 1.40522 104.887 1.0162 104.807 0.762152L108.117 0C108.197 0.333442 108.254 0.770091 108.286 1.30995C108.318 1.83393 108.334 2.38966 108.334 2.97715V5.40651C108.334 5.59705 108.326 5.79553 108.31 6.00195C108.294 6.20836 108.286 6.35127 108.286 6.43066C108.705 6.0337 109.236 5.71614 109.88 5.47797C110.525 5.23979 111.161 5.12071 111.789 5.12071C112.578 5.12071 113.263 5.27949 113.843 5.59705C114.423 5.89873 114.809 6.31951 115.002 6.85937C115.067 7.03403 115.115 7.20075 115.147 7.35953C115.196 7.50243 115.228 7.66121 115.244 7.83587C115.276 7.99466 115.292 8.17725 115.292 8.38367C115.308 8.59008 115.316 8.83619 115.316 9.122V17.6486H112.151Z" fill="#5E11C9"/>
<path d="M125.106 8.24076C124.8 8.08198 124.486 8.00259 124.164 8.00259C123.439 8.00259 122.779 8.34397 122.183 9.02673V17.6486H118.945V9.50308C118.945 8.67741 118.897 7.9629 118.8 7.35953C118.72 6.75616 118.615 6.27981 118.486 5.93049L121.385 5.16834C121.675 5.67644 121.844 6.25599 121.893 6.907C122.247 6.44653 122.666 6.04164 123.149 5.69232C123.632 5.343 124.18 5.16834 124.792 5.16834C125.034 5.16834 125.227 5.18422 125.372 5.21598C125.533 5.24773 125.742 5.31918 126 5.43033L125.106 8.24076Z" fill="#5E11C9"/>
<path fill-rule="evenodd" clip-rule="evenodd" d="M28.7759 8.2408H28.7669C27.8267 8.00245 26.8058 7.6096 26.5371 9.57819C26.1521 12.3942 23.7253 15.356 23.0269 19.6551C22.8119 20.9836 22.5522 22.4667 23.3492 24.0778C23.6044 24.5986 24.5984 26.2538 24.3253 26.5892C24.0208 26.96 21.2851 25.243 19.1673 21.9238C18.245 20.4805 18.7375 20.2377 20.9896 17.863C24.5268 14.1377 26.0312 8.29816 24.4954 6.86807C21.6478 5.29232 18.6703 2.40125 13.2437 2.44097C21.8448 0.207554 30.3116 4.26831 34.1219 12.2044C32.8593 10.2712 32.416 9.22068 28.7848 8.23638L28.7759 8.2408Z" fill="#04ED98"/>
<path fill-rule="evenodd" clip-rule="evenodd" d="M6.01713 6.22807C14.4795 -0.613424 19.2345 8.39968 27.6117 10.9553C31.2519 12.0632 30.4504 13.6698 30.2176 15.0072C29.9131 16.764 28.1356 19.7301 23.4074 14.4776C15.2451 5.40268 12.487 6.22365 8.92745 8.91611C-0.72588 19.4432 5.94099 25.5873 7.62002 26.3685C10.0737 27.5117 12.3303 27.2116 13.7676 25.5343C14.2511 24.9694 15.6794 22.2769 16.2122 22.246C17.8062 22.1577 17.6092 24.0645 16.8883 25.446C16.8211 25.5741 16.7495 25.702 16.6734 25.8168C14.578 29.8687 20.6449 33.8192 24.4954 31.162C28.8162 28.1827 26.9043 24.1837 26.4387 23.451C25.6596 22.2195 26.7879 21.8664 27.4774 22.6874C29.2639 24.8237 32.1026 26.5363 34.2339 22.3872C34.5428 21.7825 34.4398 21.2308 34.7488 20.8954C34.9682 20.657 35.1473 20.7982 35.1875 20.8291C35.3622 20.966 35.3084 21.7207 35.2099 22.3828C35.0129 23.4907 34.6995 24.5942 34.2697 25.68C32.4653 30.2572 28.9236 33.6558 24.6746 35.4346H24.6522H24.679C20.5688 37.156 15.8048 37.3591 11.3139 35.6421C6.31709 33.7265 2.69935 29.8202 1.02926 25.2033C-0.349783 21.3853 -0.394574 17.0818 1.20835 13.0122C2.27397 10.3109 3.94855 8.01569 6.01264 6.22366L6.01713 6.22807ZM11.3363 19.6639C10.0244 19.1607 8.54239 19.8007 8.03197 21.0984C7.52154 22.3917 8.17077 23.8526 9.48713 24.3558C10.799 24.859 12.281 24.219 12.7914 22.9213C13.3019 21.628 12.6526 20.1671 11.3363 19.6639ZM31.8429 20.7629C31.0056 20.4407 30.0654 20.8512 29.743 21.6766C29.4162 22.502 29.8326 23.4289 30.6698 23.7467C31.5071 24.0689 32.4474 23.6584 32.7698 22.833C33.0966 22.0077 32.6802 21.0807 31.8429 20.7629Z" fill="#5E11C9"/>
</svg>
