<svg width="256" height="71" viewBox="0 0 256 71" fill="none" xmlns="http://www.w3.org/2000/svg">
<path d="M109.957 24.3957H101.821V52.3701H94.8618V24.3957H86.53V18.7912H111.084L109.957 24.3957Z" fill="white"/>
<path d="M132.942 39.9048C132.942 42.0307 132.681 43.8505 132.158 45.3644C131.668 46.8783 130.884 48.2472 129.806 49.4712C128.858 50.5341 127.731 51.3716 126.424 51.9836C125.117 52.5955 123.483 52.9015 121.523 52.9015C119.824 52.9015 118.272 52.5955 116.867 51.9836C115.495 51.3716 114.318 50.518 113.338 49.4229C112.358 48.2955 111.59 46.9427 111.035 45.3644C110.512 43.7861 110.25 42.0307 110.25 40.0981C110.25 38.1655 110.512 36.41 111.035 34.8317C111.59 33.2212 112.358 31.8523 113.338 30.725C114.318 29.5654 115.495 28.6796 116.867 28.0676C118.272 27.4557 119.824 27.1497 121.523 27.1497C125.084 27.1497 127.927 28.3897 130.051 30.8699C131.064 32.0295 131.799 33.3179 132.256 34.7351C132.714 36.1523 132.942 37.8756 132.942 39.9048ZM125.787 39.8565C125.787 36.5711 125.346 34.3647 124.463 33.2373C123.777 32.3677 122.83 31.9328 121.621 31.9328C120.837 31.9328 120.134 32.1583 119.513 32.6092C118.925 33.0602 118.501 33.6722 118.239 34.4452C118.01 35.0894 117.831 35.8625 117.7 36.7643C117.602 37.6662 117.553 38.7291 117.553 39.9531C117.553 42.8198 117.831 44.8974 118.386 46.1858C118.68 46.8622 119.138 47.3775 119.758 47.7318C120.412 48.0539 121.065 48.215 121.719 48.215C123.157 48.215 124.186 47.5547 124.807 46.2341C125.46 44.9135 125.787 42.7876 125.787 39.8565Z" fill="white"/>
<path d="M163.671 49.7611C161.906 50.7918 160.076 51.5487 158.181 52.0319C156.319 52.515 154.375 52.7566 152.349 52.7566C149.8 52.7566 147.562 52.3379 145.635 51.5004C143.739 50.6629 142.106 49.3745 140.734 47.6352C139.492 46.0569 138.577 44.3337 137.989 42.4655C137.401 40.5973 137.107 38.407 137.107 35.8947C137.107 28.8407 139.476 23.7515 144.213 20.6271C145.455 19.7897 146.729 19.1938 148.036 18.8395C149.376 18.453 150.862 18.2597 152.496 18.2597C154.555 18.2597 156.499 18.5818 158.328 19.226C160.158 19.8702 161.824 20.8365 163.327 22.1249L159.701 26.3283C157.544 24.589 155.175 23.7193 152.594 23.7193C150.536 23.7193 148.902 24.283 147.693 25.4103C146.549 26.5055 145.782 27.9549 145.39 29.7587C144.997 31.5624 144.801 33.7205 144.801 36.2329C144.801 40.9355 145.651 44.1243 147.35 45.7992C148.69 47.0554 150.47 47.6835 152.692 47.6835C154.195 47.6835 155.486 47.4097 156.564 46.8622V39.2284H151.369L150.487 33.7205H163.671V49.7611Z" fill="white"/>
<path d="M187.316 53.6263C186.565 53.3042 185.862 52.8854 185.209 52.3701C184.588 51.8547 184.114 51.2749 183.787 50.6307C183.526 50.8884 183.265 51.13 183.003 51.3555C182.775 51.5809 182.53 51.7742 182.268 51.9352C180.994 52.8371 179.311 53.2881 177.22 53.2881C174.41 53.2881 172.27 52.6278 170.8 51.3071C169.329 49.9543 168.594 48.0378 168.594 45.5577C168.594 42.6265 169.591 40.4846 171.584 39.1318C173.61 37.7467 176.632 37.0542 180.651 37.0542H181.386C181.615 37.0542 181.86 37.0703 182.121 37.1025V36.0879C182.121 34.7029 181.925 33.7527 181.533 33.2373C181.174 32.6898 180.389 32.416 179.18 32.416C178.135 32.416 177.008 32.6576 175.799 33.1407C174.59 33.6239 173.299 34.3164 171.927 35.2183L169.133 30.58C169.787 30.1613 170.408 29.807 170.996 29.5171C171.584 29.2272 172.319 28.9051 173.201 28.5508C174.443 28.0354 175.603 27.665 176.681 27.4395C177.792 27.2141 178.919 27.1013 180.063 27.1013C182.186 27.1013 183.935 27.4718 185.307 28.2126C186.712 28.9534 187.659 30.0163 188.149 31.4014C188.247 31.6591 188.313 31.9167 188.345 32.1744C188.411 32.3999 188.46 32.6737 188.493 32.9958C188.558 33.3179 188.591 33.7044 188.591 34.1553V35.8463L188.443 44.1565C188.443 44.8329 188.46 45.4288 188.493 45.9442C188.525 46.4273 188.623 46.8783 188.787 47.297C188.95 47.7157 189.179 48.1184 189.473 48.5049C189.799 48.8592 190.241 49.2457 190.796 49.6644L187.316 53.6263ZM181.729 41.5475C179.442 41.5475 177.841 41.8052 176.926 42.3206C176.044 42.8359 175.603 43.8344 175.603 45.3161C175.603 46.2824 175.864 47.0715 176.387 47.6835C176.942 48.2633 177.645 48.5532 178.494 48.5532C179.115 48.5532 179.72 48.4082 180.308 48.1183C180.896 47.8285 181.435 47.4097 181.925 46.8622L182.023 41.5475H181.729Z" fill="white"/>
<path d="M208.462 51.8386C206.633 52.5794 204.852 52.9498 203.12 52.9498C201.454 52.9498 200 52.6278 198.758 51.9836C197.549 51.3071 196.749 50.4214 196.357 49.3262C196.259 49.0685 196.177 48.827 196.112 48.6015C196.046 48.376 195.997 48.1345 195.965 47.8768C195.965 47.6191 195.948 47.3131 195.916 46.9588C195.916 46.5723 195.916 46.0891 195.916 45.5093V32.0778H193.416V27.6328H195.916C195.916 26.4088 195.916 25.362 195.916 24.4923C195.948 23.6227 196.03 22.7208 196.161 21.7867L202.826 20.144C202.696 21.2713 202.597 22.4953 202.532 23.8159C202.467 25.1043 202.434 26.3766 202.434 27.6328H208.315L206.649 32.0778H202.434V44.4947C202.434 46.073 202.614 47.1359 202.973 47.6835C203.365 48.1989 204.133 48.4566 205.277 48.4566C205.571 48.4566 205.881 48.4243 206.208 48.3599C206.567 48.2633 207.041 48.1345 207.629 47.9734L208.462 51.8386Z" fill="white"/>
<path d="M227.507 52.3701V35.7497C227.507 34.5257 227.311 33.6561 226.919 33.1407C226.56 32.6253 225.906 32.3677 224.959 32.3677C224.142 32.3677 223.26 32.5931 222.312 33.0441C221.365 33.4628 220.515 33.9943 219.764 34.6385V52.3701H213.098V23.7676C213.098 22.608 213.049 21.5129 212.951 20.4822C212.886 19.4193 212.771 18.6301 212.608 18.1148L219.323 16.5687C219.486 17.2451 219.6 18.1309 219.666 19.226C219.731 20.2889 219.764 21.4163 219.764 22.608V27.5362C219.764 27.9227 219.747 28.3253 219.715 28.744C219.682 29.1628 219.666 29.4527 219.666 29.6137C220.515 28.8085 221.593 28.1643 222.9 27.6811C224.207 27.198 225.498 26.9564 226.772 26.9564C228.373 26.9564 229.762 27.2785 230.938 27.9227C232.114 28.5347 232.899 29.3883 233.291 30.4834C233.421 30.8377 233.519 31.1759 233.585 31.498C233.683 31.7879 233.748 32.11 233.781 32.4643C233.846 32.7864 233.879 33.1568 233.879 33.5755C233.911 33.9943 233.928 34.4935 233.928 35.0733V52.3701H227.507Z" fill="white"/>
<path d="M253.787 33.2857C253.166 32.9636 252.529 32.8025 251.875 32.8025C250.405 32.8025 249.065 33.495 247.856 34.8801V52.3701H241.289V35.8463C241.289 34.1714 241.191 32.722 240.995 31.498C240.831 30.274 240.619 29.3077 240.358 28.5991L246.239 27.053C246.827 28.0837 247.17 29.2594 247.268 30.58C247.987 29.6459 248.837 28.8246 249.817 28.116C250.797 27.4073 251.908 27.053 253.149 27.053C253.64 27.053 254.032 27.0852 254.326 27.1497C254.652 27.2141 255.077 27.359 255.6 27.5845L253.787 33.2857Z" fill="white"/>
<path fill-rule="evenodd" clip-rule="evenodd" d="M58.3739 13H58.3558C56.4484 12.5165 54.3775 11.7196 53.8325 15.713C53.0514 21.4256 48.1285 27.4336 46.7116 36.1547C46.2757 38.8498 45.7488 41.8583 47.3656 45.1264C47.8833 46.183 49.8997 49.5406 49.3456 50.2211C48.728 50.9732 43.1784 47.4902 38.8823 40.7569C37.0112 37.829 38.0103 37.3366 42.5789 32.5194C49.7543 24.9623 52.8061 13.1164 49.6908 10.2153C43.9141 7.0188 37.8741 1.15406 26.8657 1.23465C44.3137 -3.296 61.4893 4.94153 69.2187 21.0406C66.6574 17.1188 65.7582 14.9878 58.3921 12.9911L58.3739 13Z" fill="white"/>
<path fill-rule="evenodd" clip-rule="evenodd" d="M12.2062 8.91705C29.3726 -4.96141 39.0185 13.3223 56.0124 18.5066C63.3967 20.754 61.7709 24.0132 61.2986 26.7262C60.681 30.2898 57.0751 36.3069 47.4837 25.6518C30.9258 7.24268 25.3308 8.90807 18.11 14.3699C-1.4725 35.7248 12.0517 48.1886 15.4578 49.7734C20.4351 52.0925 25.0129 51.4836 27.9285 48.0812C28.9094 46.9351 31.8068 41.4732 32.8876 41.4105C36.1211 41.2315 35.7215 45.0995 34.2591 47.9021C34.1229 48.1618 33.9776 48.4214 33.8232 48.6542C29.5724 56.8738 41.8796 64.8876 49.6908 59.4973C58.4557 53.4535 54.5773 45.3413 53.6327 43.8549C52.0523 41.3568 54.3412 40.6405 55.7399 42.3059C59.364 46.6396 65.1224 50.1137 69.4458 41.6971C70.0725 40.4704 69.8636 39.3512 70.4904 38.6707C70.9354 38.1872 71.2987 38.4737 71.3805 38.5363C71.7347 38.8139 71.6257 40.345 71.4259 41.6881C71.0262 43.9355 70.3904 46.174 69.5185 48.3766C65.8581 57.6618 58.6737 64.5563 50.0541 68.1647H50.0087H50.0632C41.7252 71.6567 32.0611 72.0685 22.9511 68.5855C12.8147 64.6995 5.47581 56.7754 2.08794 47.4096C-0.70956 39.6646 -0.800421 30.9346 2.45121 22.6791C4.61292 17.1994 8.00991 12.5434 12.1971 8.90809L12.2062 8.91705ZM22.9965 36.1726C20.3352 35.1518 17.3289 36.4501 16.2934 39.0826C15.258 41.706 16.575 44.6697 19.2453 45.6905C21.9066 46.7112 24.9129 45.4129 25.9484 42.7805C26.9838 40.157 25.6668 37.1933 22.9965 36.1726ZM64.5956 38.4021C62.8972 37.7484 60.9898 38.5812 60.3358 40.2555C59.6728 41.9299 60.5175 43.8102 62.216 44.4549C63.9144 45.1085 65.8218 44.2758 66.4758 42.6014C67.1388 40.9271 66.2941 39.0467 64.5956 38.4021Z" fill="white"/>
</svg>
