<svg width="36" height="36" viewBox="0 0 36 36" fill="none" xmlns="http://www.w3.org/2000/svg">
<path fill-rule="evenodd" clip-rule="evenodd" d="M11.0568 9.64316C10.6663 9.25261 10.0332 9.25257 9.64261 9.64307C9.25206 10.0336 9.25202 10.6667 9.64252 11.0573L16.5857 18.0014L9.64253 24.9454C9.25203 25.336 9.25207 25.9691 9.64262 26.3596C10.0332 26.7501 10.6663 26.7501 11.0568 26.3596L17.9998 19.4157L24.9429 26.3596C25.3334 26.7501 25.9665 26.7501 26.3571 26.3596C26.7476 25.9691 26.7477 25.336 26.3572 24.9454L19.414 18.0014L26.3572 11.0573C26.7477 10.6667 26.7476 10.0336 26.3571 9.64307C25.9665 9.25257 25.3334 9.25261 24.9429 9.64316L17.9998 16.5871L11.0568 9.64316Z" fill="#4E4E4E"/>
</svg>
