<svg width="36" height="36" viewBox="0 0 36 36" fill="none" xmlns="http://www.w3.org/2000/svg">
<path d="M28.94 7.05872C28.2602 6.37992 27.3387 5.99866 26.378 5.99866C25.4173 5.99866 24.4958 6.37992 23.816 7.05872L6 24.8747V29.9987H11.124L28.94 12.1827C29.6186 11.5027 29.9997 10.5813 29.9997 9.62072C29.9997 8.66009 29.6186 7.7387 28.94 7.05872V7.05872ZM10.3 27.9987H8V25.6987L21.31 12.3987L23.61 14.6987L10.3 27.9987ZM27.526 10.7687L25.019 13.2757L22.724 10.9757L25.23 8.47272C25.535 8.16772 25.9487 7.99637 26.38 7.99637C26.8113 7.99637 27.225 8.16772 27.53 8.47272C27.835 8.77772 28.0063 9.19139 28.0063 9.62272C28.0063 10.0541 27.835 10.4677 27.53 10.7727L27.526 10.7687Z" fill="#4E4E4E"/>
</svg>
