<svg width="24" height="24" viewBox="0 0 24 24" fill="none" xmlns="http://www.w3.org/2000/svg">
<path d="M16.5874 3C15.649 3.0146 14.7311 3.27654 13.9263 3.75939C13.1216 4.24224 12.4585 4.92889 12.004 5.75C11.5496 4.92889 10.8865 4.24224 10.0817 3.75939C9.27698 3.27654 8.35908 3.0146 7.4207 3C5.92482 3.06499 4.51546 3.71938 3.50052 4.82019C2.48558 5.92101 1.94758 7.37877 2.00403 8.875C2.00403 14.5208 11.134 21.0417 11.5224 21.3183L12.004 21.6592L12.4857 21.3183C12.874 21.0433 22.004 14.5208 22.004 8.875C22.0605 7.37877 21.5225 5.92101 20.5075 4.82019C19.4926 3.71938 18.0832 3.06499 16.5874 3Z" fill="#D9D9D9"/>
</svg>
