<svg width="18" height="18" viewBox="0 0 18 18" fill="none" xmlns="http://www.w3.org/2000/svg">
<g clip-path="url(#clip0_3383_86578)">
<path d="M8.9684 18.0058L8.44559 17.5577C7.72486 16.9542 1.43164 11.5191 1.43164 7.54354C1.43164 3.38111 4.80597 0.0067749 8.9684 0.0067749C13.1308 0.0067749 16.5052 3.38111 16.5052 7.54354C16.5052 11.5192 10.2119 16.9542 9.4942 17.5607L8.9684 18.0058ZM8.9684 1.63644C5.70755 1.64013 3.06504 4.28265 3.06134 7.5435C3.06134 10.0411 6.93317 14.0309 8.9684 15.857C11.0037 14.0301 14.8755 10.038 14.8755 7.5435C14.8718 4.28265 12.2293 1.64017 8.9684 1.63644Z" fill="#4E4E4E"/>
<path d="M8.96846 10.5308C7.31851 10.5308 5.98096 9.19325 5.98096 7.54329C5.98096 5.89334 7.31851 4.55579 8.96846 4.55579C10.6184 4.55579 11.956 5.89334 11.956 7.54329C11.956 9.19325 10.6185 10.5308 8.96846 10.5308ZM8.96846 6.04951C8.14349 6.04951 7.47471 6.71828 7.47471 7.54326C7.47471 8.36824 8.14349 9.03701 8.96846 9.03701C9.79344 9.03701 10.4622 8.36824 10.4622 7.54326C10.4622 6.71828 9.79348 6.04951 8.96846 6.04951Z" fill="#4E4E4E"/>
</g>
<defs>
<clipPath id="clip0_3383_86578">
<rect width="18" height="18" fill="white"/>
</clipPath>
</defs>
</svg>
