<svg width="36" height="36" viewBox="0 0 36 36" fill="none" xmlns="http://www.w3.org/2000/svg">
<path d="M9.91235 24H25.0946C25.5619 24 26.0222 23.8904 26.4368 23.6805C26.8514 23.4705 27.2079 23.1664 27.4763 22.7939C27.7446 22.4214 27.9169 21.9914 27.9785 21.5403C28.0401 21.0892 27.9893 20.6303 27.8302 20.2024L25.0645 12.7554C24.5922 11.1005 23.5763 9.64179 22.1721 8.60241C20.7679 7.56303 19.0529 7.0002 17.2892 7C15.4532 6.99997 13.6721 7.60972 12.2399 8.72858C10.8078 9.84743 9.81023 11.4085 9.41196 13.154L7.13308 20.3318C6.9989 20.7556 6.96874 21.2041 7.04501 21.6413C7.12129 22.0785 7.30187 22.4921 7.57222 22.849C7.84258 23.2058 8.19517 23.4958 8.60161 23.6958C9.00806 23.8957 9.45701 23.9999 9.91235 24Z" fill="#5E11C9"/>
<path d="M13.0039 26C13.2147 27.1289 13.7778 28.1438 14.598 28.8728C15.4181 29.6018 16.4447 30 17.5039 30C18.5631 30 19.5897 29.6018 20.4099 28.8728C21.23 28.1438 21.7931 27.1289 22.0039 26H13.0039Z" fill="#5E11C9"/>
<circle cx="23.5039" cy="9.5" r="4.5" fill="#DC143C"/>
</svg>
