<svg width="18" height="18" viewBox="0 0 18 18" fill="none" xmlns="http://www.w3.org/2000/svg">
<g clip-path="url(#clip0_3383_86577)">
<path d="M10.6501 12.1957C8.46644 11.2711 6.72994 9.53059 5.8104 7.34474L8.3604 4.79024L3.6654 0.0914917L1.28715 2.46899C0.874647 2.88385 0.548507 3.37639 0.327596 3.91811C0.106685 4.45983 -0.00461116 5.03998 0.000146326 5.62499C0.000146326 11.061 6.93915 18 12.3751 18C12.9601 18.0051 13.5402 17.894 14.0819 17.673C14.6235 17.4521 15.1159 17.1258 15.5304 16.713L17.9086 14.3347L13.2099 9.63599L10.6501 12.1957ZM14.4691 15.6525C14.1937 15.9255 13.8668 16.1411 13.5073 16.2866C13.1478 16.432 12.7629 16.5046 12.3751 16.5C7.7004 16.5 1.50015 10.2997 1.50015 5.62499C1.49573 5.23712 1.56837 4.85222 1.71385 4.49264C1.85933 4.13305 2.07476 3.80593 2.34765 3.53024L3.6654 2.21249L6.24315 4.79024L4.0419 6.99149L4.22565 7.45199C4.76658 8.89898 5.61222 10.2128 6.70526 11.3044C7.7983 12.396 9.11321 13.2399 10.5609 13.779L11.0154 13.9522L13.2099 11.757L15.7876 14.3347L14.4691 15.6525Z" fill="#4E4E4E"/>
</g>
<defs>
<clipPath id="clip0_3383_86577">
<rect width="18" height="18" fill="white"/>
</clipPath>
</defs>
</svg>
