<svg width="24" height="24" viewBox="0 0 24 24" fill="none" xmlns="http://www.w3.org/2000/svg">
<path fill-rule="evenodd" clip-rule="evenodd" d="M15.1367 3H5C3.89543 3 3 3.89543 3 5V19C3 20.1046 3.89543 21 5 21H19C20.1046 21 21 20.1046 21 19V7.85803L15.1367 3ZM12 18C13.6569 18 15 16.6569 15 15C15 13.3431 13.6569 12 12 12C10.3431 12 9 13.3431 9 15C9 16.6569 10.3431 18 12 18ZM5 6C5 5.44772 5.44772 5 6 5H14C14.5523 5 15 5.44772 15 6V8C15 8.55228 14.5523 9 14 9H6C5.44772 9 5 8.55228 5 8V6Z" fill="#5E11C9"/>
</svg>
