<svg width="36" height="36" viewBox="0 0 36 36" fill="none" xmlns="http://www.w3.org/2000/svg">
<path d="M24.5385 20.7692C23.7308 20.7692 22.9856 20.9663 22.3029 21.3606C21.6202 21.7548 21.0673 22.2692 20.6442 22.9038L15.7115 20.0769C15.8654 19.7692 15.9904 19.4423 16.0865 19.0962C16.1827 18.75 16.2308 18.3846 16.2308 18C16.2308 17.7692 16.2115 17.5433 16.1731 17.3221C16.1346 17.101 16.0769 16.8846 16 16.6731L21.1635 13.7308C21.5865 14.1923 22.0865 14.5577 22.6635 14.8269C23.2404 15.0962 23.8654 15.2308 24.5385 15.2308C25.8077 15.2308 26.8942 14.7789 27.7981 13.875C28.7019 12.9711 29.1538 11.8846 29.1538 10.6154C29.1538 9.34615 28.7019 8.25962 27.7981 7.35577C26.8942 6.45192 25.8077 6 24.5385 6C23.2692 6 22.1827 6.45192 21.2788 7.35577C20.375 8.25962 19.9231 9.34615 19.9231 10.6154C19.9231 10.8462 19.9423 11.0721 19.9808 11.2933C20.0192 11.5144 20.0769 11.7308 20.1538 11.9423L14.9904 14.8846C14.5673 14.4231 14.0673 14.0577 13.4904 13.7885C12.9135 13.5192 12.2885 13.3846 11.6154 13.3846C10.3461 13.3846 9.25962 13.8365 8.35577 14.7404C7.45192 15.6442 7 16.7308 7 18C7 19.2692 7.45192 20.3558 8.35577 21.2596C9.25962 22.1635 10.3461 22.6154 11.6154 22.6154C12.1346 22.6154 12.6298 22.5288 13.101 22.3558C13.5721 22.1827 14.0096 21.9519 14.4135 21.6635L14.3846 21.6923L19.9808 24.8942C19.9615 24.9712 19.9471 25.0529 19.9375 25.1394C19.9279 25.226 19.9231 25.3077 19.9231 25.3846C19.9231 26.6539 20.375 27.7404 21.2788 28.6442C22.1827 29.5481 23.2692 30 24.5385 30C25.8077 30 26.8942 29.5481 27.7981 28.6442C28.7019 27.7404 29.1538 26.6539 29.1538 25.3846C29.1538 24.1154 28.7019 23.0289 27.7981 22.125C26.8942 21.2211 25.8077 20.7692 24.5385 20.7692ZM24.5385 7.84615C25.3077 7.84615 25.9615 8.11538 26.5 8.65385C27.0385 9.19231 27.3077 9.84615 27.3077 10.6154C27.3077 11.3846 27.0385 12.0385 26.5 12.5769C25.9615 13.1154 25.3077 13.3846 24.5385 13.3846C23.7692 13.3846 23.1154 13.1154 22.5769 12.5769C22.0385 12.0385 21.7692 11.3846 21.7692 10.6154C21.7692 9.84615 22.0385 9.19231 22.5769 8.65385C23.1154 8.11538 23.7692 7.84615 24.5385 7.84615ZM11.6154 20.7692C10.8461 20.7692 10.1923 20.5 9.65385 19.9615C9.11538 19.4231 8.84615 18.7692 8.84615 18C8.84615 17.2308 9.11538 16.5769 9.65385 16.0385C10.1923 15.5 10.8461 15.2308 11.6154 15.2308C12.3846 15.2308 13.0385 15.5 13.5769 16.0385C14.1154 16.5769 14.3846 17.2308 14.3846 18C14.3846 18.7692 14.1154 19.4231 13.5769 19.9615C13.0385 20.5 12.3846 20.7692 11.6154 20.7692ZM24.5385 28.1538C23.7692 28.1538 23.1154 27.8846 22.5769 27.3462C22.0385 26.8077 21.7692 26.1538 21.7692 25.3846C21.7692 24.6154 22.0385 23.9615 22.5769 23.4231C23.1154 22.8846 23.7692 22.6154 24.5385 22.6154C25.3077 22.6154 25.9615 22.8846 26.5 23.4231C27.0385 23.9615 27.3077 24.6154 27.3077 25.3846C27.3077 26.1538 27.0385 26.8077 26.5 27.3462C25.9615 27.8846 25.3077 28.1538 24.5385 28.1538Z" fill="#4E4E4E"/>
</svg>
