<svg width="24" height="24" viewBox="0 0 24 24" fill="none" xmlns="http://www.w3.org/2000/svg">
<path d="M11.1072 1.81699C11.474 1.07374 12.5338 1.07374 12.9006 1.81699L15.2979 6.67446C15.4436 6.9696 15.7252 7.17417 16.0509 7.2215L21.4114 8.00043C22.2316 8.11961 22.5592 9.12759 21.9656 9.70612L18.0867 13.4871C17.851 13.7169 17.7435 14.0479 17.7991 14.3723L18.7148 19.7111C18.8549 20.528 17.9975 21.151 17.2639 20.7653L12.4692 18.2446C12.1779 18.0915 11.8299 18.0915 11.5386 18.2446L6.74396 20.7653C6.01033 21.151 5.1529 20.528 5.29301 19.7111L6.2087 14.3723C6.26433 14.0479 6.15678 13.7169 5.9211 13.4871L2.04218 9.70612C1.44866 9.12759 1.77617 8.11961 2.59639 8.00043L7.95693 7.2215C8.28264 7.17417 8.5642 6.9696 8.70987 6.67446L11.1072 1.81699Z" fill="#FFB700"/>
</svg>
