<svg width="18" height="18" viewBox="0 0 18 18" fill="none" xmlns="http://www.w3.org/2000/svg">
<g clip-path="url(#clip0_3383_67372)">
<path d="M9.75 1.5V6.75H1.5V2.25C1.5 2.05109 1.57902 1.86032 1.71967 1.71967C1.86032 1.57902 2.05109 1.5 2.25 1.5H9.75ZM11.25 0H2.25C1.65326 0 1.08097 0.237053 0.65901 0.65901C0.237053 1.08097 0 1.65326 0 2.25L0 8.25H11.25V0Z" fill="#4E4E4E"/>
<path d="M15.75 1.5C15.9489 1.5 16.1397 1.57902 16.2803 1.71967C16.421 1.86032 16.5 2.05109 16.5 2.25V6.75H14.25V1.5H15.75ZM15.75 0H12.75V8.25H18V2.25C18 1.65326 17.7629 1.08097 17.341 0.65901C16.919 0.237053 16.3467 0 15.75 0V0Z" fill="#4E4E4E"/>
<path d="M3.75 11.2502V16.5002H2.25C2.05109 16.5002 1.86032 16.4212 1.71967 16.2806C1.57902 16.1399 1.5 15.9491 1.5 15.7502V11.2502H3.75ZM5.25 9.75024H0V15.7502C0 16.347 0.237053 16.9193 0.65901 17.3412C1.08097 17.7632 1.65326 18.0002 2.25 18.0002H5.25V9.75024Z" fill="#4E4E4E"/>
<path d="M16.5 11.2502V15.7502C16.5 15.9491 16.421 16.1399 16.2803 16.2806C16.1397 16.4212 15.9489 16.5002 15.75 16.5002H8.25V11.2502H16.5ZM18 9.75024H6.75V18.0002H15.75C16.3467 18.0002 16.919 17.7632 17.341 17.3412C17.7629 16.9193 18 16.347 18 15.7502V9.75024Z" fill="#4E4E4E"/>
</g>
<defs>
<clipPath id="clip0_3383_67372">
<rect width="18" height="18" fill="white"/>
</clipPath>
</defs>
</svg>
