<svg width="18" height="18" viewBox="0 0 18 18" fill="none" xmlns="http://www.w3.org/2000/svg">
<g clip-path="url(#clip0_3383_67375)">
<path d="M14.25 6V5.301C14.249 4.29322 13.8482 3.32699 13.1356 2.61438C12.423 1.90177 11.4568 1.50099 10.449 1.5H9.75V0H8.25V1.5H7.551C6.64899 1.50096 5.77672 1.82268 5.0901 2.40763C4.40347 2.99259 3.94726 3.80267 3.80299 4.69307C3.65872 5.58347 3.83581 6.49615 4.30259 7.26799C4.76938 8.03983 5.49544 8.62052 6.351 8.90625L8.25 9.54V15H7.551C6.94092 14.9994 6.356 14.7568 5.92461 14.3254C5.49321 13.894 5.2506 13.3091 5.25 12.699V12H3.75V12.699C3.75099 13.7068 4.15177 14.673 4.86438 15.3856C5.57699 16.0982 6.54322 16.499 7.551 16.5H8.25V18H9.75V16.5H10.449C11.351 16.499 12.2233 16.1773 12.9099 15.5924C13.5965 15.0074 14.0527 14.1973 14.197 13.3069C14.3413 12.4165 14.1642 11.5038 13.6974 10.732C13.2306 9.96017 12.5046 9.37948 11.649 9.09375L9.75 8.46V3H10.449C11.0591 3.0006 11.644 3.24321 12.0754 3.67461C12.5068 4.106 12.7494 4.69092 12.75 5.301V6H14.25ZM11.175 10.5157C11.6934 10.6883 12.1336 11.0397 12.4166 11.5071C12.6996 11.9745 12.8071 12.5274 12.7198 13.0667C12.6324 13.6061 12.356 14.0968 11.94 14.451C11.5239 14.8053 10.9954 14.9998 10.449 15H9.75V10.0403L11.175 10.5157ZM8.25 7.95975L6.825 7.48425C6.30655 7.3117 5.86643 6.96028 5.5834 6.49289C5.30037 6.0255 5.1929 5.47264 5.28023 4.93326C5.36755 4.39387 5.64397 3.90317 6.06002 3.54896C6.47607 3.19475 7.00459 3.00015 7.551 3H8.25V7.95975Z" fill="#4E4E4E"/>
</g>
<defs>
<clipPath id="clip0_3383_67375">
<rect width="18" height="18" fill="white"/>
</clipPath>
</defs>
</svg>
