<svg width="18" height="18" viewBox="0 0 18 18" fill="none" xmlns="http://www.w3.org/2000/svg">
<g clip-path="url(#clip0_3383_67404)">
<path d="M18.0002 8.98811C18.0002 8.19802 17.6886 7.43981 17.1329 6.87811C16.5773 6.31642 15.8225 5.99661 15.0324 5.98811C14.3749 4.67848 13.3111 3.61683 12.0002 2.96186C11.9617 2.19314 11.6292 1.4686 11.0715 0.938126C10.5139 0.40765 9.77361 0.111816 9.00392 0.111816C8.23423 0.111816 7.49399 0.40765 6.9363 0.938126C6.37861 1.4686 6.04615 2.19314 6.00767 2.96186C4.69348 3.61629 3.6269 4.67919 2.96792 5.99111C2.18149 6.00188 1.43082 6.32144 0.877931 6.88083C0.325043 7.44022 0.0142765 8.19457 0.0127013 8.98108C0.0111261 9.76759 0.318869 10.5232 0.869511 11.0848C1.42015 11.6464 2.16954 11.9689 2.95592 11.9829C3.61216 13.306 4.68236 14.3789 6.00392 15.0384C6.0424 15.8071 6.37486 16.5316 6.93255 17.0621C7.49024 17.5926 8.23048 17.8884 9.00017 17.8884C9.76986 17.8884 10.5101 17.5926 11.0678 17.0621C11.6255 16.5316 11.958 15.8071 11.9964 15.0384C13.318 14.3789 14.3882 13.306 15.0444 11.9829C15.8315 11.9713 16.5824 11.6508 17.1354 11.0906C17.6883 10.5303 17.9989 9.77525 18.0002 8.98811ZM9.00017 1.50011C9.29685 1.50011 9.58686 1.58809 9.83353 1.75291C10.0802 1.91773 10.2725 2.152 10.386 2.42609C10.4995 2.70018 10.5292 3.00178 10.4714 3.29275C10.4135 3.58372 10.2706 3.85099 10.0608 4.06077C9.85106 4.27055 9.58378 4.41341 9.29281 4.47129C9.00184 4.52917 8.70024 4.49946 8.42615 4.38593C8.15206 4.2724 7.91779 4.08014 7.75297 3.83347C7.58815 3.58679 7.50017 3.29679 7.50017 3.00011C7.50017 2.60229 7.65821 2.22076 7.93951 1.93945C8.22082 1.65815 8.60235 1.50011 9.00017 1.50011ZM1.50017 8.98811C1.50017 8.69144 1.58815 8.40143 1.75297 8.15476C1.91779 7.90808 2.15206 7.71583 2.42615 7.60229C2.70024 7.48876 3.00184 7.45906 3.29281 7.51694C3.58378 7.57481 3.85106 7.71767 4.06083 7.92745C4.27061 8.13723 4.41347 8.40451 4.47135 8.69548C4.52923 8.98645 4.49952 9.28805 4.38599 9.56214C4.27246 9.83623 4.0802 10.0705 3.83353 10.2353C3.58686 10.4001 3.29685 10.4881 3.00017 10.4881C2.60235 10.4881 2.22082 10.3301 1.93951 10.0488C1.65821 9.76747 1.50017 9.38594 1.50017 8.98811ZM9.00017 16.5001C8.7035 16.5001 8.41349 16.4121 8.16682 16.2473C7.92015 16.0825 7.72789 15.8482 7.61435 15.5741C7.50082 15.3 7.47112 14.9984 7.529 14.7075C7.58687 14.4165 7.72974 14.1492 7.93951 13.9395C8.14929 13.7297 8.41657 13.5868 8.70754 13.5289C8.99851 13.4711 9.30011 13.5008 9.5742 13.6143C9.84829 13.7278 10.0826 13.9201 10.2474 14.1668C10.4122 14.4134 10.5002 14.7034 10.5002 15.0001C10.5002 15.3979 10.3421 15.7795 10.0608 16.0608C9.77953 16.3421 9.398 16.5001 9.00017 16.5001ZM11.6087 13.5459C11.3525 13.0779 10.9752 12.6875 10.5162 12.4155C10.0573 12.1435 9.53365 12 9.00017 12C8.4667 12 7.94304 12.1435 7.4841 12.4155C7.02516 12.6875 6.64783 13.0779 6.39167 13.5459C5.58365 13.0784 4.91352 12.4057 4.44917 11.5959C4.91766 11.3406 5.30887 10.964 5.58181 10.5056C5.85475 10.0472 5.99937 9.52383 6.00052 8.99032C6.00167 8.45681 5.85931 7.93281 5.58835 7.47322C5.31739 7.01364 4.92781 6.63539 4.46042 6.37811C4.92451 5.57776 5.59042 4.91314 6.39167 4.45061C6.64783 4.91857 7.02516 5.30899 7.4841 5.58097C7.94304 5.85295 8.4667 5.99646 9.00017 5.99646C9.53365 5.99646 10.0573 5.85295 10.5162 5.58097C10.9752 5.30899 11.3525 4.91857 11.6087 4.45061C12.4099 4.91314 13.0758 5.57776 13.5399 6.37811C13.0725 6.63539 12.683 7.01364 12.412 7.47322C12.141 7.93281 11.9987 8.45681 11.9998 8.99032C12.001 9.52383 12.1456 10.0472 12.4185 10.5056C12.6915 10.964 13.0827 11.3406 13.5512 11.5959C13.0868 12.4057 12.4167 13.0784 11.6087 13.5459ZM15.0002 10.4874C14.7035 10.4874 14.4135 10.3994 14.1668 10.2346C13.9201 10.0697 13.7279 9.83548 13.6144 9.56139C13.5008 9.2873 13.4711 8.9857 13.529 8.69473C13.5869 8.40376 13.7297 8.13648 13.9395 7.9267C14.1493 7.71692 14.4166 7.57406 14.7075 7.51619C14.9985 7.45831 15.3001 7.48801 15.5742 7.60154C15.8483 7.71508 16.0826 7.90733 16.2474 8.15401C16.4122 8.40068 16.5002 8.69069 16.5002 8.98736C16.5002 9.38519 16.3421 9.76672 16.0608 10.048C15.7795 10.3293 15.398 10.4874 15.0002 10.4874Z" fill="#5E11C9"/>
</g>
<defs>
<clipPath id="clip0_3383_67404">
<rect width="18" height="18" fill="white"/>
</clipPath>
</defs>
</svg>
