<svg width="18" height="18" viewBox="0 0 18 18" fill="none" xmlns="http://www.w3.org/2000/svg">
<g clip-path="url(#clip0_3383_67401)">
<path d="M16.5 7.5H18V18H0V4.5C0 3.90326 0.237053 3.33097 0.65901 2.90901C1.08097 2.48705 1.65326 2.25 2.25 2.25H10.5V3.75H2.25C2.05109 3.75 1.86032 3.82902 1.71967 3.96967C1.57902 4.11032 1.5 4.30109 1.5 4.5V4.6815L7.4085 10.5915C7.83734 11.0007 8.40729 11.2289 9 11.2289C9.59271 11.2289 10.1627 11.0007 10.5915 10.5915L13.6815 7.5H15.8032L11.652 11.652C11.3038 12.0003 10.8903 12.2766 10.4353 12.4652C9.98026 12.6537 9.49254 12.7507 9 12.7507C8.50746 12.7507 8.01974 12.6537 7.56471 12.4652C7.10967 12.2766 6.69623 12.0003 6.348 11.652L1.5 6.80325V16.5H16.5V7.5ZM15.75 2.25V0H14.25V2.25H12V3.75H14.25V6H15.75V3.75H18V2.25H15.75Z" fill="#5E11C9"/>
</g>
<defs>
<clipPath id="clip0_3383_67401">
<rect width="18" height="18" fill="white"/>
</clipPath>
</defs>
</svg>
