<svg width="18" height="18" viewBox="0 0 18 18" fill="none" xmlns="http://www.w3.org/2000/svg">
<g clip-path="url(#clip0_3383_67373)">
<path d="M3.375 14.6252V16.5002H2.25C2.05109 16.5002 1.86032 16.4212 1.71967 16.2806C1.57902 16.1399 1.5 15.9491 1.5 15.7502V14.6252H3.375ZM4.875 13.1252H0V15.7502C0 16.347 0.237053 16.9193 0.65901 17.3412C1.08097 17.7632 1.65326 18.0002 2.25 18.0002H4.875V13.1252Z" fill="#4E4E4E"/>
<path d="M16.5 14.6252V15.7502C16.5 15.9491 16.421 16.1399 16.2803 16.2806C16.1397 16.4212 15.9489 16.5002 15.75 16.5002H14.625V14.6252H16.5ZM18 13.1252H13.125V18.0002H15.75C16.3467 18.0002 16.919 17.7632 17.341 17.3412C17.7629 16.9193 18 16.347 18 15.7502V13.1252Z" fill="#4E4E4E"/>
<path d="M3.375 8.06225V9.93725H1.5V8.06225H3.375ZM4.875 6.56226H0V11.4372H4.875V6.56226Z" fill="#4E4E4E"/>
<path d="M16.5 8.06225V9.93725H14.625V8.06225H16.5ZM18 6.56226H13.125V11.4372H18V6.56226Z" fill="#4E4E4E"/>
<path d="M3.375 1.5V3.375H1.5V2.25C1.5 2.05109 1.57902 1.86032 1.71967 1.71967C1.86032 1.57902 2.05109 1.5 2.25 1.5H3.375ZM4.875 0H2.25C1.65326 0 1.08097 0.237053 0.65901 0.65901C0.237053 1.08097 0 1.65326 0 2.25L0 4.875H4.875V0Z" fill="#4E4E4E"/>
<path d="M9.93749 14.6252V16.5002H8.0625V14.6252H9.93749ZM11.4375 13.1252H6.5625V18.0002H11.4375V13.1252Z" fill="#4E4E4E"/>
<path d="M9.93749 8.06225V9.93725H8.0625V8.06225H9.93749ZM11.4375 6.56226H6.5625V11.4372H11.4375V6.56226Z" fill="#4E4E4E"/>
<path d="M9.93749 1.5V3.375H8.0625V1.5H9.93749ZM11.4375 0H6.5625V4.875H11.4375V0Z" fill="#4E4E4E"/>
<path d="M15.75 1.5C15.9489 1.5 16.1397 1.57902 16.2803 1.71967C16.421 1.86032 16.5 2.05109 16.5 2.25V3.375H14.625V1.5H15.75ZM15.75 0H13.125V4.875H18V2.25C18 1.65326 17.7629 1.08097 17.341 0.65901C16.919 0.237053 16.3467 0 15.75 0V0Z" fill="#4E4E4E"/>
</g>
<defs>
<clipPath id="clip0_3383_67373">
<rect width="18" height="18" fill="white"/>
</clipPath>
</defs>
</svg>
