<svg width="18" height="18" viewBox="0 0 18 18" fill="none" xmlns="http://www.w3.org/2000/svg">
<g clip-path="url(#clip0_3383_67402)">
<path d="M15.75 0H2.25C1.65326 0 1.08097 0.237053 0.65901 0.65901C0.237053 1.08097 0 1.65326 0 2.25L0 18H18V2.25C18 1.65326 17.7629 1.08097 17.341 0.65901C16.919 0.237053 16.3467 0 15.75 0V0ZM5.25 16.5V12.75C5.25 12.5511 5.32902 12.3603 5.46967 12.2197C5.61032 12.079 5.80109 12 6 12H12C12.1989 12 12.3897 12.079 12.5303 12.2197C12.671 12.3603 12.75 12.5511 12.75 12.75V16.5H5.25ZM16.5 16.5H14.25V12.75C14.25 12.1533 14.0129 11.581 13.591 11.159C13.169 10.7371 12.5967 10.5 12 10.5H6C5.40326 10.5 4.83097 10.7371 4.40901 11.159C3.98705 11.581 3.75 12.1533 3.75 12.75V16.5H1.5V2.25C1.5 2.05109 1.57902 1.86032 1.71967 1.71967C1.86032 1.57902 2.05109 1.5 2.25 1.5H15.75C15.9489 1.5 16.1397 1.57902 16.2803 1.71967C16.421 1.86032 16.5 2.05109 16.5 2.25V16.5Z" fill="#5E11C9"/>
<path d="M9 2.99951C8.40666 2.99951 7.82664 3.17546 7.33329 3.5051C6.83994 3.83475 6.45543 4.30328 6.22836 4.85146C6.0013 5.39964 5.94189 6.00284 6.05765 6.58478C6.1734 7.16673 6.45912 7.70127 6.87868 8.12083C7.29824 8.54039 7.83279 8.82611 8.41473 8.94187C8.99667 9.05762 9.59987 8.99821 10.1481 8.77115C10.6962 8.54409 11.1648 8.15957 11.4944 7.66622C11.8241 7.17287 12 6.59286 12 5.99951C12 5.20386 11.6839 4.4408 11.1213 3.87819C10.5587 3.31558 9.79565 2.99951 9 2.99951ZM9 7.49951C8.70333 7.49951 8.41332 7.41154 8.16665 7.24672C7.91997 7.08189 7.72771 6.84763 7.61418 6.57354C7.50065 6.29945 7.47095 5.99785 7.52882 5.70688C7.5867 5.4159 7.72956 5.14863 7.93934 4.93885C8.14912 4.72907 8.41639 4.58621 8.70737 4.52833C8.99834 4.47046 9.29994 4.50016 9.57403 4.61369C9.84812 4.72722 10.0824 4.91948 10.2472 5.16616C10.412 5.41283 10.5 5.70284 10.5 5.99951C10.5 6.39734 10.342 6.77887 10.0607 7.06017C9.77936 7.34148 9.39783 7.49951 9 7.49951Z" fill="#5E11C9"/>
</g>
<defs>
<clipPath id="clip0_3383_67402">
<rect width="18" height="18" fill="white"/>
</clipPath>
</defs>
</svg>
