<svg width="284" height="239" viewBox="0 0 284 239" fill="none" xmlns="http://www.w3.org/2000/svg">
<path d="M96.2627 54.7251C95.8002 54.1779 95.1878 52.6469 94.9598 51.4678C94.0868 47.0183 99.2399 41.6503 102.126 42.3473C104.061 42.8164 106.08 46.1193 105.383 46.9076C104.882 47.4743 102.38 47.7089 102.126 46.9076C101.755 45.7284 104.582 42.2822 107.338 42.3473C110.113 42.4125 110.491 45.3245 113.201 45.6046C116.829 45.9825 118.849 41.0379 121.67 41.6959C122.601 41.9109 123.891 42.8034 124.927 46.2561C126.23 49.5134 127.481 47.9564 129.793 48.4515C131.494 48.8098 133.578 48.875 136.002 48.2105C136.699 48.0216 142.959 46.2366 143.168 42.3473C143.376 38.3995 139.194 34.8686 135.35 35.8327C132.745 36.4842 134.139 39.5982 135.35 40.393C137.246 41.6373 143.513 38.3148 144.471 33.2269C145.077 30.0087 143.65 25.6243 140.562 24.7579C137.683 23.9501 133.963 26.367 134.047 28.0152C134.106 29.1813 136.093 30.4256 137.305 29.9696C139.214 29.253 140.139 23.9371 137.956 21.5006C135.448 18.6993 128.562 19.5658 126.23 23.455C124.276 26.7123 124.38 31.6243 125.578 31.924C128.184 32.5754 129.494 30.9663 128.836 28.6667C126.23 19.5462 118.282 14.8362 110.595 17.5918C106.953 18.8948 103.377 22.6407 104.08 25.4094C104.895 28.6146 109.292 29.9696 110.595 27.3638C113.279 21.9892 98.8686 20.1977 94.9598 22.1521C90.2367 24.5169 89.4484 28.0869 90.3996 32.5754C90.9273 35.064 93.3246 37.52 94.9598 37.1357C97.051 36.6471 98.4842 31.3963 96.9142 29.9696C94.0412 27.3638 79.0251 35.5656 79.3247 42.9988C79.3378 43.2789 79.429 44.9662 80.6277 46.2561C83.8328 49.7023 92.4386 47.6372 93.0054 44.9532C93.3246 43.4288 91.1683 41.1291 89.0966 41.0444C85.2986 40.8946 80.4062 48.1128 81.9306 54.0736C82.6863 57.0117 85.2661 60.6925 88.4452 60.5882C92.0217 60.471 95.0054 55.6241 94.3083 54.7251C93.3898 53.5394 83.7416 56.2235 83.2335 61.8912C82.8557 66.1061 87.709 71.0963 92.354 70.3602C95.4158 69.8781 97.1748 67.0963 97.5656 66.4514" stroke="#5E11C9" stroke-miterlimit="10"/>
<path d="M136.002 48.2109C136.653 56.6799 135.35 67.7548 129.487 78.1781C126.204 84.0087 123.624 89.253 117.109 88.6015C109.09 87.8002 103.044 78.6667 102.777 78.1781" stroke="#5E11C9" stroke-miterlimit="10"/>
<path d="M102.778 58.6346C101.977 55.3773 99.9052 53.2796 98.2179 53.4229C96.0941 53.6053 94.8824 57.3252 94.9606 59.9375C95.0844 63.9896 98.3873 68.0873 100.824 67.7551C101.345 67.6834 101.775 67.4228 102.127 67.1036" stroke="#5E11C9" stroke-miterlimit="10"/>
<path d="M95.6117 69.0586C96.8494 72.4527 100.12 82.7523 94.9602 90.5568C91.996 95.0388 87.299 96.8629 78.0222 100.329C65.4946 105.006 62.1005 103.723 55.8726 106.843C49.9964 109.788 43.7293 113.866 38.2831 128.993C26.5568 161.566 23.8272 171.996 21.3451 185.019C16.1335 212.38 44.7977 209.774 57.1755 205.865C75.234 200.165 96.9146 190.23 96.9146 190.23C96.9146 190.23 95.5726 173.403 93.6573 172.641C90.4 171.338 39.4883 186.204 44.7977 192.836C55.2211 205.865 48.7065 166.126 66.2959 137.462" stroke="#5E11C9" stroke-miterlimit="10"/>
<path d="M116.46 88.6016C115.222 90.582 111.131 97.5526 113.854 101.631C114.76 102.986 116.089 103.533 117.763 104.237C122.336 106.152 127.19 107.546 131.444 110.1C150.988 121.826 147.704 154.536 149.685 167.428C153.593 192.835 139.913 184.366 145.776 178.503C149.098 175.181 158.154 177.2 173.789 153.748" stroke="#5E11C9" stroke-miterlimit="10"/>
<path d="M193.332 149.84C185.514 168.732 178.739 179.814 167.273 192.185C166.524 192.993 164.498 195.129 161.41 197.396C158.387 199.611 145.274 209.22 136.655 204.563C130.485 201.234 128.108 191.755 126.883 185.019" stroke="#5E11C9" stroke-miterlimit="10"/>
<path d="M107.351 168.176C104.66 169.244 100.041 171.544 94.3086 173.941" stroke="#5E11C9" stroke-miterlimit="10"/>
<path d="M101.448 188.482H101.441" stroke="#5E11C9" stroke-miterlimit="10"/>
<path d="M123.768 174.371C123.794 175.518 123.729 176.567 123.625 177.198C123.273 179.309 121.67 181.029 119.918 182.378" stroke="#5E11C9" stroke-miterlimit="10"/>
<path d="M104.067 174.503C103.318 174.692 102.849 174.738 102.777 174.595C102.777 174.595 103.579 174.067 104.686 173.305" stroke="#5E11C9" stroke-miterlimit="10"/>
<path d="M82.582 98.373C83.2335 102.933 85.2791 108.79 97.5656 110.751C106.334 112.151 114.504 110.099 119.064 104.888" stroke="#5E11C9" stroke-miterlimit="10"/>
<path d="M222.957 106.459L212.123 123.592C209.648 122.081 206.032 120.784 203.752 121.175C200.514 121.729 208.638 124.954 208.964 126.387C209.257 127.657 208.228 127.931 202.449 128.341C193.329 128.993 190.723 140.068 192.677 141.37C193.42 141.866 197.022 141.866 200.736 141.592L196.99 147.52C196.312 148.589 195.237 149.338 194.006 149.605L164.814 155.898C163.98 156.08 163.309 155.201 163.7 154.439L188.195 107.253C188.944 105.801 190.449 104.889 192.084 104.889H222.091C222.898 104.889 223.387 105.775 222.957 106.459Z" stroke="#5E11C9" stroke-miterlimit="10"/>
<path d="M214.826 126.386C214.826 130.294 212.22 138.112 209.615 140.066C208.761 140.705 204.69 141.304 200.735 141.591C197.022 141.864 193.419 141.864 192.677 141.369C190.722 140.066 193.328 128.991 202.448 128.34C208.227 127.93 209.256 127.656 208.963 126.386C208.637 124.952 200.514 121.728 203.751 121.174C206.032 120.783 209.647 122.079 212.123 123.591C213.706 124.562 214.826 125.623 214.826 126.386Z" stroke="#5E11C9" stroke-miterlimit="10"/>
<path d="M126.232 61.8926C126.232 66.4528 128.186 69.7101 127.535 70.3616C127.352 70.544 126.447 71.1303 124.277 70.3616" stroke="#5E11C9" stroke-miterlimit="10"/>
<path d="M116.133 61.2395C116.673 61.2395 117.111 60.802 117.111 60.2623C117.111 59.7227 116.673 59.2852 116.133 59.2852C115.594 59.2852 115.156 59.7227 115.156 60.2623C115.156 60.802 115.594 61.2395 116.133 61.2395Z" fill="#5E11C9" stroke="#5E11C9" stroke-miterlimit="10"/>
<path d="M131.118 60.5891C131.658 60.5891 132.095 60.1516 132.095 59.612C132.095 59.0723 131.658 58.6348 131.118 58.6348C130.578 58.6348 130.141 59.0723 130.141 59.612C130.141 60.1516 130.578 60.5891 131.118 60.5891Z" fill="#5E11C9" stroke="#5E11C9" stroke-miterlimit="10"/>
<path d="M114.506 76.2232C116.46 76.8747 123.627 78.8291 126.232 76.8747C127.32 76.0604 124.167 80.334 121.672 80.7835C117.627 81.5131 113.079 75.7477 114.506 76.2232Z" stroke="#5E11C9" stroke-miterlimit="10"/>
<path d="M126.086 169.545C126.203 174.926 126.477 181.317 126.881 190.229C127.2 197.317 129.597 226.417 130.138 233.225" stroke="#5E11C9" stroke-miterlimit="10"/>
<path d="M126.344 152.424C126.591 147.792 126.982 142.529 127.536 135.506" stroke="#5E11C9" stroke-miterlimit="10"/>
<path d="M49.3584 207.818C48.4789 214.333 47.2216 221.317 45.4496 228.665C44.6353 232.053 43.7623 235.31 42.8438 238.437" stroke="#5E11C9" stroke-miterlimit="10"/>
<path d="M50.6602 211.076C60.0738 212.906 72.5362 214.405 87.142 213.682C105.305 212.783 121.715 208.503 128.184 206.516" stroke="#5E11C9" stroke-miterlimit="10"/>
<path d="M115.806 185.017C116.822 184.405 118.425 183.525 119.917 182.379L116.458 189.578L99.5195 192.183L100.738 189.845L101.441 188.483H101.448C106.575 187.806 113.402 186.464 115.806 185.017Z" stroke="#5E11C9" stroke-miterlimit="10"/>
<path d="M132.744 155.701L126.086 169.545L123.767 174.372C123.734 172.027 123.356 169.245 122.321 168.73C121.545 168.346 114.959 170.822 109.637 172.704L117.109 158.307L126.145 156.802L130.308 156.105L132.744 155.701Z" stroke="#5E11C9" stroke-miterlimit="10"/>
<path d="M98.981 188.769C99.7301 188.697 100.564 188.6 101.443 188.482L100.74 189.844L98.2188 190.228L98.981 188.769Z" stroke="#5E11C9" stroke-miterlimit="10"/>
<path d="M107.352 168.178C108.427 167.748 109.3 167.514 109.997 167.553C110.499 167.579 110.915 167.748 111.248 168.081C111.476 168.309 110.075 169.462 108.342 170.732C107.137 171.625 105.769 172.576 104.688 173.305" stroke="#5E11C9" stroke-miterlimit="10"/>
<path d="M131.442 153.748L130.308 156.106L126.145 156.803L117.109 158.308L109.637 172.706C108.634 173.057 107.683 173.39 106.816 173.676L108.341 170.732C110.074 169.461 111.474 168.308 111.246 168.08C110.914 167.748 110.497 167.579 109.996 167.552L115.807 156.354L126.23 154.614L129.005 154.152L131.442 153.748Z" stroke="#5E11C9" stroke-miterlimit="10"/>
<path d="M101.442 188.482C100.562 188.6 97.6632 188.854 96.9141 188.925" stroke="#5E11C9" stroke-miterlimit="10"/>
<path d="M119.918 182.379C118.426 183.525 116.824 184.405 115.807 185.017C113.404 186.464 106.576 187.806 101.449 188.483" stroke="#5E11C9" stroke-miterlimit="10"/>
<path d="M104.066 174.503C104.77 174.334 105.715 174.041 106.816 173.676C107.682 173.389 108.633 173.057 109.636 172.705C114.959 170.822 121.545 168.347 122.32 168.731C123.356 169.246 123.734 172.028 123.767 174.373" stroke="#5E11C9" stroke-miterlimit="10"/>
<path d="M108.34 170.73L106.816 173.675C105.715 174.04 104.77 174.333 104.066 174.502L104.685 173.304C105.767 172.574 107.135 171.623 108.34 170.73Z" stroke="#5E11C9" stroke-miterlimit="10"/>
<path d="M130.14 151.793L129.006 154.151L126.231 154.614L115.808 156.353L109.996 167.552C109.299 167.513 108.426 167.747 107.352 168.177L114.505 154.399L126.342 152.425L130.14 151.793Z" stroke="#5E11C9" stroke-miterlimit="10"/>
<path d="M66.2963 2.60938V28.6678L64.3419 28.9284L2.45312 37.1368V11.0784L66.2963 2.60938Z" stroke="#5E11C9" stroke-miterlimit="10"/>
<path d="M27.2118 11.7305V30.6228L7.66797 33.2287V14.3363L27.2118 11.7305Z" stroke="#5E11C9" stroke-miterlimit="10"/>
<path d="M63.0409 8.47266V13.6843L29.8164 18.2446V13.0329L63.0409 8.47266Z" stroke="#5E11C9" stroke-miterlimit="10"/>
<path d="M44.1485 19.5469V24.7586L29.8164 26.7129V21.5013L44.1485 19.5469Z" stroke="#5E11C9" stroke-miterlimit="10"/>
<path d="M66.2975 28.6676L64.3431 31.2734L0.5 39.7424V13.684L2.45438 11.0781V37.1366L66.2975 28.6676Z" stroke="#5E11C9" stroke-linejoin="round"/>
<path d="M10.668 18.2442L12.225 28.6675L34.3746 1" stroke="#5E11C9" stroke-miterlimit="10"/>
<path d="M203.004 176.549H212.965C213.994 176.549 214.821 177.383 214.821 178.405V231.272H201.141V178.405C201.141 177.376 201.974 176.549 202.997 176.549H203.004Z" stroke="#5E11C9" stroke-miterlimit="10"/>
<path d="M223.371 136.811H233.006C234.12 136.811 235.032 137.716 235.032 138.837V231.272H221.352V138.837C221.352 137.723 222.257 136.811 223.378 136.811H223.371Z" stroke="#5E11C9" stroke-miterlimit="10"/>
<path d="M243.357 194.791H253.402C254.405 194.791 255.22 195.605 255.22 196.609V231.273H241.539V196.609C241.539 195.605 242.353 194.791 243.357 194.791Z" stroke="#5E11C9" stroke-miterlimit="10"/>
<path d="M263.813 153.748H273.337C274.483 153.748 275.415 154.68 275.415 155.826V231.272H261.734V155.826C261.734 154.68 262.666 153.748 263.813 153.748Z" stroke="#5E11C9" stroke-miterlimit="10"/>
<path d="M190.023 231.271H283.501" stroke="#5E11C9" stroke-miterlimit="10"/>
<path d="M200.497 73.2478C215.763 73.2478 228.138 60.8723 228.138 45.6063C228.138 30.3404 215.763 17.9648 200.497 17.9648C185.231 17.9648 172.855 30.3404 172.855 45.6063C172.855 60.8723 185.231 73.2478 200.497 73.2478Z" stroke="#5E11C9" stroke-miterlimit="10"/>
<path d="M200.497 76.8762C217.767 76.8762 231.767 62.8761 231.767 45.6061C231.767 28.336 217.767 14.3359 200.497 14.3359C183.227 14.3359 169.227 28.336 169.227 45.6061C169.227 62.8761 183.227 76.8762 200.497 76.8762Z" stroke="#5E11C9" stroke-miterlimit="10"/>
<path d="M200.824 45.6066L225.254 37.7891" stroke="#5E11C9" stroke-miterlimit="10"/>
<path d="M186.816 33.2285L201.149 45.6063" stroke="#5E11C9" stroke-miterlimit="10"/>
<path d="M46.7536 64.4994C40.8905 59.9391 35.6788 64.4994 35.6788 67.7567C35.6788 74.2713 44.0436 69.6459 46.7536 73.6198C48.3106 75.9064 47.4442 78.4146 45.4507 80.1344C43.1641 82.1018 38.9361 81.4373 35.0273 78.18" stroke="#5E11C9" stroke-miterlimit="10"/>
<path d="M42.0186 86.9474C50.1967 86.9474 56.8263 80.3178 56.8263 72.1397C56.8263 63.9617 50.1967 57.332 42.0186 57.332C33.8406 57.332 27.2109 63.9617 27.2109 72.1397C27.2109 80.3178 33.8406 86.9474 42.0186 86.9474Z" stroke="#5E11C9" stroke-miterlimit="10"/>
<path d="M42.6682 58.6348L40.2383 84.6932" stroke="#5E11C9" stroke-miterlimit="10"/>
</svg>
