<svg width="264" height="242" viewBox="0 0 264 242" fill="none" xmlns="http://www.w3.org/2000/svg">
<path d="M60.684 58.834C60.684 58.834 67.635 67.412 62.7538 79.2443C62.7538 79.2443 60.8316 83.978 54.7659 83.0886C54.7659 83.0886 54.1183 82.8509 53.397 82.523C53.147 82.4083 52.8888 82.2853 52.6429 82.1541C52.1224 81.8755 51.6675 81.5804 51.5117 81.3181" stroke="#5E11C9" stroke-miterlimit="10"/>
<path d="M36.4249 63.862C36.4249 63.862 40.6422 65.2678 41.9701 63.3456C43.298 61.4234 42.9332 60.1652 46.3349 56.4684C49.7366 52.7716 51.2162 52.3249 54.0277 52.9191C56.8392 53.5134 61.1262 55.4356 60.6836 57.5053C60.3434 59.0996 60.1836 60.5095 59.2819 61.9357C58.3803 63.362 57.2614 64.4686 56.0605 65.5383C55.1794 66.3252 54.249 67.0588 53.2982 67.7637C52.8392 68.1039 52.3269 68.6039 51.7982 68.817C50.6178 69.2924 49.8965 69.0424 49.3514 70.3293C48.8883 71.4277 48.9374 72.6122 49.1424 73.772C50.0317 78.8008 51.2121 83.387 46.3308 85.3092C41.4496 87.2313 34.9412 87.5264 33.1666 84.8665C31.392 82.2066 32.1297 79.0959 33.7568 77.4688C35.3839 75.8418 31.0928 71.6982 31.0928 71.6982C31.0928 71.6982 29.3182 68.7391 31.8305 66.2268C34.3429 63.7144 36.4167 63.862 36.4167 63.862H36.4249Z" stroke="#5E11C9" stroke-miterlimit="10"/>
<path d="M32.5836 113.416L14.3905 149.212L5.8125 143.22C8.11993 138.015 10.4601 132.822 12.8167 127.642C16.8291 118.818 20.8538 109.99 25.1736 101.314C26.0219 99.6127 26.8785 97.916 27.7884 96.2479C29.1532 93.7478 31.4565 91.006 33.8951 89.4404C35.1041 88.6617 36.2066 87.8338 38.7968 86.7969" stroke="#5E11C9" stroke-miterlimit="10"/>
<path d="M54.7686 83.0903C51.83 84.8649 52.6989 90.7831 52.6989 90.7831C56.99 104.095 69.1173 96.5537 69.1173 96.5537C69.1173 96.5537 82.8717 90.7093 83.3184 74.5163L94.8555 73.627C94.8555 73.627 96.7449 90.9511 83.0233 103.652C67.605 117.927 57.8794 115.484 57.8794 115.484C57.8794 115.484 54.9203 135.009 56.3998 139.743C56.3998 139.743 44.4201 150.096 24.3008 141.075C25.2762 138.161 30.8214 125.62 32.5018 118.361C32.5018 118.361 33.0264 113.935 32.3583 110.681" stroke="#5E11C9" stroke-miterlimit="10"/>
<path d="M56.391 139.744C62.0141 157.081 63.4199 175.647 67.1126 193.348L70.5921 225.09L37.9767 230.861C37.9767 230.861 38.4439 228.627 39.0587 225.168C40.5259 216.943 42.8416 201.799 41.7473 193.364C40.194 181.384 31.9848 157.642 32.4274 154.982" stroke="#5E11C9" stroke-miterlimit="10"/>
<path d="M25.0376 141.373C25.0376 141.373 23.263 160.898 26.2221 177.612C28.7877 192.112 14.9062 223.539 14.9062 223.539C14.9062 223.539 30.1648 227.904 39.0625 225.166" stroke="#5E11C9" stroke-miterlimit="10"/>
<path d="M43.7514 230.193C43.7514 230.193 39.7595 237.96 45.9687 239.735C52.8951 241.714 61.3174 240.866 68.4077 240.526C71.1127 240.398 75.666 240.821 77.9366 239.177C81.3178 236.73 80.0227 232.025 76.3628 231.079C70.3708 229.525 61.719 227.751 61.2764 226.861" stroke="#5E11C9" stroke-miterlimit="10"/>
<path d="M21.1176 225.533C21.1176 225.533 17.347 230.857 18.2323 235.074C19.1175 239.292 29.1055 239.956 33.3187 238.402C37.5319 236.849 42.4172 236.185 42.4172 236.185" stroke="#5E11C9" stroke-miterlimit="10"/>
<path d="M85.3831 74.2167C85.3831 74.2167 85.2356 67.6346 85.9733 66.4502C86.711 65.2657 88.043 64.6755 87.9693 66.5239C87.8955 68.3723 88.8586 69.2617 89.0799 68.8887C89.4283 68.3068 89.4488 67.3067 89.5881 66.6551C89.8791 65.3313 90.1906 64.0075 90.6046 62.7124C90.9488 61.6427 91.3833 60.3353 92.1046 59.4582C92.9694 58.409 95.0555 57.6795 96.2522 58.5279C98.0268 59.7861 93.7358 73.4667 93.7358 73.4667" stroke="#5E11C9" stroke-miterlimit="10"/>
<path d="M57.1739 70.2229C57.5203 70.2229 57.801 69.9421 57.801 69.5958C57.801 69.2495 57.5203 68.9688 57.1739 68.9688C56.8276 68.9688 56.5469 69.2495 56.5469 69.5958C56.5469 69.9421 56.8276 70.2229 57.1739 70.2229Z" fill="#5E11C9"/>
<path d="M62.7521 70.1623C63.0984 70.1623 63.3791 69.8816 63.3791 69.5353C63.3791 69.1889 63.0984 68.9082 62.7521 68.9082C62.4057 68.9082 62.125 69.1889 62.125 69.5353C62.125 69.8816 62.4057 70.1623 62.7521 70.1623Z" fill="#5E11C9"/>
<path d="M11.945 147.434C11.945 147.434 9.20724 154.237 8.32198 155.717C7.43671 157.197 7.28507 151.426 7.28507 151.426C7.28507 151.426 4.32599 155.865 4.17845 158.229C4.03091 160.594 1.81365 162.074 1.36691 160.152C0.920184 158.229 -0.407713 149.799 6.83834 144.176" stroke="#5E11C9" stroke-miterlimit="10"/>
<path d="M60.6106 71.4453L61.0533 73.6626C61.0533 73.6626 59.6106 74.1052 59.168 73.6626" stroke="#5E11C9" stroke-miterlimit="10"/>
<path d="M61.7184 76.7701C61.7184 76.7701 59.7225 78.3235 57.7266 76.5488C57.7266 76.5488 57.7839 78.139 59.2799 78.6554C59.9069 78.8726 61.6078 78.4341 61.7184 76.7701Z" stroke="#5E11C9" stroke-miterlimit="10"/>
<path d="M107.536 219.558L73.3185 219.431C71.9046 219.431 70.5275 219.296 69.1914 219.033" stroke="#5E11C9" stroke-miterlimit="10"/>
<path d="M147.098 17.75H172.369C184.164 17.75 193.73 27.3117 193.73 39.1111V198.069C193.73 206.877 188.627 215.918 180.197 217.988" stroke="#5E11C9" stroke-miterlimit="10"/>
<path d="M51.957 51.8081V39.1111C51.957 27.3158 61.5187 17.75 73.3181 17.75H98.5523" stroke="#5E11C9" stroke-miterlimit="10"/>
<path d="M48.2969 83.8711C48.2969 83.8711 50.8502 84.6457 53.0675 85.6457" stroke="#5E11C9" stroke-miterlimit="10"/>
<path d="M53.7344 142.553C53.7344 142.553 56.1729 146.102 58.173 146.323" stroke="#5E11C9" stroke-miterlimit="10"/>
<path d="M85.3863 73.6986L75.8493 73.7723C72.4721 73.7723 69.7344 71.0346 69.7344 67.6574V56.5875C69.7344 53.2104 72.4721 50.4727 75.8493 50.4727H87.5544C90.9315 50.4727 93.6693 53.2104 93.6693 56.5875V58.313" stroke="#5E11C9" stroke-miterlimit="10"/>
<path d="M76.5859 60.5188L78.0614 66.6829L101.545 48.0391" stroke="#5E11C9" stroke-miterlimit="10"/>
<path d="M159.865 55.5801H100.848C99.9286 55.5801 99.1836 56.3251 99.1836 57.244V58.0596C99.1836 58.9786 99.9286 59.7236 100.848 59.7236H159.865C160.784 59.7236 161.529 58.9786 161.529 58.0596V57.244C161.529 56.3251 160.784 55.5801 159.865 55.5801Z" stroke="#5E11C9" stroke-miterlimit="10"/>
<path d="M142.873 63.2891H100.848C99.9286 63.2891 99.1836 64.034 99.1836 64.953V65.7686C99.1836 66.6876 99.9286 67.4326 100.848 67.4326H142.873C143.792 67.4326 144.537 66.6876 144.537 65.7686V64.953C144.537 64.034 143.792 63.2891 142.873 63.2891Z" stroke="#5E11C9" stroke-miterlimit="10"/>
<path d="M181.053 94.7188H122.035C121.116 94.7188 120.371 95.4637 120.371 96.3827V97.1983C120.371 98.1173 121.116 98.8623 122.035 98.8623H181.053C181.972 98.8623 182.717 98.1173 182.717 97.1983V96.3827C182.717 95.4637 181.972 94.7188 181.053 94.7188Z" stroke="#5E11C9" stroke-miterlimit="10"/>
<path d="M164.061 102.428H122.035C121.116 102.428 120.371 103.173 120.371 104.092V104.907C120.371 105.826 121.116 106.571 122.035 106.571H164.061C164.98 106.571 165.725 105.826 165.725 104.907V104.092C165.725 103.173 164.98 102.428 164.061 102.428Z" stroke="#5E11C9" stroke-miterlimit="10"/>
<path d="M109.986 88.7676H99.6214C95.8458 88.7676 92.7852 91.8283 92.7852 95.6038V105.686C92.7852 109.462 95.8458 112.522 99.6214 112.522H109.986C113.762 112.522 116.823 109.462 116.823 105.686V95.6038C116.823 91.8283 113.762 88.7676 109.986 88.7676Z" stroke="#5E11C9" stroke-miterlimit="10"/>
<path d="M157.986 124.082H98.9687C98.0497 124.082 97.3047 124.827 97.3047 125.746V126.562C97.3047 127.481 98.0497 128.226 98.9687 128.226H157.986C158.905 128.226 159.65 127.481 159.65 126.562V125.746C159.65 124.827 158.905 124.082 157.986 124.082Z" stroke="#5E11C9" stroke-miterlimit="10"/>
<path d="M140.994 131.791H98.9687C98.0497 131.791 97.3047 132.536 97.3047 133.455V134.271C97.3047 135.19 98.0497 135.935 98.9687 135.935H140.994C141.913 135.935 142.658 135.19 142.658 134.271V133.455C142.658 132.536 141.913 131.791 140.994 131.791Z" stroke="#5E11C9" stroke-miterlimit="10"/>
<path d="M86.9121 118.131H76.5471C72.7716 118.131 69.7109 121.192 69.7109 124.967V135.049C69.7109 138.825 72.7716 141.885 76.5471 141.885H86.9121C90.6877 141.885 93.7483 138.825 93.7483 135.049V124.967C93.7483 121.192 90.6877 118.131 86.9121 118.131Z" stroke="#5E11C9" stroke-miterlimit="10"/>
<path d="M101.059 26.7382H144.634C147.847 26.7382 149.921 23.3324 148.441 20.4799L147.101 17.8897L139.564 3.31972C138.826 1.89756 137.359 1 135.757 1H108.752C107.063 1 105.531 1.99182 104.838 3.53284L97.1452 20.693C95.8747 23.5292 97.9485 26.7342 101.059 26.7342V26.7382Z" stroke="#5E11C9" stroke-miterlimit="10"/>
<path d="M190.199 221.648L224.036 144.523L257.684 220.996" stroke="#5E11C9" stroke-miterlimit="10"/>
<path d="M224.53 144.539C228.064 144.539 230.928 141.675 230.928 138.142C230.928 134.608 228.064 131.744 224.53 131.744C220.997 131.744 218.133 134.608 218.133 138.142C218.133 141.675 220.997 144.539 224.53 144.539Z" stroke="#5E11C9" stroke-miterlimit="10"/>
<path d="M255.154 236.271C259.5 236.271 263.023 232.748 263.023 228.402C263.023 224.056 259.5 220.533 255.154 220.533C250.808 220.533 247.285 224.056 247.285 228.402C247.285 232.748 250.808 236.271 255.154 236.271Z" stroke="#5E11C9" stroke-miterlimit="10"/>
<path d="M239.185 239.73C243.531 239.73 247.054 236.207 247.054 231.861C247.054 227.515 243.531 223.992 239.185 223.992C234.839 223.992 231.316 227.515 231.316 231.861C231.316 236.207 234.839 239.73 239.185 239.73Z" stroke="#5E11C9" stroke-miterlimit="10"/>
<path d="M223.178 240.996C227.524 240.996 231.047 237.473 231.047 233.127C231.047 228.781 227.524 225.258 223.178 225.258C218.832 225.258 215.309 228.781 215.309 233.127C215.309 237.473 218.832 240.996 223.178 240.996Z" stroke="#5E11C9" stroke-miterlimit="10"/>
<path d="M206.791 239.947C211.137 239.947 214.66 236.424 214.66 232.078C214.66 227.732 211.137 224.209 206.791 224.209C202.445 224.209 198.922 227.732 198.922 232.078C198.922 236.424 202.445 239.947 206.791 239.947Z" stroke="#5E11C9" stroke-miterlimit="10"/>
<path d="M190.904 237.095C195.25 237.095 198.773 233.572 198.773 229.226C198.773 224.881 195.25 221.357 190.904 221.357C186.558 221.357 183.035 224.881 183.035 229.226C183.035 233.572 186.558 237.095 190.904 237.095Z" stroke="#5E11C9" stroke-miterlimit="10"/>
<path d="M235.713 170.752L202.605 193.412" stroke="#5E11C9" stroke-miterlimit="10"/>
<path d="M242.014 185.123L191.496 218.96" stroke="#5E11C9" stroke-miterlimit="10"/>
<path d="M245.265 192.631L197.711 225.263" stroke="#5E11C9" stroke-miterlimit="10"/>
<path d="M238.494 177.246L195.48 209.689" stroke="#5E11C9" stroke-miterlimit="10"/>
<path d="M170.229 199.133H117.392C111.948 199.133 107.535 203.546 107.535 208.99V219.559C107.535 225.003 111.948 229.416 117.392 229.416H170.229C175.673 229.416 180.086 225.003 180.086 219.559V208.99C180.086 203.546 175.673 199.133 170.229 199.133Z" stroke="#5E11C9" stroke-miterlimit="10"/>
<path d="M125.775 199.062C120.332 199.062 115.918 194.648 115.918 189.206V184.763C115.918 179.32 120.332 174.906 125.775 174.906H161.841C167.284 174.906 171.698 179.32 171.698 184.763V189.206C171.698 194.648 167.284 199.062 161.841 199.062" stroke="#5E11C9" stroke-miterlimit="10"/>
<path d="M134.163 174.852C131.278 174.852 128.941 172.516 128.941 169.631V164.319C128.941 161.434 131.278 159.098 134.163 159.098H153.45C156.335 159.098 158.672 161.434 158.672 164.319V169.631C158.672 172.516 156.335 174.852 153.45 174.852" stroke="#5E11C9" stroke-miterlimit="10"/>
<path d="M146.489 151.176C146.489 150.318 145.794 149.623 144.936 149.623C144.078 149.623 143.383 150.318 143.383 151.176V157.39C143.383 158.247 144.078 158.943 144.936 158.943C145.794 158.943 146.489 158.247 146.489 157.39V151.176Z" stroke="#5E11C9" stroke-miterlimit="10"/>
<path d="M145.292 137.971C144.443 140.512 139.566 150.09 145.882 149.36C149.726 148.918 145.292 137.971 145.292 137.971Z" stroke="#5E11C9" stroke-miterlimit="10"/>
<path d="M109.422 202.902C109.422 202.902 111.197 211.112 114.082 213.329C116.967 215.546 119.852 205.562 123.402 205.784C126.951 206.005 126.287 211.554 128.947 214.214C131.607 216.874 136.935 215.767 138.045 211.55C139.156 207.333 141.152 203.341 143.816 203.784C146.48 204.226 146.255 209.775 148.255 212.435C150.255 215.095 154.911 217.981 155.8 213.767C156.689 209.554 157.575 203.341 160.46 203.562C163.345 203.784 164.898 205.779 165.12 208.001C165.341 210.222 163.788 217.321 166.894 217.321C170.001 217.321 171.997 211.55 172.44 208.89C172.882 206.23 174.214 204.452 175.546 205.562C176.878 206.673 176.21 210.443 177.1 211.997C177.989 213.55 180.206 212.886 180.206 212.886" stroke="#5E11C9" stroke-miterlimit="10"/>
</svg>
