<svg width="400" height="211" viewBox="0 0 400 211" fill="none" xmlns="http://www.w3.org/2000/svg">
<g clip-path="url(#clip0_3415_52668)">
<path d="M302.477 105.777C302.477 105.777 289.653 110.638 288.941 98.0201C288.04 81.9653 303.283 74.748 303.283 74.748" stroke="#5E11C9" stroke-miterlimit="10"/>
<path d="M304.096 73.8473C304.096 73.8473 296.697 79.8043 307.345 87.5616C317.992 95.3189 307.071 98.2074 307.071 98.2074C307.071 98.2074 297.324 101.722 305.716 114.082C305.716 114.082 310.14 118.865 312.754 117.965C315.369 117.065 313.115 114.082 310.68 115.976C308.245 117.871 305.99 122.474 309.145 127.976C312.3 133.479 316.003 135.194 319.519 134.2C323.034 133.205 319.519 128.243 315.275 131.045C311.032 133.847 314.015 148.548 321.773 147.194C329.532 145.839 345.589 134.293 330.252 117.151C330.252 117.151 323.754 111.014 318.07 108.939C312.387 106.865 311.666 110.02 311.666 110.02C311.666 110.02 311.126 113.174 318.25 112.274C325.375 111.374 324.294 100.274 320.419 97.5733C316.544 94.8727 314.101 95.405 312.661 98.2074C311.22 101.01 317.71 102.896 321.953 94.8727C326.197 86.8414 320.333 77.8238 317.084 75.4207C313.835 73.0176 309.623 70.8493 304.088 73.8551L304.096 73.8473Z" stroke="#5E11C9" stroke-miterlimit="10"/>
<path d="M356.307 77.8164C356.307 77.8164 362.68 101.754 347.648 123.163C347.648 123.163 340.673 135.194 330.926 142.646" stroke="#5E11C9" stroke-miterlimit="10"/>
<path d="M327.676 114.496C327.676 114.496 343.913 105.236 344.156 79.498" stroke="#5E11C9" stroke-miterlimit="10"/>
<path d="M329.719 143.851C329.719 143.851 325.209 160.814 331.707 170.011C331.707 170.011 321.96 177.589 305.723 179.209C289.486 180.829 287.138 177.769 287.138 177.769C287.138 177.769 290.026 172.54 289.846 169.471C289.666 166.403 288.946 160.814 285.337 153.957C281.728 147.1 276.138 137.722 282.448 126.536C282.448 126.536 289.212 126.223 289.572 123.514L294.176 128.164L300.345 120.822L301.754 119.139" stroke="#5E11C9" stroke-miterlimit="10"/>
<path d="M307.707 125.629L300.34 120.807" stroke="#5E11C9" stroke-miterlimit="10"/>
<path d="M293.27 114.982C293.27 114.982 297.239 123.28 307.886 116.603" stroke="#5E11C9" stroke-miterlimit="10"/>
<path d="M282.443 126.529C282.443 126.529 279.194 127.249 276.305 123.461C273.416 119.672 274.136 110.834 279.374 107.766C284.604 104.697 282.443 109.754 282.443 109.754C278.654 114.443 275.405 108.674 275.405 108.674C270.895 96.5878 289.661 90.6309 289.661 90.6309" stroke="#5E11C9" stroke-miterlimit="10"/>
<path d="M292.549 105.598C292.549 105.598 295.438 118.404 289.48 123.281" stroke="#5E11C9" stroke-miterlimit="10"/>
<path d="M297.419 88.6426L294.898 91.8911L296.879 93.1514" stroke="#5E11C9" stroke-miterlimit="10"/>
<path d="M292.547 95.1309C292.547 95.1309 293.987 100.454 296.97 100.814C299.953 101.174 300.853 98.9195 301.213 97.7453C301.213 97.7453 293.815 97.4714 292.555 95.1309H292.547Z" stroke="#5E11C9" stroke-miterlimit="10"/>
<path d="M302.38 91.6562C302.652 91.6562 302.873 91.4354 302.873 91.1631C302.873 90.8907 302.652 90.6699 302.38 90.6699C302.108 90.6699 301.887 90.8907 301.887 91.1631C301.887 91.4354 302.108 91.6562 302.38 91.6562Z" fill="#5E11C9"/>
<path d="M295.161 86.332C295.434 86.332 295.654 86.1112 295.654 85.8389C295.654 85.5665 295.434 85.3457 295.161 85.3457C294.889 85.3457 294.668 85.5665 294.668 85.8389C294.668 86.1112 294.889 86.332 295.161 86.332Z" fill="#5E11C9"/>
<path d="M277.03 124.899C277.03 124.899 262.774 144.563 265.122 147.631C267.471 150.7 266.563 143.663 266.383 142.762C266.203 141.862 252.487 120.391 252.487 120.391L242.02 125.8C242.02 125.8 251.853 151.013 255.195 157.189C258.805 163.866 267.463 167.835 282.08 149.252" stroke="#5E11C9" stroke-miterlimit="10"/>
<path d="M242.021 125.809L241.418 124.604" stroke="#5E11C9" stroke-miterlimit="10"/>
<path d="M243.892 116.768L240.909 126.083C240.479 127.421 239.054 128.157 237.715 127.726L232.759 126.137C231.421 125.707 230.685 124.282 231.115 122.944L232.196 119.562" stroke="#5E11C9" stroke-miterlimit="10"/>
<path d="M236.086 107.428L238.262 100.65C238.693 99.3032 240.133 98.5674 241.472 98.9979L246.397 100.579C247.743 101.01 248.479 102.45 248.048 103.789L246.577 108.383" stroke="#5E11C9" stroke-miterlimit="10"/>
<path d="M252.488 120.392L246.53 108.666C246.53 108.666 245.27 104.337 242.201 106.137C239.132 107.938 238.772 109.386 238.772 109.386C238.772 109.386 238.411 110.646 240.212 110.646C242.013 110.646 243.547 108.658 243.727 110.106C243.727 110.106 242.913 114.388 243.821 116.869" stroke="#5E11C9" stroke-miterlimit="10"/>
<path d="M236.071 107.045C236.071 107.045 238.326 109.394 238.42 113.769C238.514 118.145 237.339 120.039 237.339 120.039C237.339 120.039 233.847 122.685 231.804 119.437C229.761 116.188 232.767 107.648 233.605 106.81C234.443 105.973 236.071 107.053 236.071 107.053V107.045Z" stroke="#5E11C9" stroke-miterlimit="10"/>
<path d="M352.164 67.6702C352.344 65.4471 353.448 64.3904 353.894 64.046C354.372 63.7955 354.912 63.6233 355.515 63.5606C360.431 63.0284 362.78 68.6565 361.246 71.4511" stroke="#5E11C9" stroke-miterlimit="10"/>
<path d="M351.727 66.2465C352.259 65.3385 352.964 64.54 353.895 64.0469" stroke="#5E11C9" stroke-miterlimit="10"/>
<path d="M356.51 77.5726C356.377 77.7291 356.307 77.8153 356.307 77.8153L344.156 79.4982C344.156 79.4982 344.156 70.2301 346.685 67.4043C347.836 67.8974 349.041 68.3671 350.302 68.8055C350.349 69.5021 350.325 70.1753 350.302 70.4571C350.145 71.3965 350.114 72.0383 350.114 72.0383L350.294 70.598C350.294 70.598 350.294 70.5511 350.302 70.465C350.38 70.0109 350.482 69.4787 350.639 68.9307C351.155 69.1108 351.68 69.283 352.212 69.4474C352.259 69.8622 352.345 70.3084 352.455 70.7859C352.745 71.9679 353.363 72.6489 354.146 73.0012C354.85 74.6137 355.633 76.1636 356.51 77.5804V77.5726Z" stroke="#5E11C9" stroke-miterlimit="10"/>
<path d="M346.684 67.4054C347.044 66.9984 347.466 66.7244 347.944 66.6305C349.165 66.3956 349.753 66.6931 349.98 67.1941C350.167 67.6089 350.254 68.2195 350.293 68.8066" stroke="#5E11C9" stroke-miterlimit="10"/>
<path d="M354.085 63.9219C354.085 63.9219 354.013 63.9614 353.902 64.0483" stroke="#5E11C9" stroke-miterlimit="10"/>
<path d="M335.709 33.4801C336.006 43.9693 331.81 52.9635 325.351 54.0046C318.016 55.1944 306.961 48.8226 303.712 37.0652C300.456 25.3001 304.871 13.8245 313.569 11.4214C318.775 9.98107 324.796 12.0241 329.203 16.486" stroke="#5E11C9" stroke-miterlimit="10"/>
<path d="M328.037 52.7977C328.037 52.7977 324.31 60.015 326.714 60.015C329.117 60.015 328.757 56.0463 329.963 56.649C329.963 56.649 330.808 57.1265 332.131 57.4944C333.455 57.8623 333.932 56.7743 332.977 54.966C332.022 53.1578 330.213 51.3574 330.213 51.3574" stroke="#5E11C9" stroke-miterlimit="10"/>
<path d="M329.219 16.4844C332.178 19.4668 334.417 23.5294 335.216 28.3591C335.505 30.0891 335.662 31.8034 335.709 33.4785" stroke="#5E11C9" stroke-miterlimit="10"/>
<path d="M347.264 39.8121C344.336 40.18 339.608 37.6203 335.709 33.4872C335.662 31.8121 335.497 30.0978 335.216 28.3679C334.409 23.5381 332.178 19.4755 329.219 16.4931C330.182 7.63205 337.557 0.712285 345.824 0.407001C355.375 0.0547506 363.447 8.59487 363.838 19.4755C364.237 30.3561 355.821 38.724 347.264 39.8121Z" stroke="#5E11C9" stroke-miterlimit="10"/>
<path d="M345.477 39.6877L345.117 40.5331L343.911 42.4588C343.911 42.4588 342.831 44.8619 344.757 43.539C346.683 42.2161 347.16 40.1731 347.763 41.2533C348.366 42.3335 349.329 44.3844 349.329 44.3844C349.329 44.3844 349.446 45.7073 350.292 44.7445C351.137 43.7817 349.932 40.8932 349.086 39.5703" stroke="#5E11C9" stroke-miterlimit="10"/>
<path d="M356.512 77.5742C357.866 79.7972 359.432 81.7385 361.24 83.2337C373.751 93.5742 390.113 77.6994 390.113 77.6994C390.113 77.6994 396.674 71.3432 398.889 64.4548C399.633 62.1612 399.891 59.8051 399.257 57.6055" stroke="#5E11C9" stroke-miterlimit="10"/>
<path d="M347.766 41.2441C347.766 41.2441 348.063 52.6101 352.158 66.7471" stroke="#5E11C9" stroke-miterlimit="10"/>
<path d="M361.253 71.4512C361.206 71.5294 361.167 71.6077 361.12 71.6782C361.12 71.6782 356.744 74.1439 354.152 72.9854" stroke="#5E11C9" stroke-miterlimit="10"/>
<path d="M361.12 71.6797C359.601 73.9576 357.229 76.7521 356.517 77.574C355.64 76.1494 354.857 74.6073 354.152 72.9948C356.744 74.1533 361.12 71.6875 361.12 71.6875V71.6797Z" stroke="#5E11C9" stroke-miterlimit="10"/>
<path d="M352.163 67.6708C352.116 68.1952 352.132 68.7823 352.21 69.4398C351.678 69.2754 351.153 69.1032 350.637 68.9232C350.809 68.2892 351.036 67.616 351.341 66.9741C351.459 66.7236 351.584 66.4809 351.725 66.2461" stroke="#5E11C9" stroke-miterlimit="10"/>
<path d="M350.637 68.9237C350.52 68.8847 350.41 68.8457 350.293 68.8066" stroke="#5E11C9" stroke-miterlimit="10"/>
<path d="M329.961 56.6504C329.961 56.6504 336.114 62.9048 346.683 67.4058" stroke="#5E11C9" stroke-miterlimit="10"/>
<path d="M361.121 71.6791C361.121 71.6791 368.339 67.8905 379.981 70.5989C392.444 73.4952 399.467 83.8592 399.467 83.8592" stroke="#5E11C9" stroke-miterlimit="10"/>
<path d="M238.421 69.9648H238.413C237.717 69.9648 237.152 70.5291 237.152 71.2251V75.0216C237.152 75.7176 237.717 76.2819 238.413 76.2819H238.421C239.117 76.2819 239.681 75.7176 239.681 75.0216V71.2251C239.681 70.5291 239.117 69.9648 238.421 69.9648Z" stroke="#5E11C9" stroke-miterlimit="10"/>
<path d="M229.867 88.6259L229.86 88.6301C229.273 89.0037 229.1 89.7827 229.474 90.3699L231.512 93.5729C231.886 94.1601 232.665 94.3332 233.252 93.9596L233.259 93.9554C233.846 93.5817 234.019 92.8027 233.645 92.2155L231.607 89.0125C231.233 88.4253 230.454 88.2522 229.867 88.6259Z" stroke="#5E11C9" stroke-miterlimit="10"/>
<path d="M252.016 78.4643L252.018 78.4719C252.181 79.1487 252.861 79.5654 253.538 79.4026L257.23 78.5151C257.907 78.3524 258.323 77.6718 258.161 76.9951L258.159 76.9875C257.996 76.3107 257.315 75.8941 256.639 76.0568L252.947 76.9443C252.27 77.1071 251.853 77.7876 252.016 78.4643Z" stroke="#5E11C9" stroke-miterlimit="10"/>
<path d="M246.33 96.7923L246.336 96.7969C246.901 97.2036 247.689 97.0753 248.096 96.5104L250.314 93.4293C250.721 92.8644 250.593 92.0768 250.028 91.6702L250.021 91.6656C249.456 91.2589 248.669 91.3872 248.262 91.9521L246.044 95.0332C245.637 95.5981 245.765 96.3857 246.33 96.7923Z" stroke="#5E11C9" stroke-miterlimit="10"/>
<path d="M241.016 86.2483L241.008 86.2495C240.32 86.3522 239.845 86.9936 239.948 87.682L240.508 91.4369C240.611 92.1253 241.253 92.6 241.941 92.4973L241.949 92.4961C242.637 92.3934 243.112 91.752 243.009 91.0636L242.449 87.3087C242.346 86.6203 241.705 86.1456 241.016 86.2483Z" stroke="#5E11C9" stroke-miterlimit="10"/>
<path d="M247.077 82.5677C247.808 82.5677 248.4 81.9754 248.4 81.2448C248.4 80.5142 247.808 79.9219 247.077 79.9219C246.346 79.9219 245.754 80.5142 245.754 81.2448C245.754 81.9754 246.346 82.5677 247.077 82.5677Z" stroke="#5E11C9" stroke-miterlimit="10"/>
<path d="M235.163 83.1712C235.894 83.1712 236.486 82.5789 236.486 81.8483C236.486 81.1177 235.894 80.5254 235.163 80.5254C234.432 80.5254 233.84 81.1177 233.84 81.8483C233.84 82.5789 234.432 83.1712 235.163 83.1712Z" stroke="#5E11C9" stroke-miterlimit="10"/>
<path d="M254.413 70.3567C255.144 70.3567 255.736 69.7645 255.736 69.0338C255.736 68.3032 255.144 67.7109 254.413 67.7109C253.682 67.7109 253.09 68.3032 253.09 69.0338C253.09 69.7645 253.682 70.3567 254.413 70.3567Z" stroke="#5E11C9" stroke-miterlimit="10"/>
<path d="M260.065 91.7649C260.796 91.7649 261.388 91.1727 261.388 90.442C261.388 89.7114 260.796 89.1191 260.065 89.1191C259.335 89.1191 258.742 89.7114 258.742 90.442C258.742 91.1727 259.335 91.7649 260.065 91.7649Z" stroke="#5E11C9" stroke-miterlimit="10"/>
<path d="M163.234 86.6934C163.234 86.6934 163.297 87.0926 163.297 88.8851C163.297 91.0769 166.93 91.2961 168.347 90.8499C169.513 90.482 170.68 90.1611 171.901 89.9732C175.776 89.3939 179.777 90.0123 183.198 91.9615C186.619 93.9106 189.391 97.1435 191.371 100.627L199.138 115.758" stroke="#5E11C9" stroke-miterlimit="10"/>
<path d="M186.298 108.244L193.469 163.344C193.469 163.344 175.4 183.352 142.989 172.902L142.84 165.285" stroke="#5E11C9" stroke-miterlimit="10"/>
<path d="M205.118 86.2938C205.118 86.2938 204.672 77.0335 205.713 75.8437C206.755 74.6538 207.953 80.1724 207.953 80.1724C207.953 80.1724 210.489 63.147 214.372 62.9983C218.255 62.8495 222.882 70.3173 218.85 85.9963L218.553 87.0452" stroke="#5E11C9" stroke-miterlimit="10"/>
<path d="M155.082 78.8339C155.082 78.8339 159.036 87.601 168.227 87.7967C177.934 87.9924 179.579 67.8359 176.588 60.8691" stroke="#5E11C9" stroke-miterlimit="10"/>
<path d="M146.457 62.1689C148.062 56.298 152.642 49.4722 165.387 50.6072C165.387 50.6072 171.361 50.6072 176.59 54.3411C180.34 57.0182 177.193 60.8695 174.39 62.7168C172.582 63.9066 169.959 63.5779 167.885 63.3117C165.356 62.983 162.874 62.2472 160.612 61.0652C154.341 57.7775 154.936 66.1454 154.936 66.1454" stroke="#5E11C9" stroke-miterlimit="10"/>
<path d="M145.807 65.5586C145.502 68.1418 145.682 70.0204 145.682 70.0204C145.533 78.9832 150.911 78.8267 150.911 78.8267C152.853 85.5429 148.821 89.4255 148.821 89.4255C148.821 89.4255 162.412 106.146 164.056 90.4744" stroke="#5E11C9" stroke-miterlimit="10"/>
<path d="M152.1 74.6543C152.1 74.6543 154.989 78.4899 150.902 78.8343" stroke="#5E11C9" stroke-miterlimit="10"/>
<path d="M153.595 69.5733C153.595 69.5733 153 66.5831 150.307 68.9784C147.614 71.3737 152.249 75.2485 153.595 75.2485" stroke="#5E11C9" stroke-miterlimit="10"/>
<path d="M153.346 68.7294L155.632 69.4261L158.372 69.2304L156.532 67.0386L143.121 60.8468C142.55 60.5807 141.877 60.8312 141.61 61.3948L141.297 62.0601C141.023 62.6394 141.282 63.3282 141.861 63.5866L151.749 68.0406" stroke="#5E11C9" stroke-miterlimit="10"/>
<path d="M148.813 89.4336C148.813 89.4336 148.343 90.1537 147.349 91.1009C145.908 92.4864 143.356 94.3729 139.551 95.2575C133.132 96.7526 128.497 101.974 125.96 117.802C123.424 133.629 117.897 156.322 124.167 167.97C130.438 179.618 166.882 147.516 166.882 147.516L160.76 129.449C157.526 132.596 154.293 135.751 151.06 138.897C148.578 141.316 146.088 143.735 143.607 146.154C142.017 147.704 137.508 149.692 137.351 152.197C137.289 153.136 137.97 153.668 138.455 153.582C140.859 153.144 142.33 150.443 143.168 148.385C144.202 145.833 144.843 143.117 145.399 140.424C146.448 135.328 147.13 130.154 147.623 124.98C147.678 124.432 147.725 123.876 147.771 123.328" stroke="#5E11C9" stroke-miterlimit="10"/>
<path d="M199.143 115.767L200.936 121.395C201.178 122.091 201.351 123.156 200.701 123.821C200.051 124.487 198.54 124.463 198.055 122.96C197.679 121.794 198.125 119.774 198.344 118.694C198.736 116.776 199.456 114.898 199.84 112.972C200.991 107.172 202.134 101.363 203.284 95.563C203.895 92.4788 204.506 89.3947 205.116 86.3105L220.751 86.9055C219.811 97.2381 218.864 107.571 217.924 117.903C217.204 125.786 217.791 133.903 210.26 138.898C204.083 142.992 196.88 138.217 193.232 133.05C192.559 132.095 191.917 131.125 191.259 130.17L188.699 126.436" stroke="#5E11C9" stroke-miterlimit="10"/>
<path d="M147.355 91.0997C147.355 91.0997 150.464 101.675 155.239 106.45L158.825 97.3384L167.483 103.608C167.483 103.608 169.409 96.2425 167.288 91.0684" stroke="#5E11C9" stroke-miterlimit="10"/>
<path d="M164.392 69.573C164.777 69.573 165.089 69.2611 165.089 68.8764C165.089 68.4916 164.777 68.1797 164.392 68.1797C164.007 68.1797 163.695 68.4916 163.695 68.8764C163.695 69.2611 164.007 69.573 164.392 69.573Z" fill="#5E11C9"/>
<path d="M172.47 68.0945C172.855 68.0945 173.167 67.7826 173.167 67.3978C173.167 67.0131 172.855 66.7012 172.47 66.7012C172.085 66.7012 171.773 67.0131 171.773 67.3978C171.773 67.7826 172.085 68.0945 172.47 68.0945Z" fill="#5E11C9"/>
<path d="M169.974 70.168L171.172 74.6455C171.172 74.6455 170.076 75.5378 169.184 75.0447" stroke="#5E11C9" stroke-miterlimit="10"/>
<path d="M163.797 75.9453C163.797 75.9453 166.584 78.231 170.569 78.0353C170.569 78.0353 170.162 81.7379 165.887 79.7261C164.196 78.9277 163.797 75.9453 163.797 75.9453Z" stroke="#5E11C9" stroke-miterlimit="10"/>
<path d="M162.035 132.948L168.275 125.12C168.275 125.12 170.663 123.727 167.28 130.294C167.28 130.294 177.638 122.529 179.627 122.529C181.459 122.529 181.247 126.913 181.2 127.938C181.012 131.829 180.175 136.431 177.09 139.101C174.005 141.77 170.005 144.494 166.294 145.692" stroke="#5E11C9" stroke-miterlimit="10"/>
<path d="M168.478 112.047L164.751 112.728C164.274 112.814 163.945 113.252 164.008 113.738L165.824 128.11" stroke="#5E11C9" stroke-miterlimit="10"/>
<path d="M168.227 144.932L169.103 150.458C169.182 151.053 169.863 151.382 170.426 151.108L186.781 143.061C187.118 142.897 187.313 142.545 187.259 142.184L182.694 110.49C182.624 110.004 182.146 109.676 181.637 109.762L178.24 110.357" stroke="#5E11C9" stroke-miterlimit="10"/>
<path d="M169.01 114.146L178.17 112.22C178.71 112.111 178.953 111.476 178.632 111.03L177.489 109.441C176.957 108.705 176.064 108.33 175.172 108.471L170.709 109.159C169.605 109.332 168.728 110.177 168.533 111.281L168.165 113.316C168.071 113.817 168.525 114.255 169.026 114.154L169.01 114.146Z" stroke="#5E11C9" stroke-miterlimit="10"/>
<path d="M169.012 118.553L179.166 115.5" stroke="#5E11C9" stroke-miterlimit="10"/>
<path d="M170.199 122.928L178.764 119.875" stroke="#5E11C9" stroke-miterlimit="10"/>
<path d="M114.746 40.0234C117.651 40.7906 121.197 42.2074 124.853 44.0078" stroke="#5E11C9" stroke-miterlimit="10"/>
<path d="M193.469 163.342L197.14 209.925" stroke="#5E11C9" stroke-miterlimit="10"/>
<path d="M142.988 172.9L139.496 209.644" stroke="#5E11C9" stroke-miterlimit="10"/>
<path d="M171.75 190.787L168.148 209.785" stroke="#5E11C9" stroke-miterlimit="10"/>
<path d="M170.551 197.652L171.451 209.504" stroke="#5E11C9" stroke-miterlimit="10"/>
<path d="M287.133 177.77L283.43 209.362" stroke="#5E11C9" stroke-miterlimit="10"/>
<path d="M331.707 170.012C331.707 170.012 341.994 182.442 344.084 196.658C346.175 210.881 344.084 209.761 344.084 209.761" stroke="#5E11C9" stroke-miterlimit="10"/>
<path d="M312.726 199.443L311.23 210.066" stroke="#5E11C9" stroke-miterlimit="10"/>
<path d="M324.672 180.635C324.672 180.635 332.736 188.697 336.619 185.715" stroke="#5E11C9" stroke-miterlimit="10"/>
<path d="M43.7226 45.9253C43.7226 45.9253 52.9788 62.574 76.9101 60.8211C97.6073 59.3063 105.626 45.4637 105.626 45.4637C108.163 41.7271 99.7843 40.2195 104.334 45.0237C108.884 49.8278 107.192 61.3765 107.192 61.3765C104.334 61.9825 92.1961 53.99 93.6683 52.4174C94.8273 51.1839 95.7122 53.2542 95.7122 53.2542C99.3928 64.0888 93.0889 70.7829 93.0889 70.7829C93.0889 70.7829 89.7451 68.7631 84.052 63.7137C78.3589 58.6643 82.9165 56.1829 82.8617 58.6787C82.8068 61.1746 80.2618 65.5387 80.2618 65.5387C72.8459 77.2677 72.008 74.7791 72.008 74.7791C72.008 74.7791 68.9461 72.7305 66.448 67.104C63.4096 60.2729 66.7847 56.9475 68.022 59.4866C68.9617 61.4198 62.4464 68.4096 59.7134 71.937C56.9804 75.4644 55.8528 74.2958 55.8528 74.2958C49.5097 64.8967 52.2114 52.5184 54.1769 53.0234C56.1425 53.5283 54.8347 54.8989 54.8347 54.8989C54.8347 54.8989 46.1032 63.2592 43.6287 65.38C41.1541 67.5007 40.465 66.4764 40.465 66.4764C40.465 66.4764 36.0718 59.8545 46.0328 45.2329C46.0328 45.2329 46.4165 44.2374 44.6937 43.9777C42.9709 43.718 43.7305 45.9398 43.7305 45.9398L43.7226 45.9253Z" stroke="#5E11C9" stroke-miterlimit="10"/>
<path d="M60.2406 78.7011C60.2406 78.7011 56.8586 77.3077 51.7776 79.3977C46.6967 81.4878 43.2128 86.8654 42.2186 91.7422C41.2243 96.6189 41.0208 101.002 44.8099 106.075C48.5991 111.147 52.5762 107.272 52.5762 107.272C52.5762 107.272 53.4687 105.879 51.2844 105.48C49.1002 105.081 40.8329 109.558 43.8157 118.224C46.8063 126.881 53.6722 124.392 53.6722 124.392C53.6722 124.392 62.4327 118.419 59.5439 107.366" stroke="#5E11C9" stroke-miterlimit="10"/>
<path d="M65.7165 85.761C63.7201 93.3696 59.7039 95.5771 57.9737 96.1876C57.5353 96.3442 57.3005 96.8217 57.4649 97.2601L58.3495 99.6945C58.3495 99.6945 56.2592 97.307 54.9675 97.5027C53.6757 97.6984 54.4664 101.581 55.766 102.583C57.0656 103.585 57.8563 103.475 57.8563 103.475L58.9523 106.364C60.3224 108.877 61.4654 110.262 63.8297 111.937C67.3997 114.466 72.0422 112.939 75.2755 110.442C81.2489 105.847 85.8758 94.9587 80.2547 89.3383C79.3622 88.446 76.6691 87.6475 76.6691 87.6475C73.3496 87.2483 58.2086 85.9332 59.9779 79.3579C60.111 78.8648 60.3537 78.4499 60.6747 78.1055C61.7786 76.9 63.7984 76.4616 65.3329 76.0624C68.4487 75.2483 71.7447 75.0526 74.9154 75.6867C82.5329 77.2053 87.8252 83.3422 91.1055 90.0428C91.1055 90.0428 94.4875 96.0154 91.2073 102.583C87.9191 109.15 82.7443 113.432 87.1284 116.822C91.5126 120.211 87.6295 124.689 85.5392 125.98C83.6524 127.147 81.202 126.779 78.9238 126.614C72.097 126.129 72.0187 113.957 72.6998 112.039" stroke="#5E11C9" stroke-miterlimit="10"/>
<path d="M65.1211 104.479C65.1211 104.479 69.8028 107.469 74.3826 105.574C74.3826 105.574 73.9834 108.165 70.4995 108.862C67.0157 109.559 65.1211 104.479 65.1211 104.479Z" stroke="#5E11C9" stroke-miterlimit="10"/>
<path d="M71.8921 99.0059L72.1896 102.888C72.1896 102.888 70.9918 103.585 69.3008 103.186" stroke="#5E11C9" stroke-miterlimit="10"/>
<path d="M66.0133 98.3017C66.424 98.3017 66.757 97.9688 66.757 97.5581C66.757 97.1474 66.424 96.8145 66.0133 96.8145C65.6025 96.8145 65.2695 97.1474 65.2695 97.5581C65.2695 97.9688 65.6025 98.3017 66.0133 98.3017Z" fill="#5E11C9"/>
<path d="M74.6305 97.9658C75.0412 97.9658 75.3742 97.6329 75.3742 97.2222C75.3742 96.8115 75.0412 96.4785 74.6305 96.4785C74.2197 96.4785 73.8867 96.8115 73.8867 97.2222C73.8867 97.6329 74.2197 97.9658 74.6305 97.9658Z" fill="#5E11C9"/>
<path d="M89.4141 118.82C115.101 101.7 114.106 58.6943 114.106 58.6943C114.106 58.6943 123.462 54.9135 131.627 57.4966C131.627 57.4966 129.341 120.612 98.2763 142.311" stroke="#5E11C9" stroke-miterlimit="10"/>
<path d="M43.8174 120.009C24.5036 111.25 25.7014 70.2402 25.7014 70.2402L11.5625 71.4379C1.80774 97.1209 14.5531 128.776 32.4734 141.919C50.3936 155.062 56.9621 187.908 56.9621 187.908C94.5954 191.688 99.1753 176.362 99.1753 176.362C102.761 141.818 93.6011 130.076 93.6011 130.076" stroke="#5E11C9" stroke-miterlimit="10"/>
<path d="M58.4492 118.912C58.4492 118.912 59.3339 119.131 60.2812 119.28C63.1387 119.734 69.3 120.501 72.8778 119.311" stroke="#5E11C9" stroke-miterlimit="10"/>
<path d="M60.2821 119.289L59.8906 123.79" stroke="#5E11C9" stroke-miterlimit="10"/>
<path d="M64.2739 119.859L64.0703 124.039" stroke="#5E11C9" stroke-miterlimit="10"/>
<path d="M68.4062 120.008L68.7038 123.64" stroke="#5E11C9" stroke-miterlimit="10"/>
<path d="M71.4922 119.812C71.4922 119.812 71.6409 121.707 71.8915 122.951" stroke="#5E11C9" stroke-miterlimit="10"/>
<path d="M118.434 57.3931L116.492 50.1289" stroke="#5E11C9" stroke-miterlimit="10"/>
<path d="M131.625 57.4957C131.625 57.4957 135.805 39.3822 122.661 35.9927C122.661 35.9927 115.889 30.8186 115.294 34.4037C114.699 37.9888 113.102 45.754 114.096 47.9458C115.09 50.1375 118.48 51.9301 121.064 49.7383C123.647 47.5465 125.244 42.7716 125.244 42.7716" stroke="#5E11C9" stroke-miterlimit="10"/>
<path d="M12.3542 71.1638C12.3542 71.1638 6.72525 52.1658 19.7916 48.7294C29.061 46.2949 25.0996 58.5845 25.0996 58.5845C24.074 60.4319 19.635 66.9368 18.4607 56.2988" stroke="#5E11C9" stroke-miterlimit="10"/>
<path d="M105.289 46.9442C105.289 46.9442 107.763 43.5782 113.815 42.5215" stroke="#5E11C9" stroke-miterlimit="10"/>
<path d="M25.6942 70.2386C25.6942 70.2386 30.0235 62.4735 28.8336 60.3835C27.9802 58.8883 26.4379 58.6144 25.6237 58.5831C25.3106 58.5674 25.0131 58.7318 24.8487 59.0058L24.4807 59.5928C24.3007 59.8825 24.4807 60.2582 24.6216 60.5244C24.8487 60.9471 25.2636 61.1349 25.4202 61.6202C25.5454 62.0273 25.6002 62.63 25.3419 62.9979L24.3633 64.4226" stroke="#5E11C9" stroke-miterlimit="10"/>
<path d="M24.6133 49.1508C25.0595 48.6968 25.5136 48.2663 25.9833 47.8671C29.0444 45.2761 32.7162 44.008 37.6405 44.7046C37.6405 44.7046 42.4866 45.7536 44.4751 48.008" stroke="#5E11C9" stroke-miterlimit="10"/>
<path d="M0.304688 57.2461C0.304688 57.2461 11.5548 71.43 16.8784 61.1287C17.4342 60.0563 17.9823 59.0073 18.5381 57.9976" stroke="#5E11C9" stroke-miterlimit="10"/>
<path d="M44.985 47.4368C44.985 47.4368 35.2381 67.9926 32.6624 66.1531C27.0412 62.1296 30.1258 43.0611 30.4233 42.3096C30.4233 42.3096 31.214 40.1413 32.4666 40.6658C34.1107 41.3625 29.9771 45.5425 29.9771 45.5425" stroke="#5E11C9" stroke-miterlimit="10"/>
<path d="M99.121 176.354L99.7708 187.265C99.7708 187.265 78.7738 199.203 56.1641 194.608" stroke="#5E11C9" stroke-miterlimit="10"/>
<path d="M50.4883 209.996C50.4883 209.996 57.456 203.726 56.9628 187.898" stroke="#5E11C9" stroke-miterlimit="10"/>
<path d="M99.7617 187.266C99.7617 187.266 106.283 209.497 107.677 209.497" stroke="#5E11C9" stroke-miterlimit="10"/>
</g>
<defs>
<clipPath id="clip0_3415_52668">
<rect width="400" height="210.286" fill="white"/>
</clipPath>
</defs>
</svg>
