<svg width="332" height="199" viewBox="0 0 332 199" fill="none" xmlns="http://www.w3.org/2000/svg">
<path d="M291.501 51.5979C290.122 52.4173 284.981 55.0951 282.673 54.0709C281.709 53.6463 284.821 56.3091 286.8 56.2242C290.007 56.0843 292.51 50.9984 291.501 51.5979Z" stroke="#5E11C9" stroke-miterlimit="10"/>
<path d="M245.238 44.4224C243.799 45.1318 238.473 47.415 236.245 46.2209C235.316 45.7214 238.218 48.619 240.197 48.6839C243.404 48.7889 246.287 43.9078 245.238 44.4274V44.4224Z" stroke="#5E11C9" stroke-miterlimit="10"/>
<path d="M85.0765 56.5429C86.5752 57.0425 92.0708 58.5413 94.0692 57.0425C94.9035 56.418 92.4854 59.6953 90.572 60.0401C87.4695 60.5996 83.9824 56.1782 85.0765 56.5429Z" stroke="#5E11C9" stroke-miterlimit="10"/>
<path d="M0.894531 179.694C0.894531 179.694 8.88803 139.727 13.884 126.737C18.8799 113.748 27.8726 99.2598 32.8685 94.2638C37.8645 89.2679 41.3616 88.2687 44.3592 87.2695" stroke="#5E11C9" stroke-miterlimit="10"/>
<path d="M101.314 36.7207C101.314 36.7207 102.453 54.2953 95.3891 63.288C88.3248 72.2806 84.3131 70.8418 84.3131 70.8418C84.3131 70.8418 73.8366 66.7851 69.8398 60.2904" stroke="#5E11C9" stroke-miterlimit="10"/>
<path d="M94.3183 46.3027C94.3183 46.3027 95.3175 52.2979 94.8179 53.297C94.3183 54.2962 91.8203 52.2979 91.8203 52.2979" stroke="#5E11C9" stroke-miterlimit="10"/>
<path d="M94.8177 31.3148C94.8177 31.3148 97.7503 34.9568 101.382 36.7004C106.808 39.3083 105.309 29.816 99.8136 24.8201C96.5063 21.8125 89.3222 18.825 79.3303 19.3246C71.7814 19.7043 61.3449 24.3205 53.851 31.8144C46.3571 39.3083 44.3587 47.8014 44.3587 52.7973C44.3587 57.7933 48.3555 66.7859 44.3587 69.2839C40.362 71.7819 36.3652 64.288 34.3669 61.2904C32.3685 58.2929 29.3709 73.2107 34.3669 79.2758C39.3628 85.3408 45.3579 87.7689 48.8551 89.7673C52.3522 91.7656 61.3449 87.7689 62.3441 77.777C63.3433 67.7851 63.2733 65.2022 65.3417 59.292C68.8388 49.3002 72.246 47.6215 78.3311 45.3034C88.8226 41.3067 94.9576 35.4265 94.8177 31.3148Z" stroke="#5E11C9" stroke-miterlimit="10"/>
<path d="M79.831 69.2832C77.8326 76.7771 77.8326 78.2759 78.3322 80.7739C78.8318 83.2718 77.8326 84.271 88.8237 85.2702C99.8148 86.2694 110.306 103.755 115.302 108.751C120.298 113.747 124.794 124.238 138.283 129.234C151.772 134.23 166.76 131.732 169.258 131.732C171.756 131.732 164.262 154.714 162.264 155.213C160.266 155.713 160.565 159.71 138.933 155.213C117.301 150.717 99.8148 130.733 94.8188 126.237" stroke="#5E11C9" stroke-miterlimit="10"/>
<path d="M88.3219 108.752C88.3219 108.752 95.5959 122.791 94.9565 132.258C94.317 141.725 91.784 147.146 89.5509 150.178C87.3177 153.211 82.3267 160.705 83.3259 171.696C84.3251 182.687 86.8231 193.178 86.8231 193.178" stroke="#5E11C9" stroke-miterlimit="10"/>
<path d="M37.8649 125.738C37.8649 125.738 16.9619 175.698 17.4215 179.694" stroke="#5E11C9" stroke-miterlimit="10"/>
<path d="M32.3679 140.227C32.3679 140.227 34.8958 166.705 27.6367 179.694C20.3776 192.684 22.6258 189.182 22.6258 189.182" stroke="#5E11C9" stroke-miterlimit="10"/>
<path d="M53.8516 89.7674C53.8516 89.7674 68.8394 125.738 83.8272 84.7715" stroke="#5E11C9" stroke-miterlimit="10"/>
<path d="M260.184 39.8074C257.252 44.5985 259.525 48.7051 262.682 48.3005C265.07 47.9957 267.218 46.0323 268.178 44.8033C269.502 43.1097 271.67 39.5576 271.675 28.3167C271.675 21.802 271.675 18.5447 270.676 15.8269C268.323 9.4371 262.742 3.87163 255.688 1.83828C251.127 0.52435 247.32 1.08389 245.696 1.33869C242.823 1.79332 240.69 2.08308 229.709 8.83259C221.596 13.8185 219.417 16.7711 219.217 19.3241C219.068 21.2425 220.551 22.6264 222.215 23.3208C223.774 23.9703 226.931 23.3008 228.21 22.8212C232.207 21.3224 235.579 18.5547 244.197 16.8261C246.405 16.3814 251.241 15.2374 252.69 15.8269C255.663 17.0309 257.866 20.8178 257.686 24.32C257.476 28.4167 254.074 30.8447 255.188 32.3135C255.638 32.903 256.662 33.1428 257.187 32.8131C257.726 32.4734 257.496 31.679 257.686 30.3151C257.716 30.1103 258.341 26.2584 260.684 25.3192C263.182 24.32 264.471 27.8621 263.681 31.8139C263.182 34.3119 263.182 36.3102 261.183 39.3078C261.028 39.5376 260.859 39.6625 260.684 39.7075C260.014 39.8773 259.295 38.9531 259.185 38.8082" stroke="#5E11C9" stroke-miterlimit="10"/>
<path d="M229.574 22.2559L230.209 51.7968C230.209 51.7968 230.708 59.7903 241.2 58.7911C251.691 57.7919 258.686 52.2964 260.184 50.7976C261.683 49.2989 261.683 48.7993 261.683 48.7993" stroke="#5E11C9" stroke-miterlimit="10"/>
<path d="M257.687 52.7969C257.187 55.7944 257.402 63.6131 258.186 64.7871C262.183 70.7822 264.696 71.5766 273.174 72.281C279.169 72.7806 282.666 75.2786 282.666 75.2786" stroke="#5E11C9" stroke-miterlimit="10"/>
<path d="M277.67 33.3125C275.971 42.3751 275.352 47.5259 276.171 51.2979C276.741 53.9307 280.463 60.99 282.166 62.7885C284.474 65.2265 297.099 59.771 302.15 53.2962C302.785 52.4869 303.294 51.7925 303.649 51.2979" stroke="#5E11C9" stroke-miterlimit="10"/>
<path d="M303.151 43.8046C303.175 45.0536 303.705 66.626 311.144 68.2847C313.337 68.7743 316.779 67.7201 318.138 65.2871C319.647 62.5793 318.393 58.4827 317.139 58.2928C316.11 58.1379 314.371 60.506 314.641 62.7892C314.896 64.9724 316.914 66.4512 318.638 66.7859C321.97 67.4304 324.998 63.9382 326.132 61.2904C326.352 60.7808 327.845 57.1587 326.132 54.7957C325.228 53.5467 324.128 53.6216 322.635 52.7973C318.978 50.7739 317.894 46.0877 317.139 42.8054C315.755 36.8053 317.389 35.2915 316.64 31.3148C315.186 23.5811 306.703 16.9814 298.155 15.3278C290.776 13.9039 282.282 16.7116 278.171 20.8233C276.672 22.3221 274.814 24.4104 272.675 27.8176C271.261 30.0658 272.086 31.8893 272.675 32.8135C272.985 33.2982 273.769 33.3131 274.174 33.3131C282.607 33.3381 286.979 33.5629 289.162 31.8144C292.04 29.5062 293.249 25.8042 296.156 25.8192C297.855 25.8292 299.379 27.1032 300.153 28.3172C302.546 32.0841 299.668 38.3141 299.653 38.3091C299.643 38.3091 300.708 35.3165 301.652 33.8127C301.727 33.6928 301.877 33.468 302.151 33.3131C302.971 32.8585 304.16 33.468 304.649 33.8127C306.448 35.0867 306.663 38.454 305.648 40.807C305.424 41.3266 304.499 43.4699 302.651 43.8046C302.246 43.8795 301.897 43.8446 301.652 43.8046" stroke="#5E11C9" stroke-miterlimit="10"/>
<path d="M312.797 68.3984C313.142 73.7791 321.72 74.9531 324.632 76.277C330.128 78.775 332.126 86.7685 330.627 91.7644C329.129 96.7604 316.139 133.73 314.141 143.722C312.142 153.714 314.141 173.698 314.141 173.698V187.187" stroke="#5E11C9" stroke-miterlimit="10"/>
<path d="M303.65 91.7656C282.667 114.247 262.529 122.511 248.695 128.236C234.207 134.231 212.999 133.037 211.725 134.731C210.226 136.729 215.722 154.215 219.719 157.212C221.982 158.906 262.054 152.546 278.171 142.225C295.452 131.159 307.492 120.807 315.141 111.749" stroke="#5E11C9" stroke-miterlimit="10"/>
<path d="M289.729 62.4277C289.729 62.4277 293.156 65.785 292.157 70.2813C291.158 74.7777 290.798 73.7985 289.729 74.0383C288.66 74.2781 277.169 78.2748 277.169 78.2748C277.169 78.2748 267.677 80.7728 265.179 88.2667C262.681 95.7606 254.688 125.736 254.688 125.736" stroke="#5E11C9" stroke-miterlimit="10"/>
<path d="M251.191 152.217L241.199 191.685" stroke="#5E11C9" stroke-miterlimit="10"/>
<path d="M276.17 99.2598C275.471 100.334 264.984 119.633 264.18 121.242" stroke="#5E11C9" stroke-miterlimit="10"/>
<path d="M269.675 146.221C270.49 149.948 272.673 151.716 271.174 160.709C268.566 176.371 266.678 182.691 264.18 189.685" stroke="#5E11C9" stroke-miterlimit="10"/>
<path d="M237.863 58.877C237.863 58.877 239.337 66.7855 235.026 69.2835C230.714 71.7814 212.224 78.2762 212.224 78.2762C212.224 78.2762 200.099 82.4128 197.916 94.0833C195.732 105.754 194.738 139.726 194.738 139.726" stroke="#5E11C9" stroke-miterlimit="10"/>
<path d="M220.217 132.731C219.718 126.237 220.717 107.252 220.717 107.252C220.717 107.252 219.218 129.734 218.219 133.231" stroke="#5E11C9" stroke-miterlimit="10"/>
<path d="M220.714 157.486C220.714 157.711 220.215 175.697 220.714 187.687" stroke="#5E11C9" stroke-miterlimit="10"/>
<path d="M218.219 156.533C218.219 156.533 214.217 180.274 211.469 189.476L208.727 198.679" stroke="#5E11C9" stroke-miterlimit="10"/>
<path d="M169.257 137.227C173.368 136.698 176.611 136.228 179.248 135.728C179.248 135.728 181.946 135.219 185.244 135.728C185.583 135.778 186.138 135.878 186.742 136.228C188.011 136.952 188.526 138.206 188.741 138.726C189.19 139.815 189.645 141.813 188.241 146.719C187.192 150.387 186.383 153.209 185.244 153.214C183.5 153.224 179.248 149.717 180.248 144.721C180.467 143.627 167.758 148.718 167.758 150.217C167.758 153.129 171.595 171.27 173.753 170.7C183.245 168.202 191.239 163.206 196.235 161.208C198.598 160.263 199.807 156.761 201.73 155.712C207.226 152.715 211.222 153.214 215.719 151.216" stroke="#5E11C9" stroke-miterlimit="10"/>
<path d="M195.182 161.654L196.056 167.025C196.056 167.025 196.736 168.204 192.239 168.704C187.743 169.203 180.249 173.699 180.249 173.699C180.249 173.699 176.832 176.222 175.293 170.717" stroke="#5E11C9" stroke-miterlimit="10"/>
<path d="M161.594 155.529L170.012 162.019" stroke="#5E11C9" stroke-miterlimit="10"/>
<path d="M189.188 141.371C189.188 141.371 191.825 139.227 193.534 139.727C195.243 140.227 195.053 142.015 198.395 141.371C201.737 140.726 211.769 138.588 211.769 138.588" stroke="#5E11C9" stroke-miterlimit="10"/>
<path d="M192.24 168.703L189.188 195.646" stroke="#5E11C9" stroke-miterlimit="10"/>
<path d="M239.201 34.8105C239.201 34.8105 237.513 40.2361 238.107 41.2703C238.702 42.3044 242.699 39.8065 242.199 39.8065" stroke="#5E11C9" stroke-miterlimit="10"/>
<path d="M282.167 43.3047L281.168 49.2998C281.168 49.2998 281.168 51.2982 283.666 48.8002" stroke="#5E11C9" stroke-miterlimit="10"/>
<path d="M90.5697 42.4661C90.9836 42.4661 91.3191 42.8016 91.3191 43.2155C91.3191 43.6293 90.9836 43.9648 90.5697 43.9648C90.1558 43.9648 89.8203 43.6293 89.8203 43.2155C89.8203 42.8016 90.1558 42.4661 90.5697 42.4661Z" fill="#5E11C9" stroke="#5E11C9" stroke-miterlimit="10"/>
<path d="M97.5658 44.9636C97.9797 44.9636 98.3152 44.6281 98.3152 44.2142C98.3152 43.8004 97.9797 43.4648 97.5658 43.4648C97.1519 43.4648 96.8164 43.8004 96.8164 44.2142C96.8164 44.6281 97.1519 44.9636 97.5658 44.9636Z" fill="#5E11C9" stroke="#5E11C9" stroke-miterlimit="10"/>
<path d="M234.953 31.8132C235.366 31.8132 235.702 31.4777 235.702 31.0638C235.702 30.65 235.366 30.3145 234.953 30.3145C234.539 30.3145 234.203 30.65 234.203 31.0638C234.203 31.4777 234.539 31.8132 234.953 31.8132Z" fill="#5E11C9" stroke="#5E11C9" stroke-miterlimit="10"/>
<path d="M244.445 30.8152C244.859 30.8152 245.194 30.4797 245.194 30.0658C245.194 29.6519 244.859 29.3164 244.445 29.3164C244.031 29.3164 243.695 29.6519 243.695 30.0658C243.695 30.4797 244.031 30.8152 244.445 30.8152Z" fill="#5E11C9" stroke="#5E11C9" stroke-miterlimit="10"/>
<path d="M279.417 40.8074C279.831 40.8074 280.167 40.4719 280.167 40.058C280.167 39.6441 279.831 39.3086 279.417 39.3086C279.003 39.3086 278.668 39.6441 278.668 40.058C278.668 40.4719 279.003 40.8074 279.417 40.8074Z" fill="#5E11C9" stroke="#5E11C9" stroke-miterlimit="10"/>
<path d="M286.913 39.3074C287.327 39.3074 287.663 38.9719 287.663 38.558C287.663 38.1441 287.327 37.8086 286.913 37.8086C286.5 37.8086 286.164 38.1441 286.164 38.558C286.164 38.9719 286.5 39.3074 286.913 39.3074Z" fill="#5E11C9" stroke="#5E11C9" stroke-miterlimit="10"/>
<path d="M163.756 40.8822L117.529 45.5634L111.809 14.7535L141.155 24.7553L144.277 25.8194L158.036 10.0723L163.756 40.8822Z" stroke="#5E11C9" stroke-linejoin="round"/>
<path d="M158.036 10.0723L144.277 25.8194L141.155 24.7553L111.809 14.7535L158.036 10.0723Z" stroke="#5E11C9" stroke-linejoin="round"/>
<path d="M141.155 24.7538L138.782 26.8171L111.809 14.752L141.155 24.7538Z" stroke="#5E11C9" stroke-linejoin="round"/>
<path d="M169.375 21.3223H175.44" stroke="#5E11C9" stroke-linejoin="round"/>
<path d="M172.41 18.5996V24.0452" stroke="#5E11C9" stroke-linejoin="round"/>
<path d="M237 68C240.167 70.8333 249 74.8 259 68" stroke="#5E11C9"/>
<path d="M290.5 74C293.5 78.5 307.5 83 316.5 73.5" stroke="#5E11C9"/>
<path d="M174.754 18.4894L177.182 16.0664V26.5778" stroke="#5E11C9" stroke-linejoin="round"/>
<path d="M174.755 29.8163C179.445 29.8163 183.248 26.0138 183.248 21.3232C183.248 16.6326 179.445 12.8301 174.755 12.8301C170.064 12.8301 166.262 16.6326 166.262 21.3232C166.262 26.0138 170.064 29.8163 174.755 29.8163Z" stroke="#5E11C9" stroke-linejoin="round"/>
</svg>
