<svg width="322" height="287" viewBox="0 0 322 287" fill="none" xmlns="http://www.w3.org/2000/svg">
<mask id="mask0_3415_52823" style="mask-type:alpha" maskUnits="userSpaceOnUse" x="0" y="0" width="322" height="287">
<rect width="321.068" height="287" fill="#D9D9D9"/>
</mask>
<g mask="url(#mask0_3415_52823)">
<path d="M161.644 102.846C161.644 102.846 157.413 104.962 152.117 102.846C146.822 100.73 142.591 89.0874 142.064 72.5003C141.538 55.9132 150.89 53.0957 150.89 53.0957C150.89 53.0957 164.824 65.6265 177.004 63.5106L178.769 63.1598C178.769 63.1598 179.47 68.3343 179.646 72.3907" stroke="#5E11C9" stroke-miterlimit="10"/>
<path d="M145.414 107.792C131.294 105.501 134.122 98.0901 134.122 98.0901C134.122 98.0901 135.767 96.5005 136.951 97.4433C138.135 98.3861 140.711 106.378 134.835 108.264C128.959 110.149 113.194 108.034 120.254 88.037C120.254 88.037 122.666 82.7418 124.957 81.514C127.248 80.2861 135.076 79.8695 133.892 72.0419C133.892 72.0419 126.36 51.1025 140.009 42.3978C153.658 33.6932 179.531 34.1646 187.293 53.92C187.293 53.92 191.766 65.8478 190.231 71.7569" stroke="#5E11C9" stroke-miterlimit="10"/>
<path d="M121.584 131.968L122.823 156.021C125.18 180.721 135.288 182.607 142.82 175.547C150.351 168.486 158.343 130.85 158.343 130.85L184.687 133.909C180.215 165.669 162.805 195.313 162.805 195.313C162.805 195.313 146.098 222.37 119.282 212.953C92.4663 203.546 88.2236 175.075 87.0505 153.434C85.8775 131.793 99.0441 121.915 99.0441 121.915C105.633 114.855 112.452 114.384 130.804 113.211C149.156 112.038 148.564 100.57 148.564 100.57" stroke="#5E11C9" stroke-miterlimit="10"/>
<path d="M146.359 106.143L161.653 106.987" stroke="#5E11C9" stroke-miterlimit="10"/>
<path d="M163.993 131.317C163.993 131.317 163.05 116.967 170.812 116.024C178.574 115.081 182.104 112.264 182.104 112.264C182.104 112.264 183.748 113.437 182.334 115.322C180.92 117.208 176.217 119.795 176.217 119.795C176.217 119.795 188.21 113.678 191.51 113.678C194.81 113.678 202.572 112.264 199.513 116.737C196.455 121.21 185.634 129.914 179.988 133.444" stroke="#5E11C9" stroke-miterlimit="10"/>
<path d="M207.166 101.434L207.046 107.759C207.046 111.947 203.669 115.357 199.492 115.401" stroke="#5E11C9" stroke-miterlimit="10"/>
<path d="M169.703 115.707C165.416 115.751 161.93 112.265 161.985 107.978C162.062 101.697 162.128 92.9042 162.018 86.6224C161.941 82.3468 165.384 78.8496 169.659 78.8496H199.402C203.623 78.8496 207.043 81.7877 207.043 87.2034" stroke="#5E11C9" stroke-miterlimit="10"/>
<path d="M174.469 78.8475C174.469 78.8475 178.185 75.756 179.282 73.1029C179.654 72.182 180.531 71.579 181.518 71.59L190.223 71.7544C191.33 71.7764 192.284 72.5547 192.492 73.651C192.898 75.7998 193.983 78.2665 196.099 78.7379" stroke="#5E11C9" stroke-miterlimit="10"/>
<path d="M184.54 109.118C190.946 109.118 196.139 103.925 196.139 97.5188C196.139 91.1129 190.946 85.9199 184.54 85.9199C178.134 85.9199 172.941 91.1129 172.941 97.5188C172.941 103.925 178.134 109.118 184.54 109.118Z" stroke="#5E11C9" stroke-miterlimit="10"/>
<path d="M184.54 104.431C188.354 104.431 191.446 101.338 191.446 97.5239C191.446 93.7094 188.354 90.6172 184.54 90.6172C180.725 90.6172 177.633 93.7094 177.633 97.5239C177.633 101.338 180.725 104.431 184.54 104.431Z" stroke="#5E11C9" stroke-miterlimit="10"/>
<path d="M213.395 114.139C213.395 114.139 214.338 101.203 209.865 99.5583C209.865 99.5583 206.576 101.203 204.449 102.387C202.333 103.56 199.976 101.915 201.39 98.3853C202.804 94.8552 205.15 84.7363 213.855 84.0346C222.56 83.333 228.206 104.503 228.206 104.503" stroke="#5E11C9" stroke-miterlimit="10"/>
<path d="M236.219 172.485C240.923 156.962 231.747 102.146 231.747 102.146L210.105 116.497C210.105 116.497 213.394 138.379 211.991 142.841" stroke="#5E11C9" stroke-miterlimit="10"/>
<path d="M196.465 120.5C196.465 120.5 224.344 156.842 225.046 172.849" stroke="#5E11C9" stroke-miterlimit="10"/>
<path d="M186.572 153.906L182.921 168.334L176.277 193.538" stroke="#5E11C9" stroke-miterlimit="10"/>
<path d="M189.643 185.423L182.934 168.332" stroke="#5E11C9" stroke-miterlimit="10"/>
<path d="M99.5323 198.828C99.5323 198.828 45.7147 258.116 118.761 279.812L139.931 286.697" stroke="#5E11C9" stroke-miterlimit="10"/>
<path d="M160.586 275.583C160.586 275.583 130.416 298.342 82.7812 300.995L88.0764 335.397C88.0764 335.397 160.597 345.45 191.82 325.87C223.053 306.29 216.695 282.994 184.935 257.055C184.935 257.055 154.765 235.348 149.469 233.77" stroke="#5E11C9" stroke-miterlimit="10"/>
<path d="M158.637 200.773L166.223 200.598" stroke="#5E11C9" stroke-miterlimit="10"/>
<path d="M161.293 204.123C161.293 204.123 208.577 164.25 246.333 174.128C246.333 174.128 262.208 180.124 256.924 200.943C251.628 221.762 236.105 285.633 225.865 299.753L212.107 300.455" stroke="#5E11C9" stroke-miterlimit="10"/>
<path d="M175.055 248.947C175.055 248.947 187.41 243.959 199.228 237.633C207.779 233.061 216.056 227.777 219.17 223.184" stroke="#5E11C9" stroke-miterlimit="10"/>
<path d="M198.695 267.299L199.233 237.633" stroke="#5E11C9" stroke-miterlimit="10"/>
<path d="M105.535 122.612C105.535 122.612 119.118 120.321 121.596 131.964" stroke="#5E11C9" stroke-miterlimit="10"/>
<path d="M96.7109 224.242C96.7109 224.242 111.533 220.01 112.947 210.834" stroke="#5E11C9" stroke-miterlimit="10"/>
<path d="M149.477 71.8027C149.477 71.8027 151.943 73.9186 154.421 72.8662" stroke="#5E11C9" stroke-miterlimit="10"/>
<path d="M166.863 74.1876C166.863 74.1876 169.944 75.2181 171.841 73.3105" stroke="#5E11C9" stroke-miterlimit="10"/>
<path d="M161.099 77.9746L161.275 84.684C161.275 84.684 157.92 86.449 157.043 85.0348" stroke="#5E11C9" stroke-miterlimit="10"/>
<path d="M161.287 91.7355C157.231 92.6126 152.812 88.3809 152.812 88.3809C152.812 88.3809 153.163 94.2022 161.101 95.6165" stroke="#5E11C9" stroke-miterlimit="10"/>
</g>
</svg>
