<svg width="219" height="367" viewBox="0 0 219 367" fill="none" xmlns="http://www.w3.org/2000/svg">
<path d="M216.991 36.5947H7.80078L41.8648 1.35156H184.992L216.991 36.5947Z" stroke="#5E11C9" stroke-miterlimit="10"/>
<path d="M165.387 2.03906L187.408 36.2413" stroke="#5E11C9" stroke-miterlimit="10"/>
<path d="M137.164 1.69141L149.549 36.7637" stroke="#5E11C9" stroke-miterlimit="10"/>
<path d="M109.984 1L111.7 36.7635" stroke="#5E11C9" stroke-miterlimit="10"/>
<path d="M34.625 36.9373L59.744 1.17383" stroke="#5E11C9" stroke-miterlimit="10"/>
<path d="M70.0664 36.5947L83.492 1.35156" stroke="#5E11C9" stroke-miterlimit="10"/>
<path d="M34.6295 36.9336C34.6295 45.7159 28.5469 52.8312 21.0413 52.8312C13.5357 52.8312 7.45312 45.7159 7.45312 36.9336" stroke="#5E11C9" stroke-miterlimit="10"/>
<path d="M70.0638 36.9336C70.0638 45.7159 62.2817 52.8312 52.6862 52.8312C43.0907 52.8312 35.3086 45.7159 35.3086 36.9336" stroke="#5E11C9" stroke-miterlimit="10"/>
<path d="M111.702 37.1113C111.702 45.8936 102.424 53.0089 90.974 53.0089C79.5244 53.0089 70.2461 45.8936 70.2461 37.1113" stroke="#5E11C9" stroke-miterlimit="10"/>
<path d="M149.555 36.7637C149.555 45.546 141.163 52.6613 130.803 52.6613C120.443 52.6613 112.051 45.546 112.051 36.7637" stroke="#5E11C9" stroke-miterlimit="10"/>
<path d="M186.937 36.3066C186.937 45.089 178.545 52.2043 168.185 52.2043C157.826 52.2043 149.434 45.089 149.434 36.3066" stroke="#5E11C9" stroke-miterlimit="10"/>
<path d="M217.902 36.7637C217.902 45.546 211.046 52.6613 202.589 52.6613C194.132 52.6613 187.277 45.546 187.277 36.7637" stroke="#5E11C9" stroke-miterlimit="10"/>
<path d="M190.839 57.6309C193.547 57.6228 195.515 59.0865 194.726 62.8596C193.701 67.7306 190.896 79.5297 189.871 81.0667" stroke="#5E11C9" stroke-miterlimit="10"/>
<path d="M176.094 81.5864C176.094 81.5864 175.582 73.1213 176.346 69.7872C177.11 66.4532 180.688 67.738 179.924 73.1213C179.826 73.8125 180.493 71.869 181.567 69.153" stroke="#5E11C9" stroke-miterlimit="10"/>
<path d="M121.154 91.1745C121.841 91.1745 122.398 90.6138 122.398 89.9222C122.398 89.2306 121.841 88.6699 121.154 88.6699C120.467 88.6699 119.91 89.2306 119.91 89.9222C119.91 90.6138 120.467 91.1745 121.154 91.1745Z" fill="#5E11C9"/>
<path d="M131.6 90.9401C132.287 90.9401 132.844 90.3795 132.844 89.6878C132.844 88.9962 132.287 88.4355 131.6 88.4355C130.912 88.4355 130.355 88.9962 130.355 89.6878C130.355 90.3795 130.912 90.9401 131.6 90.9401Z" fill="#5E11C9"/>
<path d="M113.785 109.537C113.785 109.537 119.526 117.612 127.186 111.846C134.846 106.081 139.441 89.1505 132.927 79.5387L131.399 78.2539" stroke="#5E11C9" stroke-miterlimit="10"/>
<path d="M113.787 109.537C109.957 116.97 101.02 115.693 100.508 114.408C99.9958 113.123 101.02 108.513 107.144 113.384C113.275 118.255 106.631 128.769 106.631 128.769C98.7191 144.927 82.6345 139.023 77.7798 134.412C72.9252 129.802 76.7552 120.824 76.7552 120.824C76.7552 120.824 81.6099 112.871 89.27 109.025C96.9302 105.179 92.848 98.2585 92.848 98.2585C92.848 98.2585 86.9769 91.8506 94.1247 80.824C101.273 69.7973 109.575 68.3905 120.488 65.8859C131.401 63.3895 135.044 72.4239 133.889 75.5058C132.734 78.5877 127.188 80.3117 125.465 78.0022C123.741 75.6928 118.951 76.2702 118.951 76.2702C118.951 76.2702 114.039 77.742 111.99 83.8978C109.941 90.0535 111.063 99.34 113.267 100.308C117.349 102.105 113.779 109.537 113.779 109.537H113.787Z" stroke="#5E11C9" stroke-miterlimit="10"/>
<path d="M181.585 124.875C175.641 134.69 166.663 144.001 153.108 150.059C153.108 150.059 146.212 152.621 148.513 156.979" stroke="#5E11C9" stroke-miterlimit="10"/>
<path d="M190.288 81.5605L193.191 81.5849C193.191 81.5849 193.004 90.8633 190.215 102.549" stroke="#5E11C9" stroke-miterlimit="10"/>
<path d="M121.708 114.154C121.708 114.154 120.944 122.872 127.327 125.181C133.711 127.49 155.414 133.386 170.222 103.9C170.222 103.9 175.841 89.2873 173.8 81.0742L181.639 81.1962" stroke="#5E11C9" stroke-miterlimit="10"/>
<path d="M110.211 118.517C110.211 118.517 118.123 119.541 121.449 117.492" stroke="#5E11C9" stroke-miterlimit="10"/>
<path d="M79.5723 135.689C79.5723 135.689 71.3998 135.689 65.2766 149.538L62.2109 158.255" stroke="#5E11C9" stroke-miterlimit="10"/>
<path d="M87.754 159.795L81.8828 177.482" stroke="#5E11C9" stroke-miterlimit="10"/>
<path d="M156.366 227.04C155.423 227.374 153.585 227.748 152.528 227.748H89.7996C84.7579 227.748 80.6758 223.641 80.6758 218.583V200.758C80.6758 195.692 84.7661 191.594 89.7996 191.594H152.528C157.57 191.594 161.416 194.334 161.416 199.392" stroke="#5E11C9" stroke-miterlimit="10"/>
<path d="M91.75 191.701V164.549C91.75 159.572 95.7671 155.539 100.719 155.539H142.818C147.77 155.539 151.787 159.572 151.787 164.549V191.701" stroke="#5E11C9" stroke-miterlimit="10"/>
<path d="M81.6211 197.623C81.6211 197.623 82.5156 203.518 88.468 202.111C88.468 202.111 92.7779 201.339 95.5752 199.55C98.3644 197.753 102.17 196.728 105.472 199.038C108.773 201.347 109.025 207.503 112.831 208.015C116.636 208.527 118.922 204.429 120.19 201.859C121.459 199.29 125.012 194.167 130.339 195.451C135.665 196.736 134.909 201.607 138.966 202.884C143.024 204.161 143.536 199.298 147.082 198.013C150.627 196.728 154.189 199.298 155.197 201.347C156.206 203.396 155.449 206.372 158.499 206.478C161.548 206.584 161.321 203.738 161.321 203.738" stroke="#5E11C9" stroke-miterlimit="10"/>
<path d="M86.6208 227.569C85.9052 228.081 84.4902 229.179 83.5551 229.179H47.0028C44.547 229.179 42.5547 227.121 42.5547 224.584V181.567C42.5547 179.03 44.547 176.973 47.0028 176.973H83.5551C86.0109 176.973 88.0032 179.03 88.0032 181.567L87.873 191.472" stroke="#5E11C9" stroke-miterlimit="10"/>
<path d="M81.3437 176.592V162.012C81.3437 159.727 78.3918 157.873 74.7488 157.873H56.8996C53.2565 157.873 50.3047 159.727 50.3047 162.012V177.235" stroke="#5E11C9" stroke-miterlimit="10"/>
<path d="M176.907 210.447V200.071C176.907 198.444 175.427 197.127 173.606 197.127H164.661C162.839 197.127 161.359 198.444 161.359 200.071V210.902" stroke="#5E11C9" stroke-miterlimit="10"/>
<path d="M181.71 228.304V214.863C181.71 212.456 179.344 210.504 176.424 210.504H162.121C159.201 210.504 156.835 212.456 156.835 214.863L156.363 228.296H181.702L181.71 228.304Z" stroke="#5E11C9" stroke-miterlimit="10"/>
<path d="M92.6016 160.314C92.6016 160.314 100.262 168.007 111.24 165.185C117.956 163.461 126.56 161.851 132.943 162.624C139.327 163.396 144.181 166.21 148.516 166.73C152.85 167.251 151.785 164.567 151.785 164.567" stroke="#5E11C9" stroke-miterlimit="10"/>
<path d="M189.877 228.439H205.49C208.994 228.439 211.832 231.294 211.832 234.815C211.832 238.336 208.994 241.19 205.49 241.19H7.34278C3.83799 241.19 1 238.336 1 234.815C1 231.294 3.83799 228.439 7.34278 228.439H44.0821" stroke="#5E11C9" stroke-miterlimit="10"/>
<path d="M188.859 365.94V240.312" stroke="#5E11C9" stroke-miterlimit="10"/>
<path d="M21.6797 241.465V366.824" stroke="#5E11C9" stroke-miterlimit="10"/>
<path d="M127.005 92.418L127.964 97.2238C127.964 97.2238 126.053 97.8012 125.094 97.2238" stroke="#5E11C9" stroke-miterlimit="10"/>
<path d="M120.682 102.041C120.682 102.041 124.13 105.115 127.765 103.968C127.765 103.968 128.147 108.392 125.464 108.197C122.78 108.002 119.527 103.773 120.674 102.041H120.682Z" stroke="#5E11C9" stroke-miterlimit="10"/>
<path d="M21.0234 52.8379V228.012" stroke="#5E11C9" stroke-miterlimit="10"/>
<path d="M29.0718 50.5566L28.4375 227.748" stroke="#5E11C9" stroke-miterlimit="10"/>
<path d="M181.996 46.8599L181.703 228.263C181.703 228.263 190.071 228.987 190.071 228.263L189.932 75.9066V45.9004" stroke="#5E11C9" stroke-miterlimit="10"/>
</svg>
