<svg width="302" height="229" viewBox="0 0 302 229" fill="none" xmlns="http://www.w3.org/2000/svg">
<path d="M155.894 128.075C155.894 128.075 154.092 128.976 151.839 128.075C149.585 127.175 147.784 122.219 147.56 115.159C147.336 108.1 151.316 106.9 151.316 106.9C151.316 106.9 157.247 112.234 162.431 111.333L163.182 111.184C163.182 111.184 163.481 113.386 163.555 115.113" stroke="#5E11C9" stroke-miterlimit="10"/>
<path d="M148.984 130.18C142.974 129.205 144.178 126.05 144.178 126.05C144.178 126.05 144.878 125.374 145.382 125.775C145.886 126.176 146.982 129.578 144.481 130.38C141.98 131.183 135.27 130.282 138.275 121.771C138.275 121.771 139.302 119.518 140.277 118.995C141.252 118.472 144.584 118.295 144.08 114.964C144.08 114.964 140.874 106.051 146.684 102.346C152.493 98.6414 163.505 98.842 166.809 107.25C166.809 107.25 168.713 112.327 168.059 114.842" stroke="#5E11C9" stroke-miterlimit="10"/>
<path d="M138.843 140.469L139.37 150.707C140.374 161.22 144.676 162.022 147.881 159.017C151.087 156.012 154.489 139.993 154.489 139.993L165.701 141.295C163.798 154.813 156.388 167.43 156.388 167.43C156.388 167.43 149.277 178.946 137.863 174.938C126.45 170.935 124.644 158.817 124.145 149.606C123.645 140.395 129.25 136.19 129.25 136.19C132.054 133.185 134.956 132.985 142.767 132.486C150.578 131.986 150.326 127.105 150.326 127.105" stroke="#5E11C9" stroke-miterlimit="10"/>
<path d="M149.387 129.479L155.896 129.838" stroke="#5E11C9" stroke-miterlimit="10"/>
<path d="M156.894 140.194C156.894 140.194 156.493 134.086 159.797 133.684C163.1 133.283 164.603 132.084 164.603 132.084C164.603 132.084 165.303 132.583 164.701 133.386C164.099 134.188 162.097 135.29 162.097 135.29C162.097 135.29 167.202 132.686 168.606 132.686C170.011 132.686 173.314 132.084 172.013 133.988C170.711 135.892 166.105 139.596 163.702 141.099" stroke="#5E11C9" stroke-miterlimit="10"/>
<path d="M175.266 127.473L175.215 130.165C175.215 131.947 173.778 133.399 172 133.417" stroke="#5E11C9" stroke-miterlimit="10"/>
<path d="M159.324 133.549C157.5 133.568 156.016 132.084 156.039 130.259C156.072 127.586 156.1 123.843 156.053 121.17C156.021 119.35 157.486 117.861 159.306 117.861H171.965C173.761 117.861 175.217 119.112 175.217 121.417" stroke="#5E11C9" stroke-miterlimit="10"/>
<path d="M161.352 117.861C161.352 117.861 162.933 116.545 163.4 115.415C163.559 115.024 163.932 114.767 164.352 114.772L168.057 114.842C168.528 114.851 168.934 115.182 169.023 115.649C169.195 116.563 169.657 117.613 170.558 117.814" stroke="#5E11C9" stroke-miterlimit="10"/>
<path d="M165.64 130.745C168.366 130.745 170.577 128.534 170.577 125.808C170.577 123.081 168.366 120.871 165.64 120.871C162.913 120.871 160.703 123.081 160.703 125.808C160.703 128.534 162.913 130.745 165.64 130.745Z" stroke="#5E11C9" stroke-miterlimit="10"/>
<path d="M165.639 128.748C167.262 128.748 168.579 127.432 168.579 125.809C168.579 124.185 167.262 122.869 165.639 122.869C164.015 122.869 162.699 124.185 162.699 125.809C162.699 127.432 164.015 128.748 165.639 128.748Z" stroke="#5E11C9" stroke-miterlimit="10"/>
<path d="M177.921 132.881C177.921 132.881 178.322 127.375 176.419 126.675C176.419 126.675 175.019 127.375 174.113 127.879C173.213 128.378 172.21 127.678 172.812 126.176C173.414 124.673 174.412 120.366 178.117 120.068C181.822 119.769 184.225 128.779 184.225 128.779" stroke="#5E11C9" stroke-miterlimit="10"/>
<path d="M187.634 157.715C189.636 151.108 185.731 127.777 185.731 127.777L176.52 133.885C176.52 133.885 177.919 143.199 177.322 145.098" stroke="#5E11C9" stroke-miterlimit="10"/>
<path d="M170.715 135.588C170.715 135.588 182.581 151.056 182.879 157.869" stroke="#5E11C9" stroke-miterlimit="10"/>
<path d="M166.503 149.807L164.949 155.947L162.121 166.675" stroke="#5E11C9" stroke-miterlimit="10"/>
<path d="M167.809 163.222L164.953 155.947" stroke="#5E11C9" stroke-miterlimit="10"/>
<path d="M129.457 168.928C129.457 168.928 106.551 194.162 137.641 203.397L146.652 206.327" stroke="#5E11C9" stroke-miterlimit="10"/>
<path d="M155.44 201.596C155.44 201.596 142.599 211.282 122.324 212.412L124.578 227.054C124.578 227.054 155.444 231.333 168.734 222.999C182.028 214.665 179.321 204.75 165.803 193.71C165.803 193.71 152.962 184.471 150.708 183.799" stroke="#5E11C9" stroke-miterlimit="10"/>
<path d="M154.613 169.754L157.842 169.68" stroke="#5E11C9" stroke-miterlimit="10"/>
<path d="M155.742 171.18C155.742 171.18 175.867 154.209 191.937 158.414C191.937 158.414 198.694 160.966 196.445 169.827C194.191 178.688 187.584 205.873 183.226 211.883L177.37 212.182" stroke="#5E11C9" stroke-miterlimit="10"/>
<path d="M161.602 190.258C161.602 190.258 166.86 188.135 171.89 185.443C175.53 183.497 179.053 181.248 180.378 179.293" stroke="#5E11C9" stroke-miterlimit="10"/>
<path d="M171.664 198.07L171.893 185.443" stroke="#5E11C9" stroke-miterlimit="10"/>
<path d="M132.012 136.488C132.012 136.488 137.793 135.513 138.848 140.468" stroke="#5E11C9" stroke-miterlimit="10"/>
<path d="M122.552 215.938L120.676 216.161L122.099 225.923L124.427 226.152" stroke="#5E11C9" stroke-miterlimit="10"/>
<path d="M122.097 225.926C122.097 225.926 113.684 227.876 107.002 228.254C100.32 228.628 99.2652 226.225 102.419 224.951C105.574 223.672 109.176 219.393 109.176 219.393C109.176 219.393 114.281 211.209 118.112 212.712C118.112 212.712 119.162 213.01 119.764 214.289C120.365 215.567 120.664 216.164 120.664 216.164" stroke="#5E11C9" stroke-miterlimit="10"/>
<path d="M174.972 217.742C174.972 217.742 173.768 222.095 175.271 223.001C175.723 223.271 176.461 223.22 176.965 223.243C180.427 223.402 183.931 223.127 187.384 222.921C189.204 222.814 191.028 222.693 192.848 222.557C194.243 222.455 196.74 222.576 197.682 221.442C198.046 221.004 198.391 220.5 198.55 219.944C199.063 218.097 197.192 217.229 195.694 216.846C195.694 216.846 183.53 216.095 181.425 211.891" stroke="#5E11C9" stroke-miterlimit="10"/>
<path d="M128.258 179.742C128.258 179.742 134.566 177.941 135.168 174.035" stroke="#5E11C9" stroke-miterlimit="10"/>
<path d="M150.715 114.861C150.715 114.861 151.765 115.762 152.819 115.314" stroke="#5E11C9" stroke-miterlimit="10"/>
<path d="M158.113 115.877C158.113 115.877 159.424 116.316 160.232 115.504" stroke="#5E11C9" stroke-miterlimit="10"/>
<path d="M155.66 117.488L155.735 120.344C155.735 120.344 154.307 121.095 153.934 120.493" stroke="#5E11C9" stroke-miterlimit="10"/>
<path d="M155.74 123.346C154.013 123.719 152.133 121.918 152.133 121.918C152.133 121.918 152.282 124.396 155.66 124.998" stroke="#5E11C9" stroke-miterlimit="10"/>
<path d="M233.201 29.8379C233.201 29.8379 226.869 35.6752 229.231 47.0933C229.231 47.0933 229.851 51.8108 235.436 51.3161C241.022 50.8215 243.383 48.8338 243.383 48.8338" stroke="#5E11C9" stroke-miterlimit="10"/>
<path d="M235.679 25.7441C235.679 25.7441 233.318 26.9853 232.329 26.8593C231.34 26.7334 230.715 29.2204 234.438 29.9623C238.162 30.7043 244.12 29.3417 245.24 31.5768C246.36 33.8119 245.614 38.4034 245.614 38.4034C245.614 38.4034 246.108 36.9149 246.981 37.0362C247.853 37.1575 246.733 41.8797 244.62 43.3682C243.173 44.39 244.876 46.3452 246.094 47.4744C246.649 47.9923 247.107 48.3329 247.107 48.3329C247.107 48.3329 248.474 48.9535 248.847 48.0856C249.22 47.2177 249.962 41.1331 252.323 38.898C254.685 36.6629 252.944 31.6981 252.944 31.6981" stroke="#5E11C9" stroke-miterlimit="10"/>
<path d="M211.117 68.0735C208.144 72.0911 204.734 76.16 202.167 76.0853C195.835 75.8986 203.1 55.7876 203.1 55.7876L190.063 53.9258C190.063 53.9258 182.056 78.6937 189.13 86.8874C196.208 95.0812 206.077 92.2861 216.32 83.1638L219.483 80.3688L216.502 99.5513" stroke="#5E11C9" stroke-miterlimit="10"/>
<path d="M255.426 106.258L252.817 78.882C265.668 86.1472 283.357 83.3522 290.809 74.7852C298.261 66.2181 299.376 56.1626 299.376 56.1626L286.712 55.2294C285.228 59.0276 282.947 65.5369 279.125 67.5853C275.985 69.2698 271.454 69.6757 268.048 68.7612C262.136 67.1747 259.411 62.6485 255.052 59.0136C253.564 57.7724 243.508 57.0258 243.256 55.5373C243.004 54.0488 243.13 52.6816 243.13 52.6816L233.817 52.8076C233.817 52.8076 232.328 55.6026 224.321 55.6026C221.097 55.6026 217.345 59.7088 214.266 63.7031" stroke="#5E11C9" stroke-miterlimit="10"/>
<path d="M298.802 55.9741C298.802 55.9741 299.502 53.1697 301.079 48.9656C302.656 44.7614 299.413 39.5073 297.486 39.6799C295.559 39.8526 294.859 47.2111 293.721 48.261C292.675 49.2269 292.162 47.6404 292.031 46.5858C291.943 45.8579 291.425 45.2326 290.711 45.0693C290.305 44.976 289.936 45.0227 289.866 45.4566C289.689 46.5065 288.816 54.9149 288.816 54.9149" stroke="#5E11C9" stroke-miterlimit="10"/>
<path d="M203.341 44.3664L197.76 31.1239C197.359 30.158 196.22 29.7334 195.283 30.2047C194.424 30.634 194.055 31.6652 194.443 32.5424L199.865 44.7397" stroke="#5E11C9" stroke-miterlimit="10"/>
<path d="M203.406 53.4257L205.184 57.0046C205.184 57.0046 203.724 64.6104 211.115 68.068C211.115 68.068 213.061 68.5393 215.207 68.2127C216.163 68.068 216.611 66.9481 216.019 66.1782L208.026 55.7914L206.439 52.1191" stroke="#5E11C9" stroke-miterlimit="10"/>
<path d="M191.551 54.4208C191.551 54.4208 195.806 46.0218 198.629 45.1725C201.448 44.3186 205.657 43.8847 206.016 44.7386C206.375 45.5925 209.347 51.3365 206.45 52.1251C203.552 52.9136 202.176 54.1782 201.672 55.5407" stroke="#5E11C9" stroke-miterlimit="10"/>
<path d="M244.621 47.6855C244.621 47.6855 243.133 51.2878 243.133 52.683" stroke="#5E11C9" stroke-miterlimit="10"/>
<path d="M234.194 51.3184L233.82 52.8069" stroke="#5E11C9" stroke-miterlimit="10"/>
<path d="M232.706 37.8145L231.68 41.0761L233.168 41.2627" stroke="#5E11C9" stroke-miterlimit="10"/>
<path d="M230.844 44.0519C230.844 44.0519 232.613 45.6337 234.288 45.4471C237.284 45.1158 237.27 43.8652 237.27 43.8652C237.27 43.8652 237.592 45.9837 235.594 46.9402C233.453 47.9668 230.378 45.825 230.844 44.0519Z" stroke="#5E11C9" stroke-miterlimit="10"/>
<path d="M236.899 38.285C237.26 38.285 237.553 37.9926 237.553 37.6318C237.553 37.271 237.26 36.9785 236.899 36.9785C236.539 36.9785 236.246 37.271 236.246 37.6318C236.246 37.9926 236.539 38.285 236.899 38.285Z" fill="#5E11C9"/>
<path d="M231.442 37.1288C231.803 37.1288 232.096 36.8363 232.096 36.4755C232.096 36.1147 231.803 35.8223 231.442 35.8223C231.082 35.8223 230.789 36.1147 230.789 36.4755C230.789 36.8363 231.082 37.1288 231.442 37.1288Z" fill="#5E11C9"/>
<path d="M239.779 28.0387C237.31 27.1335 235.234 26.2609 235.318 23.4426C235.434 19.5277 235.663 15.8694 236.61 12.0198C236.61 12.0198 236.237 13.135 235.308 10.0647C235.308 10.0647 233.353 6.80776 235.495 4.01274C237.637 1.21772 243.595 -0.17746 251.509 2.24427C259.423 4.666 262.125 11.6465 262.125 11.6465C262.125 11.6465 263.706 15.2768 258.494 16.21L253.838 31.669C253.838 31.669 254.024 33.2508 239.779 28.0387Z" stroke="#5E11C9" stroke-miterlimit="10"/>
<path d="M189.06 101.535L240.835 99.2437C241.685 99.2063 242.389 99.8829 242.389 100.732C242.389 101.53 241.764 102.183 240.966 102.221L189.191 104.512C188.341 104.549 187.637 103.872 187.637 103.023C187.637 102.225 188.262 101.572 189.06 101.535Z" stroke="#5E11C9" stroke-miterlimit="10"/>
<path d="M195.454 104.494L195.314 113.877C195.188 122.169 202.775 128.851 211.912 128.497L219.065 128.221C227.128 127.913 233.66 122.183 234.272 114.89L235.312 102.469" stroke="#5E11C9" stroke-miterlimit="10"/>
<path d="M284.659 128.229H194.248C193.58 128.229 193.039 128.771 193.039 129.438C193.039 130.105 193.58 130.646 194.248 130.646H284.659C285.363 130.646 285.919 130.044 285.867 129.344C285.821 128.715 285.293 128.225 284.659 128.225V128.229Z" stroke="#5E11C9" stroke-miterlimit="10"/>
<path d="M275.91 210.788V130.559" stroke="#5E11C9" stroke-miterlimit="10"/>
<path d="M202.906 131.273V210.789" stroke="#5E11C9" stroke-miterlimit="10"/>
<path d="M233.09 128.538C233.09 118.343 242.096 110.074 253.201 110.074C264.306 110.074 273.312 118.343 273.312 128.538" stroke="#5E11C9" stroke-miterlimit="10"/>
<path d="M254.213 109.981C255.293 109.981 256.168 109.105 256.168 108.025C256.168 106.946 255.293 106.07 254.213 106.07C253.133 106.07 252.258 106.946 252.258 108.025C252.258 109.105 253.133 109.981 254.213 109.981Z" stroke="#5E11C9" stroke-miterlimit="10"/>
<path d="M238.107 52.8086L232.895 96.1991" stroke="#5E11C9" stroke-miterlimit="10"/>
<path d="M127.474 21.6801H7.4375L26.984 1.45703H109.113L127.474 21.6801Z" stroke="#5E11C9" stroke-miterlimit="10"/>
<path d="M97.8633 1.85156L110.499 21.4774" stroke="#5E11C9" stroke-miterlimit="10"/>
<path d="M81.668 1.65234L88.7745 21.7774" stroke="#5E11C9" stroke-miterlimit="10"/>
<path d="M66.0703 1.25586L67.0549 21.7776" stroke="#5E11C9" stroke-miterlimit="10"/>
<path d="M22.832 21.8772L37.2457 1.35547" stroke="#5E11C9" stroke-miterlimit="10"/>
<path d="M43.168 21.6801L50.8718 1.45703" stroke="#5E11C9" stroke-miterlimit="10"/>
<path d="M22.8325 21.875C22.8325 26.9144 19.3423 30.9973 15.0354 30.9973C10.7286 30.9973 7.23828 26.9144 7.23828 21.875" stroke="#5E11C9" stroke-miterlimit="10"/>
<path d="M43.1657 21.875C43.1657 26.9144 38.7003 30.9973 33.1942 30.9973C27.6882 30.9973 23.2227 26.9144 23.2227 21.875" stroke="#5E11C9" stroke-miterlimit="10"/>
<path d="M67.0575 21.9766C67.0575 27.016 61.7335 31.0989 55.1635 31.0989C48.5936 31.0989 43.2695 27.016 43.2695 21.9766" stroke="#5E11C9" stroke-miterlimit="10"/>
<path d="M88.7781 21.7773C88.7781 26.8168 83.9626 30.8997 78.0179 30.8997C72.0733 30.8997 67.2578 26.8168 67.2578 21.7773" stroke="#5E11C9" stroke-miterlimit="10"/>
<path d="M110.227 21.5156C110.227 26.5551 105.412 30.6379 99.4672 30.6379C93.5225 30.6379 88.707 26.5551 88.707 21.5156" stroke="#5E11C9" stroke-miterlimit="10"/>
<path d="M127.998 21.7773C127.998 26.8168 124.065 30.8997 119.212 30.8997C114.359 30.8997 110.426 26.8168 110.426 21.7773" stroke="#5E11C9" stroke-miterlimit="10"/>
<path d="M112.469 33.75C114.023 33.7454 115.152 34.5853 114.7 36.7503C114.112 39.5454 112.502 46.3159 111.914 47.1978" stroke="#5E11C9" stroke-miterlimit="10"/>
<path d="M104.007 47.4966C104.007 47.4966 103.713 42.6391 104.151 40.726C104.59 38.8129 106.643 39.5501 106.204 42.6391C106.148 43.0357 106.531 41.9205 107.147 40.362" stroke="#5E11C9" stroke-miterlimit="10"/>
<path d="M72.4835 52.9977C72.8777 52.9977 73.1974 52.676 73.1974 52.2791C73.1974 51.8823 72.8777 51.5605 72.4835 51.5605C72.0892 51.5605 71.7695 51.8823 71.7695 52.2791C71.7695 52.676 72.0892 52.9977 72.4835 52.9977Z" fill="#5E11C9"/>
<path d="M78.4756 52.863C78.8699 52.863 79.1896 52.5412 79.1896 52.1444C79.1896 51.7475 78.8699 51.4258 78.4756 51.4258C78.0814 51.4258 77.7617 51.7475 77.7617 52.1444C77.7617 52.5412 78.0814 52.863 78.4756 52.863Z" fill="#5E11C9"/>
<path d="M68.2539 63.5346C68.2539 63.5346 71.5482 68.1681 75.9437 64.8598C80.3392 61.5515 82.9756 51.8366 79.238 46.3212L78.3608 45.584" stroke="#5E11C9" stroke-miterlimit="10"/>
<path d="M68.2527 63.5353C66.0549 67.8002 60.9268 67.0676 60.6329 66.3303C60.3389 65.5931 60.9268 62.9474 64.4404 65.7424C67.9587 68.5374 64.1465 74.5707 64.1465 74.5707C59.6063 83.8424 50.3767 80.4547 47.591 77.809C44.8053 75.1633 47.0031 70.0119 47.0031 70.0119C47.0031 70.0119 49.7888 65.4484 54.1843 63.2413C58.5798 61.0343 56.2374 57.0634 56.2374 57.0634C56.2374 57.0634 52.8684 53.3864 56.97 47.0592C61.0715 40.7319 65.8356 39.9246 72.0976 38.4875C78.3596 37.0549 80.45 42.239 79.7874 44.0075C79.1248 45.776 75.9425 46.7652 74.9533 45.44C73.964 44.1148 71.2157 44.4461 71.2157 44.4461C71.2157 44.4461 68.3973 45.2907 67.2215 48.823C66.0456 52.3552 66.6895 57.684 67.9541 58.2392C70.2965 59.2705 68.248 63.5353 68.248 63.5353H68.2527Z" stroke="#5E11C9" stroke-miterlimit="10"/>
<path d="M107.157 72.3359C103.746 77.968 98.5947 83.3107 90.8163 86.787C90.8163 86.787 86.8594 88.2568 88.1799 90.7579" stroke="#5E11C9" stroke-miterlimit="10"/>
<path d="M112.151 47.4824L113.817 47.4964C113.817 47.4964 113.71 52.8205 112.109 59.5257" stroke="#5E11C9" stroke-miterlimit="10"/>
<path d="M72.7976 66.185C72.7976 66.185 72.359 71.1871 76.0219 72.5123C79.6849 73.8375 92.1388 77.2204 100.636 60.301C100.636 60.301 103.86 51.9159 102.689 47.2031L107.187 47.2731" stroke="#5E11C9" stroke-miterlimit="10"/>
<path d="M66.2031 68.6875C66.2031 68.6875 70.7433 69.2755 72.6517 68.0996" stroke="#5E11C9" stroke-miterlimit="10"/>
<path d="M48.6224 78.541C48.6224 78.541 43.9329 78.541 40.4193 86.4875L38.6602 91.4896" stroke="#5E11C9" stroke-miterlimit="10"/>
<path d="M53.3143 92.375L49.9453 102.524" stroke="#5E11C9" stroke-miterlimit="10"/>
<path d="M92.6864 130.961C92.1451 131.152 91.0905 131.367 90.4839 131.367H54.4893C51.5963 131.367 49.2539 129.01 49.2539 126.108V115.88C49.2539 112.973 51.601 110.621 54.4893 110.621H90.4839C93.3769 110.621 95.584 112.194 95.584 115.096" stroke="#5E11C9" stroke-miterlimit="10"/>
<path d="M55.6094 110.682V95.1017C55.6094 92.246 57.9145 89.9316 60.7561 89.9316H84.9127C87.7544 89.9316 90.0595 92.246 90.0595 95.1017V110.682" stroke="#5E11C9" stroke-miterlimit="10"/>
<path d="M49.7969 114.079C49.7969 114.079 50.3101 117.462 53.7258 116.655C53.7258 116.655 56.1988 116.212 57.804 115.185C59.4045 114.154 61.5882 113.566 63.4827 114.891C65.3771 116.216 65.5218 119.749 67.7055 120.043C69.8893 120.337 71.2005 117.985 71.9284 116.51C72.6563 115.036 74.6954 112.096 77.7517 112.833C80.8081 113.571 80.3741 116.366 82.7025 117.098C85.0309 117.831 85.3249 115.041 87.3593 114.303C89.3938 113.566 91.4375 115.041 92.0161 116.216C92.5947 117.392 92.1608 119.1 93.9106 119.161C95.6604 119.221 95.5297 117.588 95.5297 117.588" stroke="#5E11C9" stroke-miterlimit="10"/>
<path d="M52.6647 131.263C52.2541 131.557 51.4422 132.187 50.9056 132.187H29.9313C28.5221 132.187 27.3789 131.007 27.3789 129.551V104.867C27.3789 103.411 28.5221 102.23 29.9313 102.23H50.9056C52.3148 102.23 53.458 103.411 53.458 104.867L53.3833 110.55" stroke="#5E11C9" stroke-miterlimit="10"/>
<path d="M49.6388 102.013V93.6465C49.6388 92.3354 47.945 91.2715 45.8546 91.2715H35.6124C33.5219 91.2715 31.8281 92.3354 31.8281 93.6465V102.382" stroke="#5E11C9" stroke-miterlimit="10"/>
<path d="M104.476 121.44V115.486C104.476 114.553 103.627 113.797 102.582 113.797H97.4491C96.4039 113.797 95.5547 114.553 95.5547 115.486V121.701" stroke="#5E11C9" stroke-miterlimit="10"/>
<path d="M107.232 131.687V123.974C107.232 122.593 105.874 121.473 104.199 121.473H95.9911C94.316 121.473 92.9581 122.593 92.9581 123.974L92.6875 131.682H107.227L107.232 131.687Z" stroke="#5E11C9" stroke-miterlimit="10"/>
<path d="M56.0977 92.6719C56.0977 92.6719 60.4932 97.086 66.7925 95.4669C70.6467 94.4777 75.5835 93.5538 79.2464 93.9971C82.9093 94.4403 85.695 96.0548 88.1821 96.3535C90.6691 96.6521 90.0578 95.1123 90.0578 95.1123" stroke="#5E11C9" stroke-miterlimit="10"/>
<path d="M111.916 131.764H120.875C122.886 131.764 124.514 133.401 124.514 135.422C124.514 137.442 122.886 139.08 120.875 139.08H7.17475C5.16364 139.08 3.53516 137.442 3.53516 135.422C3.53516 133.401 5.16364 131.764 7.17475 131.764H28.2564" stroke="#5E11C9" stroke-miterlimit="10"/>
<path d="M111.332 210.663V138.576" stroke="#5E11C9" stroke-miterlimit="10"/>
<path d="M15.4023 139.238V211.172" stroke="#5E11C9" stroke-miterlimit="10"/>
<path d="M75.8387 53.7129L76.3893 56.4706C76.3893 56.4706 75.2928 56.8019 74.7422 56.4706" stroke="#5E11C9" stroke-miterlimit="10"/>
<path d="M72.2107 59.2344C72.2107 59.2344 74.1892 60.9982 76.2749 60.3403C76.2749 60.3403 76.4942 62.8786 74.9544 62.7666C73.4146 62.6547 71.5481 60.2283 72.206 59.2344H72.2107Z" stroke="#5E11C9" stroke-miterlimit="10"/>
<path d="M15.0273 31V131.518" stroke="#5E11C9" stroke-miterlimit="10"/>
<path d="M19.6452 29.6914L19.2812 131.367" stroke="#5E11C9" stroke-miterlimit="10"/>
<path d="M107.395 27.5701L107.227 131.662C107.227 131.662 112.028 132.078 112.028 131.662L111.949 44.2376V27.0195" stroke="#5E11C9" stroke-miterlimit="10"/>
<path d="M183.68 210.998L287.711 211.171" stroke="#5E11C9" stroke-miterlimit="10"/>
<path d="M0.5 211.169L135.347 210.66" stroke="#5E11C9" stroke-miterlimit="10"/>
</svg>
