<svg width="34" height="34" viewBox="0 0 34 34" fill="none" xmlns="http://www.w3.org/2000/svg">
<path d="M1 32.9758H32.743M1 32.9758L12.4121 24.9202M1 32.9758V13.6679M32.743 32.9758V12.1654L29.4504 9.76793M32.743 32.9758L21.8743 24.9202M4.29258 9.76793L1 12.1654V13.6679M4.83602 16.0015V2H29.4504V16.0015M10.4622 13.6679H23.6645M10.4622 15.5539H23.6645M10.4622 17.6637H23.6645M1 13.6679L12.4121 21.7875M21.8743 21.7875L32.6471 14.0515" stroke="white" stroke-width="1.54879" stroke-linecap="round"/>
<path d="M7.96252 10.982V6.25095C8.66579 6.19767 10.0915 5.71391 10.1682 4.20508H12.2141" stroke="white" stroke-width="1.01648" stroke-linecap="round"/>
<path d="M25.9087 10.9508V6.2197C25.2054 6.16642 23.7797 5.68266 23.703 4.17383H21.6571" stroke="white" stroke-width="1.01648" stroke-linecap="round"/>
<path d="M12.7323 21.4041C11.2235 24.8821 14.9593 26.945 17.0159 27.5417C22.2073 25.7516 21.9707 22.7041 21.2035 21.4041C19.6947 19.2815 17.7831 20.5197 17.0159 21.4041C15.149 19.0769 13.3823 20.4344 12.7323 21.4041Z" stroke="white" stroke-width="1.01648" stroke-linecap="round"/>
<circle cx="15.4813" cy="7.84883" r="2.59254" stroke="white" stroke-width="1.01648"/>
<circle cx="18.9328" cy="7.84883" r="2.59254" stroke="white" stroke-width="1.01648"/>
</svg>
