<svg width="34" height="34" viewBox="0 0 34 34" fill="none" xmlns="http://www.w3.org/2000/svg">
<path d="M17.5501 29.9487H16.649L16.1596 31.4171M17.5501 29.9487H30.4649M17.5501 29.9487C17.4739 28.2254 18.3104 24.9636 21.901 23.8417M30.4649 29.9487H31.1323L32 32.0512H15.9482L16.1596 31.4171M30.4649 29.9487C30.1251 25.5314 27.1183 23.9412 24.9919 23.5676M22.9229 23.5963C23.2489 23.5395 23.5935 23.4983 23.9574 23.4746C24.2607 23.473 24.6123 23.5009 24.9919 23.5676M22.9229 23.5963V22.0346L24.9919 22.0346V23.5676M22.9229 23.5963C22.5597 23.6595 22.2195 23.7422 21.901 23.8417M16.1596 31.4171H10.275M9.90794 20.0374C4.41965 19.1393 3.37392 22.6727 3.00363 24.6565C3.00115 24.6698 3 24.6828 3 24.6963V31.4171H5.86997M9.90794 20.0374L11.5765 22.874M9.90794 20.0374V19.2531V17.968M11.5765 22.874L10.275 24.3423V31.4171M11.5765 22.874L14.4131 20.0374M10.275 31.4171H5.86997M14.4131 20.0374C17.1496 19.8038 20.6536 19.4033 21.901 23.8417M14.4131 20.0374V18.4347M8.23936 10.7266V9.55864C5.37682 8.63097 5.69827 6.57399 6.22554 5.64092C6.23328 5.62723 6.24283 5.61439 6.25347 5.60282C8.25144 3.42937 10.4541 5.45757 10.8423 6.78879M8.23936 10.7266C7.63867 13.1739 7.59195 18.2286 12.2106 18.8693C14.2685 19.014 18.0306 17.5879 16.6156 10.7266M8.23936 10.7266H16.6156M16.6156 10.7266V9.55864C17.9344 9.23727 20.2025 8.00626 18.768 5.64786C18.7574 5.63036 18.7439 5.61385 18.7287 5.60018C18.2729 5.19159 17.5633 4.76281 16.8087 4.68828M14.1795 6.78879C14.856 5.05338 15.8674 4.59532 16.8087 4.68828M8.23936 4.64825C7.77215 2.81756 10.3418 0.581652 12.5109 3.18465C12.9781 1.91652 16.7158 0.982117 16.8087 4.68828M5.86997 25.6438V31.4171" stroke="white" stroke-width="1.5"/>
<circle cx="12.9447" cy="26.0433" r="0.642132" stroke="white" stroke-width="1.18524"/>
<circle cx="12.9447" cy="29.2484" r="0.642132" stroke="white" stroke-width="1.18524"/>
</svg>
