<svg width="34" height="34" viewBox="0 0 34 34" fill="none" xmlns="http://www.w3.org/2000/svg">
<path d="M8.83112 9.4668C11.4701 11.3494 18.4255 13.9851 25.1346 9.4668M14.9019 13.5098C16.7482 14.2608 21.4734 14.9172 25.604 11.5346M8.0488 11.5346C9.98895 14.4769 15.897 19.2071 24.0081 14.59M8.0488 13.9728C9.89507 16.8224 15.5716 21.4231 23.5074 17.0282M5.9209 13.9728C6.98485 20.1145 21.8802 27.1204 28.0136 13.9728" stroke="white" stroke-width="1.11628" stroke-linecap="round"/>
<path d="M2.90096 11.1766C0.226146 11.5423 0.947816 9.69652 1.643 8.72792C0.228379 6.40806 2.37691 6.0263 3.31486 7.16903C4.78036 4.4526 6.01554 7.16906 5.64859 8.30348C8.3304 9.07163 6.78716 10.5937 5.64859 10.6216C5.013 12.9985 3.552 11.982 2.90096 11.1766Z" fill="white" stroke="white" stroke-width="0.941018" stroke-linecap="round"/>
<path d="M1.9458 13.0781V27.1408C1.9458 27.6474 2.20156 28.1457 2.69501 28.2601C3.3983 28.4231 4.33785 28.3353 5.14609 27.4332C5.38299 27.1688 5.45796 26.8035 5.41448 26.4511L5.33333 25.7936M3.88595 14.0657L5.33333 25.7936M5.48188 15.9792L7.49217 24.3305C7.52798 24.4793 7.52071 24.6383 7.43631 24.7659C7.1695 25.1693 6.51827 25.7313 5.33333 25.7936" stroke="white" stroke-width="1.11628" stroke-linecap="round"/>
<path d="M31.9565 13.0781V27.1408C31.9565 27.6474 31.7008 28.1457 31.2073 28.2601C30.504 28.4231 29.5645 28.3353 28.7563 27.4332C28.5194 27.1688 28.4444 26.8035 28.4879 26.4511L28.569 25.7936M30.0164 14.0657L28.569 25.7936M28.4205 15.9792L26.4102 24.3305C26.3744 24.4793 26.3816 24.6383 26.466 24.7659C26.7328 25.1693 27.3841 25.7313 28.569 25.7936" stroke="white" stroke-width="1.11628" stroke-linecap="round"/>
<mask id="path-5-inside-1_3383_86466" fill="white">
<ellipse cx="3.88756" cy="9.23923" rx="1.0941" ry="1.07907"/>
</mask>
<ellipse cx="3.88756" cy="9.23923" rx="1.0941" ry="1.07907" fill="white"/>
<path d="M3.86975 9.23923C3.86975 9.23451 3.87096 9.22757 3.87378 9.221C3.87625 9.21523 3.87894 9.21205 3.88042 9.21059C3.8819 9.20913 3.88347 9.20808 3.88535 9.2073C3.88792 9.20622 3.88934 9.20639 3.88756 9.20639V11.4302C5.09135 11.4302 6.09357 10.4637 6.09357 9.23923H3.86975ZM3.88756 9.20639C3.88577 9.20639 3.88719 9.20622 3.88977 9.2073C3.89164 9.20808 3.89322 9.20913 3.89469 9.21059C3.89618 9.21205 3.89886 9.21523 3.90134 9.221C3.90415 9.22757 3.90537 9.23451 3.90537 9.23923H1.68155C1.68155 10.4637 2.68376 11.4302 3.88756 11.4302V9.20639ZM3.90537 9.23923C3.90537 9.24394 3.90415 9.25089 3.90134 9.25745C3.89886 9.26323 3.89618 9.2664 3.89469 9.26787C3.89322 9.26932 3.89164 9.27037 3.88977 9.27116C3.88719 9.27223 3.88577 9.27207 3.88756 9.27207V7.04825C2.68376 7.04825 1.68155 8.01473 1.68155 9.23923H3.90537ZM3.88756 9.27207C3.88934 9.27207 3.88792 9.27223 3.88535 9.27116C3.88347 9.27037 3.8819 9.26932 3.88042 9.26787C3.87894 9.2664 3.87625 9.26323 3.87378 9.25745C3.87096 9.25089 3.86975 9.24394 3.86975 9.23923H6.09357C6.09357 8.01473 5.09135 7.04825 3.88756 7.04825V9.27207Z" fill="white" mask="url(#path-5-inside-1_3383_86466)"/>
<path d="M28.7652 11.1766C26.0904 11.5423 26.8121 9.69652 27.5073 8.72792C26.0926 6.40806 28.2412 6.0263 29.1791 7.16903C30.6446 4.4526 31.8798 7.16906 31.5129 8.30348C34.1947 9.07163 32.6514 10.5937 31.5129 10.6216C30.8773 12.9985 29.4163 11.982 28.7652 11.1766Z" fill="white" stroke="white" stroke-width="0.941018" stroke-linecap="round"/>
<mask id="path-8-inside-2_3383_86466" fill="white">
<ellipse cx="29.7528" cy="9.23923" rx="1.0941" ry="1.07907"/>
</mask>
<ellipse cx="29.7528" cy="9.23923" rx="1.0941" ry="1.07907" fill="white"/>
<path d="M29.735 9.23923C29.735 9.23451 29.7362 9.22757 29.739 9.221C29.7415 9.21523 29.7442 9.21205 29.7457 9.21059C29.7471 9.20913 29.7487 9.20808 29.7506 9.2073C29.7532 9.20622 29.7546 9.20639 29.7528 9.20639V11.4302C30.9566 11.4302 31.9588 10.4637 31.9588 9.23923H29.735ZM29.7528 9.20639C29.751 9.20639 29.7524 9.20622 29.755 9.2073C29.7569 9.20808 29.7585 9.20913 29.7599 9.21059C29.7614 9.21205 29.7641 9.21523 29.7666 9.221C29.7694 9.22757 29.7706 9.23451 29.7706 9.23923H27.5468C27.5468 10.4637 28.549 11.4302 29.7528 11.4302V9.20639ZM29.7706 9.23923C29.7706 9.24394 29.7694 9.25089 29.7666 9.25745C29.7641 9.26323 29.7614 9.2664 29.7599 9.26787C29.7585 9.26932 29.7569 9.27037 29.755 9.27116C29.7524 9.27223 29.751 9.27207 29.7528 9.27207V7.04825C28.549 7.04825 27.5468 8.01473 27.5468 9.23923H29.7706ZM29.7528 9.27207C29.7546 9.27207 29.7532 9.27223 29.7506 9.27116C29.7487 9.27037 29.7471 9.26932 29.7457 9.26787C29.7442 9.2664 29.7415 9.26323 29.739 9.25745C29.7362 9.25089 29.735 9.24394 29.735 9.23923H31.9588C31.9588 8.01473 30.9566 7.04825 29.7528 7.04825V9.27207Z" fill="white" mask="url(#path-8-inside-2_3383_86466)"/>
</svg>
