<svg width="34" height="34" viewBox="0 0 34 34" fill="none" xmlns="http://www.w3.org/2000/svg">
<path d="M2 31.9989V19.2261C2 18.6568 2.46149 18.1953 3.03076 18.1953H7.75133C8.32061 18.1953 8.78209 18.6568 8.78209 19.2261V31.9989H2Z" stroke="white" stroke-linecap="round"/>
<path d="M25.6001 31.9696V19.166C25.6001 18.6137 26.0478 18.166 26.6001 18.166H28.9911H31.3822C31.9345 18.166 32.3822 18.6137 32.3822 19.166V31.9696H25.6001Z" stroke="white" stroke-linecap="round"/>
<path d="M7.46094 21.816C7.46094 22.89 6.55661 23.7883 5.40625 23.7883C4.2559 23.7883 3.35156 22.89 3.35156 21.816C3.35156 20.7421 4.2559 19.8438 5.40625 19.8438C6.55661 19.8438 7.46094 20.7421 7.46094 21.816Z" stroke="white"/>
<path d="M6.54904 27.4586C6.54904 28.0611 6.03958 28.5774 5.37633 28.5774C4.71307 28.5774 4.20361 28.0611 4.20361 27.4586C4.20361 26.8561 4.71307 26.3398 5.37633 26.3398C6.03958 26.3398 6.54904 26.8561 6.54904 27.4586Z" stroke="white"/>
<path d="M31.1826 21.8356C31.1826 22.9095 30.2783 23.8078 29.1279 23.8078C27.9776 23.8078 27.0732 22.9095 27.0732 21.8356C27.0732 20.7616 27.9776 19.8633 29.1279 19.8633C30.2783 19.8633 31.1826 20.7616 31.1826 21.8356Z" stroke="white"/>
<path d="M18.9785 24.4215C18.9785 25.4954 18.0742 26.3938 16.9238 26.3938C15.7735 26.3938 14.8691 25.4954 14.8691 24.4215C14.8691 23.3476 15.7735 22.4492 16.9238 22.4492C18.0742 22.4492 18.9785 23.3476 18.9785 24.4215Z" stroke="white"/>
<path d="M30.2702 27.4586C30.2702 28.0611 29.7608 28.5774 29.0975 28.5774C28.4343 28.5774 27.9248 28.0611 27.9248 27.4586C27.9248 26.8561 28.4343 26.3398 29.0975 26.3398C29.7608 26.3398 30.2702 26.8561 30.2702 27.4586Z" stroke="white"/>
<path d="M11.7921 17.1676V17.8145H10.9102V31.9712H23.4403V17.8145H22.1325V17.1672C22.1325 17.0533 22.0402 16.961 21.9263 16.961L17.0759 16.9633C16.9964 16.9633 16.924 17.0091 16.8898 17.0809L16.5409 17.8145H15.3505V17.1671C15.3505 17.0532 15.2582 16.9609 15.1443 16.9609H14.2488C14.135 16.9609 14.0427 17.0532 14.0427 17.1671V17.8145H13.0356L12.8617 17.1191C12.8388 17.0275 12.7566 16.9632 12.6622 16.963L11.9988 16.9614C11.8847 16.9612 11.7921 17.0535 11.7921 17.1676Z" stroke="white" stroke-linecap="round"/>
<path d="M19.5483 16.8719C19.5483 16.7542 19.5483 16.2931 19.5483 16.0773L22.0117 13.7227L20.5215 12.516L20.1261 14.3408L18.7575 15.6064C16.3002 15.3474 15.5439 15.7143 15.4729 15.9301H13.5873L14.6518 10.9267L10.6981 9.69056C9.84654 9.36092 9.65393 8.84684 9.66406 8.63101L9.02539 2.92122C9.63365 1.39076 10.6576 2.10693 11.0935 2.65633L11.7626 7.83635L15.4729 9.07249L18.5142 9.69056C20.485 9.87892 21.2413 10.2988 21.3731 10.4852L24.1102 12.6926C24.9618 13.3519 24.7084 14.0661 24.4752 14.3408L22.0117 16.6071C22.3037 16.6777 22.2348 16.8131 22.1638 16.8719" stroke="white" stroke-width="1.3" stroke-linecap="round"/>
<path d="M20.7275 6.48083C20.7275 7.55421 19.826 8.43822 18.6965 8.43822C17.567 8.43822 16.6655 7.55421 16.6655 6.48083C16.6655 5.40746 17.567 4.52344 18.6965 4.52344C19.826 4.52344 20.7275 5.40746 20.7275 6.48083Z" fill="white" stroke="white" stroke-width="0.5"/>
<path d="M16.1724 4.98073L15.6858 7.24699C15.2904 7.22736 14.4754 6.94678 14.378 5.98141C14.2807 5.01605 15.0066 4.59811 15.3817 4.50981L15.6858 3.95061C16.0609 3.22462 17.4011 1.90803 19.7611 2.44958C22.1212 2.99113 22.5895 5.02978 22.5287 5.98141C23.3803 6.97032 22.8024 7.94354 22.4071 8.30653C21.8231 8.84808 21.2716 8.53218 21.0689 8.30653L21.4643 6.21687C21.5669 5.6209 21.3949 5.08765 21.1732 4.69569C20.9371 4.27829 20.6105 3.89346 20.1903 3.66247C19.5232 3.29576 18.6345 3.29483 18.1797 3.36197C16.9388 3.38552 16.3245 4.45095 16.1724 4.98073Z" fill="white" stroke="white" stroke-width="0.182478" stroke-linecap="round"/>
</svg>
