<svg width="34" height="34" viewBox="0 0 34 34" fill="none" xmlns="http://www.w3.org/2000/svg">
<mask id="path-1-inside-1_3383_86482" fill="white">
<rect x="2" y="2" width="15.145" height="30" rx="0.631043"/>
</mask>
<rect x="2" y="2" width="15.145" height="30" rx="0.631043" stroke="white" stroke-width="3" mask="url(#path-1-inside-1_3383_86482)"/>
<path d="M13.8839 15.5C13.8839 17.6841 12.0495 19.4833 9.75059 19.4833C7.45171 19.4833 5.61725 17.6841 5.61725 15.5C5.61725 13.3159 7.45171 11.5167 9.75059 11.5167C12.0495 11.5167 13.8839 13.3159 13.8839 15.5Z" stroke="white" stroke-width="1.03333"/>
<path d="M24.7534 6.92167C24.7534 7.82202 23.9944 8.58057 23.022 8.58057C22.0497 8.58057 21.2906 7.82202 21.2906 6.92167C21.2906 6.02132 22.0497 5.26276 23.022 5.26276C23.9944 5.26276 24.7534 6.02132 24.7534 6.92167Z" stroke="white" stroke-width="1.03333"/>
<path d="M7.1665 15.2595L9.05963 17.2061L12.2937 14" stroke="white" stroke-width="1.03333" stroke-linecap="round"/>
<path d="M6.13281 3V4.03053C6.22484 4.32316 6.56665 4.90076 7.1977 4.87023H11.5756C11.8911 4.84478 12.5142 4.64122 12.4827 4.03053V3" stroke="white" stroke-width="1.03333" stroke-linecap="round"/>
<path d="M27.6163 6.77366C27.4045 10.081 24.5788 13.9216 23.0713 15.5454C22.9729 15.6514 22.8046 15.6399 22.7169 15.5249L21.1086 13.4151L19.4916 10.8958L19.4883 10.8902C19.0145 10.088 18.1904 8.69286 18.3478 6.77366C18.545 4.36908 19.7677 3.45349 20.0832 3.22426C21.3491 2.30451 22.3181 2.38457 23.0412 2.38457C23.475 2.41002 24.5163 2.55251 25.6837 3.22427C26.8511 3.89602 27.6163 5.0945 27.6163 6.77366Z" stroke="white" stroke-width="1.5" stroke-linecap="round"/>
<path d="M17.8545 17.8027C19.1297 18.0572 22.1377 19.0165 23.9677 20.818M23.9677 20.818L31.4393 23.1152C31.5004 23.134 31.5441 23.1878 31.55 23.2514L31.9186 27.2105C31.9272 27.303 31.8544 27.3829 31.7615 27.3829H30.1204M23.9677 20.818C24.5988 22.131 20.1552 21.874 17.8545 21.5814M24.4804 27.6882H17.8545" stroke="white" stroke-linecap="round"/>
<path d="M29.7388 26.6928C29.7388 28.0245 28.6186 29.1318 27.2019 29.1318C25.7853 29.1318 24.665 28.0245 24.665 26.6928C24.665 25.3612 25.7853 24.2539 27.2019 24.2539C28.6186 24.2539 29.7388 25.3612 29.7388 26.6928Z" stroke="white"/>
<ellipse cx="18.2903" cy="24.1004" rx="0.513491" ry="0.496927" fill="white"/>
<ellipse cx="19.9451" cy="25.3211" rx="0.513491" ry="0.496927" fill="white"/>
<ellipse cx="21.5233" cy="24.1004" rx="0.513491" ry="0.496927" fill="white"/>
</svg>
