<svg width="34" height="34" viewBox="0 0 34 34" fill="none" xmlns="http://www.w3.org/2000/svg">
<path d="M15.6309 17.4508V19.4975C13.8372 19.7412 10.2797 21.2519 10.3984 25.3454L18 27.002L25.6505 25.3454C25.7124 23.5788 24.6337 19.9361 19.8243 19.4975V17.4508M28.0349 23.4864L24.2969 18.8846C25.0391 15.639 28.1007 16.0476 29.4366 16.5837L30.3711 21.6457M28.0349 23.4864L29.9923 25.5647L32 29.502C32.3711 29.7943 32.9109 30.2592 33 29.002L31.2541 24.9799L30.3711 21.6457M28.0349 23.4864C28.1939 23.0491 28.5544 22.5901 28.9694 22.1059M30.3711 21.6457C29.9025 21.5507 29.329 21.6862 28.9694 22.1059M28.0349 20.2651L28.9694 22.1059" stroke="white" stroke-width="1.45712" stroke-linecap="round"/>
<path d="M3.54097 25.1754L1.84546 27.3725C1.53795 27.771 1.60451 28.3429 1.9958 28.6641L3.35799 29.7823C3.76354 30.1152 4.36223 30.0525 4.68577 29.6433L6.4824 27.3706M3.54097 25.1754L4.76479 23.4095C4.91161 23.1977 5.20357 23.1459 5.41632 23.2941L6.18351 23.8284M3.54097 25.1754L6.4824 27.3706M6.4824 27.3706L7.80455 25.5566C7.95744 25.3469 7.90836 25.052 7.69542 24.9009L7.34141 24.6498M6.18351 23.8284L7.34141 24.6498M6.18351 23.8284L7.36731 22.1053L8.76904 20.2645C9.41497 19.7157 10.5564 19.2504 9.88461 21.1706L7.34141 24.6498" stroke="white" stroke-width="1.45712" stroke-linecap="round"/>
<path d="M10.0658 17.5169L9.91414 11.1939M25.4292 14.593C26.7949 7.10776 24.4685 4.69176 22.6089 3.5552C15.6147 -0.719515 11.553 4.01283 10.1183 7.48791C9.9172 7.97492 9.84959 8.50253 9.86223 9.02925L9.91414 11.1939M9.91414 11.1939C10.5383 11.2923 11.283 11.3572 12.0697 11.3551M12.0697 11.3551C15.1823 11.3471 18.9534 10.2914 18.5268 6.11362C18.5021 6.51567 19.1503 7.50249 21.9409 8.23347C22.9924 9.0741 24.4644 11.5667 21.9409 14.8123C21.2606 15.6164 19.5139 17.283 17.9702 17.5169C16.2631 17.1249 12.6932 15.3437 12.0697 11.3551Z" stroke="white" stroke-width="1.45712" stroke-linecap="round"/>
</svg>
