<svg width="34" height="34" viewBox="0 0 34 34" fill="none" xmlns="http://www.w3.org/2000/svg">
<path d="M17.7976 6.64989C17.7976 8.77795 16.0029 10.5479 13.7327 10.5479C11.4626 10.5479 9.66786 8.77795 9.66786 6.64989C9.66786 4.52182 11.4626 2.75185 13.7327 2.75185C16.0029 2.75185 17.7976 4.52182 17.7976 6.64989Z" stroke="white" stroke-width="1.50369"/>
<path d="M15.3922 23.6102C15.3922 24.2881 14.8178 24.8676 14.0717 24.8676C13.3256 24.8676 12.7512 24.2881 12.7512 23.6102C12.7512 22.9322 13.3256 22.3528 14.0717 22.3528C14.8178 22.3528 15.3922 22.9322 15.3922 23.6102Z" stroke="white" stroke-width="1.00246"/>
<path d="M7.21813 19.4069L6.0757 20.629L10.4602 24.0866C10.7483 25.0503 10.7998 26.8467 8.7002 26.3221L2 21.4635L7.92828 13.8926H18.0249L21.7301 17.5588" stroke="white" stroke-linecap="round"/>
<path d="M8.91602 18.1562V19.8851" stroke="white" stroke-width="1.00246" stroke-linecap="round"/>
<path d="M9.01758 29.4165V31.2979C9.01758 31.6854 9.33175 31.9996 9.7193 31.9996H17.338C17.7256 31.9996 18.0397 31.6854 18.0397 31.2979V26.5176" stroke="white" stroke-linecap="round"/>
<path d="M7.43432 21.6731C7.79455 20.8087 9.41042 19.2289 12.9921 19.8251C14.1963 18.4738 17.1728 16.3615 19.4453 18.7222M6.72416 24.922C6.69329 25.6374 7.12556 27.5093 9.10165 29.2739C11.0777 31.0384 13.3214 30.7046 14.1963 30.3171C14.7418 30.0985 16.1353 29.0354 17.3457 26.5316C19.0645 26.2236 22.2736 24.8207 21.3596 21.6731M17.3457 20.4808L18.7042 22.6567L23.0269 20.2125" stroke="white" stroke-linecap="round"/>
<path d="M17.3447 20.4794L27.2561 14.9651M27.2561 17.767L28.3676 17.0814M27.1326 14.5777L28.6455 17.0814L31.9493 15.7103C32.0831 14.7764 31.8814 12.8369 30.0041 12.5508L27.1326 14.5777Z" stroke="white" stroke-linecap="round"/>
<path d="M27.0091 18.2343C27.2213 18.455 27.3172 18.8147 27.2088 19.2836C27.1009 19.7499 26.7969 20.2726 26.3003 20.7175C25.8036 21.1625 25.2411 21.4163 24.7514 21.4853C24.2589 21.5548 23.8945 21.4357 23.6823 21.215C23.4701 20.9943 23.3742 20.6346 23.4826 20.1657C23.5904 19.6993 23.8945 19.1767 24.3911 18.7318C24.8877 18.2868 25.4502 18.033 25.94 17.9639C26.4325 17.8945 26.7969 18.0136 27.0091 18.2343Z" stroke="white"/>
<path d="M7.21759 7.42514L5.60999 5.9926C5.4527 5.85243 5.2034 5.96088 5.19871 6.17151L5.11434 9.95873M5.11434 9.95873L5.08711 11.1808C5.01183 11.6896 4.4805 12.5488 2.97387 12.273C2.6775 12.2188 2.40727 12.0475 2.27802 11.7753C2.05646 11.3088 1.95354 10.6227 2.52437 10.0183C2.96449 9.57124 4.09867 8.93337 5.11434 9.95873Z" stroke="white" stroke-width="1.00246" stroke-linecap="round"/>
<path d="M26.8763 4.08529L25.2687 2.65276C25.1114 2.51259 24.8621 2.62104 24.8574 2.83167L24.773 6.61889M24.773 6.61889L24.7458 7.84097C24.6705 8.34971 24.1392 9.20899 22.6326 8.9332C22.3362 8.87895 22.066 8.70766 21.9367 8.4355C21.7152 7.96897 21.6122 7.28288 22.1831 6.6785C22.6232 6.23139 23.7574 5.59353 24.773 6.61889Z" stroke="white" stroke-width="1.00246" stroke-linecap="round"/>
<path d="M32.0027 25.9056L30.3951 24.4731C30.2379 24.3329 29.9886 24.4414 29.9839 24.652L29.8995 28.4392M29.8995 28.4392L29.8723 29.6613C29.797 30.17 29.2657 31.0293 27.759 30.7535C27.4627 30.6993 27.1924 30.528 27.0632 30.2558C26.8416 29.7893 26.7387 29.1032 27.3095 28.4988C27.7496 28.0517 28.8838 27.4138 29.8995 28.4392Z" stroke="white" stroke-linecap="round"/>
</svg>
