<svg width="34" height="34" viewBox="0 0 34 34" fill="none" xmlns="http://www.w3.org/2000/svg">
<path d="M9.83091 14.7059H7.40438C6.90491 14.7059 6.5 15.1182 6.5 15.6176C5.67157 15.6176 5 16.2892 5 17.1176V30.0142C5 31.1109 5.88908 32 6.98582 32H27.2201C28.3168 32 29.2059 31.1109 29.2059 30.0142V16.9706C29.2059 16.2234 28.6002 15.6176 27.8529 15.6176C27.8529 15.2278 27.5369 14.9118 27.1471 14.9118H25.8529C25.4631 14.9118 25.1471 15.2278 25.1471 15.6176H22.6471C21.9118 13.5588 21.4118 12.4706 19.6471 12.5294V11.7941C21.0824 11.4882 21.3627 10.1176 21.3235 9.47059C22.2819 9.47059 23.0588 8.69367 23.0588 7.73529V3.98582C23.0588 2.88908 22.1697 2 21.073 2H12.9858C11.8891 2 11 2.88909 11 3.98583V7.64706C11 8.65417 11.8164 9.47059 12.8235 9.47059C12.7059 11 13.8529 11.6569 14.4412 11.7941V12.5294C12.1765 12.4118 11.9118 14.9118 11.5 15.6176H10.7353C10.7353 15.1182 10.3304 14.7059 9.83091 14.7059Z" stroke="white" stroke-width="1.5"/>
<ellipse cx="7.41182" cy="18.1765" rx="1.17647" ry="1.17647" fill="white"/>
<ellipse cx="9.00034" cy="19.7054" rx="0.588235" ry="0.588235" fill="white"/>
<path d="M23.3231 23.7353C23.3231 27.179 20.5315 29.9706 17.0878 29.9706C13.6442 29.9706 10.8525 27.179 10.8525 23.7353C10.8525 20.2916 13.6442 17.5 17.0878 17.5C20.5315 17.5 23.3231 20.2916 23.3231 23.7353Z" stroke="white"/>
<rect x="14" y="14.1758" width="6.11765" height="1.41176" rx="0.705882" fill="white"/>
<rect x="12.8366" y="3.83807" width="8.44472" height="1.1506" fill="white" stroke="white" stroke-width="0.496456"/>
<rect x="12.8366" y="6.42401" width="8.44472" height="1.1506" fill="white" stroke="white" stroke-width="0.496456"/>
<path d="M22.2799 23.677C22.2799 26.4791 20.0084 28.7506 17.2063 28.7506C14.4043 28.7506 12.1328 26.4791 12.1328 23.677C12.1328 20.875 14.4043 18.6035 17.2063 18.6035C20.0084 18.6035 22.2799 20.875 22.2799 23.677Z" stroke="white" stroke-width="0.5"/>
<path d="M19.7803 23.6776C19.7803 25.0989 18.6282 26.251 17.2069 26.251C15.7857 26.251 14.6335 25.0989 14.6335 23.6776C14.6335 22.2564 15.7857 21.1042 17.2069 21.1042C18.6282 21.1042 19.7803 22.2564 19.7803 23.6776Z" stroke="white" stroke-width="0.79433"/>
</svg>
