<svg width="34" height="34" viewBox="0 0 34 34" fill="none" xmlns="http://www.w3.org/2000/svg">
<path d="M3.12382 23.1836C3.56254 23.3931 4.01817 23.4277 4.33287 23.3866H8.71158M3.12382 23.1836C2.51477 22.8927 1.93831 22.2647 1.81674 21.0339L0.999817 14.1717C1.3048 13.4202 2.15658 12.368 3.12382 14.1717L4.28627 20.7695C4.31322 20.9224 4.44609 21.0339 4.60139 21.0339H9.10008C9.35813 21.0339 9.61715 21.1032 9.80469 21.2805C10.2879 21.7372 10.6708 22.4895 9.79407 23.1829C9.60916 23.3292 9.37136 23.3866 9.13561 23.3866H8.71158M3.12382 23.1836L0.999817 31.0004M8.71158 23.3866V31.0004" stroke="white" stroke-width="1.45" stroke-linecap="round"/>
<path d="M30.8726 23.0039C30.4339 23.2134 29.9782 23.248 29.6635 23.207H25.2848M30.8726 23.0039C31.4816 22.7131 32.0581 22.0851 32.1797 20.8542L32.9966 13.992C32.6916 13.2405 31.8398 12.1883 30.8726 13.992L29.7101 20.5898C29.6832 20.7427 29.5503 20.8542 29.395 20.8542H24.8963C24.6383 20.8542 24.3793 20.9235 24.1917 21.1008C23.7085 21.5575 23.3256 22.3098 24.2023 23.0033C24.3872 23.1495 24.625 23.207 24.8608 23.207H25.2848M30.8726 23.0039L32.9966 30.8207M25.2848 23.207V30.8207" stroke="white" stroke-width="1.45" stroke-linecap="round"/>
<rect x="9.42966" y="13.8449" width="15.2928" height="1.30708" stroke="white" stroke-width="1.30708"/>
<path d="M15.9015 15.8047V27.9278M18.2216 15.8047V27.9278" stroke="white" stroke-width="1.45" stroke-linecap="round"/>
<rect x="14.3382" y="28.6195" width="5.34681" height="1.62164" stroke="white" stroke-width="1.45"/>
<path d="M17.0446 2V6.08462M17.0446 6.08462L14.6949 8.46295C14.5726 8.5868 14.6603 8.79681 14.8344 8.79681H19.1688C19.3412 8.79681 19.4297 8.59042 19.3108 8.46558L17.0446 6.08462Z" stroke="white" stroke-width="1.45" stroke-linecap="round"/>
</svg>
