<svg width="34" height="34" viewBox="0 0 34 34" fill="none" xmlns="http://www.w3.org/2000/svg">
<path d="M9.74074 19.9674H6.62963L3 32.0002H31L27.3704 19.9674H23.7407L16.9962 28.1475C16.8497 28.3251 16.5774 28.3246 16.4316 28.1464L9.74074 19.9674Z" stroke="white" stroke-width="1.5" stroke-linecap="round"/>
<path d="M23.8774 15.4896L16.7132 24.0373L9.64185 15.4588C9.06452 14.7584 8.55543 13.9924 8.27827 13.1281C7.48835 10.6648 7.82223 8.72536 8.30657 7.60572C8.51985 7.11271 8.81552 6.65585 9.09814 6.19905C12.3331 0.970343 18.3159 1.62447 20.8309 2.88582C26.021 5.48883 26.0443 10.3361 25.192 13.2375C24.9442 14.081 24.4421 14.8158 23.8774 15.4896Z" stroke="white" stroke-width="1.5" stroke-linecap="round"/>
<path d="M20.044 10.0678C20.044 11.7686 18.6029 13.2361 16.7139 13.2361C14.8249 13.2361 13.3839 11.7686 13.3839 10.0678C13.3839 8.36704 14.8249 6.8995 16.7139 6.8995C18.6029 6.8995 20.044 8.36704 20.044 10.0678Z" stroke="white" stroke-width="3.11931"/>
</svg>
