<svg width="34" height="34" viewBox="0 0 34 34" fill="none" xmlns="http://www.w3.org/2000/svg">
<path d="M6.13433 17.9569H2.49999C2.22385 17.9569 2 18.1808 2 18.4569V21.4079M6.13433 17.9569V21.4079M6.13433 17.9569H9.00445M6.13433 32H2.49999C2.22385 32 2 31.7762 2 31.5V28.4807M6.13433 32V28.4807M6.13433 32H15.5305M2 28.4807H6.13433M2 28.4807V24.8589M6.13433 28.4807V24.8589M2 24.8589H6.13433M2 24.8589V21.4079M6.13433 24.8589V21.4079M2 21.4079H6.13433M15.5305 32H18.7207C18.9968 32 19.2207 31.7762 19.2207 31.5V28.4807M15.5305 32V28.4807M15.5305 28.4807H19.2207M15.5305 28.4807V24.8589M19.2207 28.4807V24.8589M15.5305 24.8589H19.2207M15.5305 24.8589V21.4079H19.2207V24.8589M24.5851 13.2418V11.1074C24.5851 10.0028 23.6897 9.10742 22.5851 9.10742H11.0044C9.89987 9.10742 9.00445 10.0028 9.00445 11.1074V17.9569M24.5851 13.2418L31.4256 11.2115C31.7461 11.1163 32.0679 11.3565 32.0679 11.6908V18.3352C32.0679 18.6625 31.7587 18.9015 31.4419 18.8191L24.5851 17.0344M24.5851 13.2418V17.0344M24.5851 17.0344V18.8271C24.5851 19.9316 23.6897 20.8271 22.5851 20.8271H11.0044C9.89987 20.8271 9.00445 19.9316 9.00445 18.8271V17.9569M14.7447 11.5334L20.4507 15.2918L14.7447 18.982V11.5334ZM15.5305 12.6876L19.2207 15.2918L15.5305 17.6875V12.6876ZM16.2166 13.6876L18.2166 15.2918L16.2166 16.6875V13.6876Z" stroke="white" stroke-width="1.3"/>
<circle cx="13.1048" cy="7.09013" r="1.36591" stroke="white" stroke-width="1.3"/>
<circle cx="19.9724" cy="5.55348" r="2.90348" stroke="white" stroke-width="1.3"/>
</svg>
